<?xml version="1.0" standalone="no"?>
<!DOCTYPE svg PUBLIC "-//W3C//DTD SVG 1.1//EN" "http://www.w3.org/Graphics/SVG/1.1/DTD/svg11.dtd" >
<svg xmlns="http://www.w3.org/2000/svg" width="100%" height="100%">
<metadata>
Created by FontXChange 20110222 at Wed Apr  4 12:41:44 2012
 By Richard Rutter
Copyright (c) 2011 by Fontsmith Ltd. All rights reserved.
</metadata>
<defs>
<font id="" horiz-adv-x="590" >
  <font-face 
    font-family=""
    font-weight="700"
    font-stretch="normal"
    units-per-em="1000"
    panose-1="2 0 8 3 4 0 0 2 0 4"
    ascent="750"
    descent="-250"
    x-height="528"
    cap-height="720"
    bbox="-80 -317.5 1312 1128"
    underline-thickness="50"
    underline-position="-50"
    unicode-range="U+0020-FB02"
  />
<missing-glyph horiz-adv-x="694" 
d="M90 720h514v-720h-514v720zM522 669h-350l176 -263zM553 98v524l-175 -262zM522 52l-174 262l-176 -262h350zM142 98l174 262l-174 262v-524z" />
    <glyph glyph-name="uniFB01" unicode="fi" horiz-adv-x="640" 
d="M99 528v14q0 51 15 90t42 68q32 35 81.5 52.5t112.5 17.5q54 0 98 -10.5t85 -30.5q11 -5 10 -13t-9 -31l-9 -25q-9 -24 -14.5 -29.5t-14.5 -1.5q-64 28 -127 28q-69 0 -102 -33q-17 -17 -24 -40t-7 -52v-4h114q7 0 10 -7t3 -43v-7q0 -36 -3 -43t-10 -7h-114v-406
q0 -4 -2 -7t-8.5 -4.5t-19.5 -2.5t-35 -1h-5q-24 0 -37.5 1t-20 2.5t-8 4.5t-1.5 7v406h-76q-7 0 -10 7t-3 43v7q0 36 3 43t10 7h76zM505 528q22 0 35 -1t19.5 -2.5t8.5 -4.5t2 -7v-498q0 -4 -2 -7t-8.5 -4.5t-19.5 -2.5t-35 -1h-5q-24 0 -37.5 1t-20 2.5t-8 4.5t-1.5 7v498
q0 4 1.5 7t8 4.5t20 2.5t37.5 1h5z" />
    <glyph glyph-name="uniFB02" unicode="fl" horiz-adv-x="663" 
d="M99 528v14q0 51 15 90t42 68q32 35 81.5 52.5t122.5 17.5q62 0 116.5 -15t79.5 -38q11 -10 13.5 -18.5t3.5 -25.5q2 -42 2.5 -98.5t0.5 -118.5v-318q0 -17 7 -25.5t26 -8.5h12q7 0 8.5 -8t1.5 -36v-9q0 -27 -1.5 -34t-7.5 -10q-11 -5 -29 -8.5t-38 -3.5q-54 0 -84 30
q-18 18 -25 44t-7 61v347q0 37 -1 81t-3 84q-29 15 -68 15q-67 0 -100 -33q-17 -17 -24 -40t-7 -52v-4h114q7 0 10 -7t3 -43v-7q0 -36 -3 -43t-10 -7h-114v-406q0 -4 -2 -7t-8.5 -4.5t-19.5 -2.5t-35 -1h-5q-24 0 -37.5 1t-20 2.5t-8 4.5t-1.5 7v406h-76q-7 0 -10 7t-3 43v7
q0 36 3 43t10 7h76z" />
    <glyph glyph-name=".notdef" horiz-adv-x="694" 
d="M90 720h514v-720h-514v720zM522 669h-350l176 -263zM553 98v524l-175 -262zM522 52l-174 262l-176 -262h350zM142 98l174 262l-174 262v-524z" />
    <glyph glyph-name=".null" horiz-adv-x="0" 
 />
    <glyph glyph-name="nonmarkingreturn" horiz-adv-x="254" 
 />
    <glyph glyph-name="space" unicode=" " horiz-adv-x="254" 
 />
    <glyph glyph-name="exclam" unicode="!" horiz-adv-x="299" 
d="M64 72q0 35 24 59t61 24q38 0 62 -24t24 -59q0 -34 -24 -58t-62 -24q-37 0 -61 24t-24 58zM153 720q43 0 55.5 -4t12.5 -13l-16 -454q0 -8 -9.5 -10t-36.5 -2h-21q-27 0 -36.5 2t-9.5 10l-18 454q0 4 2.5 7.5t10 5.5t20.5 3t35 1h11z" />
    <glyph glyph-name="quotedbl" unicode="&#x22;" horiz-adv-x="433" 
d="M119 720q42 0 52.5 -2.5t9.5 -11.5l-14 -254q0 -5 -9.5 -8t-36.5 -3h-9q-29 0 -38.5 3t-9.5 8l-13 254q-1 9 9.5 11.5t52.5 2.5h6zM320 720q42 0 52.5 -2.5t9.5 -11.5l-14 -254q0 -5 -9.5 -8t-36.5 -3h-9q-29 0 -38.5 3t-9.5 8l-13 254q-1 9 9.5 11.5t52.5 2.5h6z" />
    <glyph glyph-name="numbersign" unicode="#" 
d="M232 296h99l27 132h-99zM270 720q32 0 39.5 -3t6.5 -8l-35 -173h99l36 173q2 5 9 8t39 3h21q32 0 39.5 -3t6.5 -8l-35 -173h60q5 0 8.5 -0.5t5.5 -5t3 -14.5t1 -30v-3q0 -19 -1 -30t-3 -16.5t-5.5 -7t-8.5 -1.5h-81l-27 -132h58q5 0 8.5 -0.5t5.5 -5t3 -14.5t1 -30v-3
q0 -19 -1 -30t-3 -16.5t-5.5 -7t-8.5 -1.5h-80h-1l-37 -177q-2 -5 -9 -8t-39 -3h-21q-32 0 -39.5 3t-6.5 8l36 177h-99l-37 -177q-2 -5 -9 -8t-39 -3h-21q-32 0 -39.5 3t-6.5 8l36 177h-60q-5 0 -8.5 1.5t-5.5 7t-3 16.5t-1 30v3q0 20 1 30t3 14.5t5.5 5t8.5 0.5h82l27 132
h-59q-5 0 -8.5 1.5t-5.5 7t-3 16.5t-1 30v3q0 20 1 30t3 14.5t5.5 5t8.5 0.5h81l36 173q2 5 9 8t39 3h21z" />
    <glyph glyph-name="dollar" unicode="$" 
d="M319 829q22 0 34.5 -1t18.5 -2.5t7.5 -4.5t1.5 -7v-89q34 -6 65 -18t57 -30q11 -8 10 -19t-14 -37l-10 -20q-14 -28 -20.5 -32.5t-15.5 1.5q-33 20 -61 31t-63 11q-43 0 -68.5 -23t-25.5 -58q0 -19 9.5 -34t25.5 -27t36 -22l41 -22l65 -36q32 -18 58 -43t42 -59t16 -81
q0 -83 -46.5 -140.5t-137.5 -71.5v-89q0 -4 -1.5 -7t-7.5 -4.5t-18.5 -2.5t-34.5 -1h-3q-23 0 -36 1t-19 2.5t-7.5 4.5t-1.5 7v91q-45 8 -82 24.5t-63 37.5q-10 8 -10 19t13 36l12 23q13 24 21 31t18 0q36 -26 74.5 -41.5t77.5 -15.5q49 0 78.5 21.5t29.5 63.5q0 23 -10 40
t-26 30t-38 24l-43 22q-32 15 -63 33t-56.5 42t-41 56t-15.5 76q0 40 12 73.5t34 59t51 43t64 26.5v93q0 4 1.5 7t7.5 4.5t19 2.5t36 1h3z" />
    <glyph glyph-name="percent" unicode="%" horiz-adv-x="969" 
d="M233 643q-35 0 -52.5 -31t-17.5 -90q0 -62 17 -89t47 -27q35 0 52.5 31t17.5 90q0 62 -17 89t-47 27zM234 730q37 0 68.5 -12.5t54.5 -37t36 -62t13 -87.5q0 -52 -13 -91.5t-37 -66.5t-57 -40.5t-73 -13.5q-37 0 -68.5 12.5t-54.5 37t-36 62t-13 87.5q0 52 13 91.5
t37 66.5t57 40.5t73 13.5zM716 720q22 0 33.5 -1t16.5 -3t4.5 -5.5t-3.5 -7.5l-437 -686q-6 -10 -20 -13.5t-51 -3.5h-7q-35 0 -43.5 4t-2.5 13l437 686q7 11 20 14t51 3h2zM742 314q-35 0 -52.5 -31t-17.5 -90q0 -62 17 -89t47 -27q35 0 52.5 31t17.5 90q0 62 -17 89
t-47 27zM743 401q37 0 68.5 -12.5t54.5 -37t36 -62t13 -87.5q0 -52 -13 -91.5t-37 -66.5t-57 -40.5t-73 -13.5q-37 0 -68.5 12.5t-54.5 37t-36 62t-13 87.5q0 52 13 91.5t37 66.5t57 40.5t73 13.5z" />
    <glyph glyph-name="ampersand" unicode="&#x26;" horiz-adv-x="696" 
d="M477 626q-10 -23 -16.5 -29t-15.5 -2q-22 10 -44.5 16t-48.5 6q-45 0 -68 -24.5t-23 -58.5q0 -26 12 -51t43 -61q26 -29 70 -74l97 -94q25 63 31 151q0 4 2 7t7.5 5t16 3t28.5 1h11q32 0 45 -3.5t12 -12.5q-3 -64 -18 -124t-41 -111l43 -36q20 -18 41 -32q8 -6 2.5 -19.5
t-25.5 -38.5l-8 -10q-23 -29 -33 -33t-17 1q-20 14 -40 30l-42 35q-42 -37 -96 -57t-124 -20q-49 0 -93 14.5t-77 42.5t-52.5 69t-19.5 93q0 66 34 114t94 77q-22 32 -33 65t-11 69q0 40 15 76t43.5 62.5t68.5 42t90 15.5q44 0 82.5 -11t68.5 -31q8 -5 7 -14.5t-10 -31.5z
M226 324q-23 -19 -34.5 -45.5t-11.5 -58.5q0 -52 34 -82t90 -30q58 0 104 38l-100 94q-48 46 -82 84z" />
    <glyph glyph-name="quotesingle" unicode="'" horiz-adv-x="232" 
d="M119 720q42 0 52.5 -2.5t9.5 -11.5l-14 -254q0 -5 -9.5 -8t-36.5 -3h-9q-29 0 -38.5 3t-9.5 8l-13 254q-1 9 9.5 11.5t52.5 2.5h6z" />
    <glyph glyph-name="parenleft" unicode="(" horiz-adv-x="345" 
d="M290 746q28 -18 32 -25t0 -12q-50 -73 -82.5 -174t-32.5 -225t32.5 -225t82.5 -174q4 -5 0 -12t-32 -25l-14 -9q-26 -17 -34.5 -18.5t-13.5 3.5q-33 32 -64.5 79.5t-56 107t-39 128.5t-14.5 145q0 74 14.5 143t39 128.5t56 108t64.5 80.5q5 5 13.5 3.5t34.5 -18.5z" />
    <glyph glyph-name="parenright" unicode=")" horiz-adv-x="345" 
d="M69 755q26 17 34.5 18.5t13.5 -3.5q33 -32 64.5 -80.5t56 -108t39 -128.5t14.5 -143q0 -76 -14.5 -145t-39 -128.5t-56 -107t-64.5 -79.5q-5 -5 -13.5 -3.5t-34.5 18.5l-14 9q-14 9 -21.5 15t-10.5 10t-2.5 6.5t2.5 5.5q50 73 82.5 174t32.5 225t-32.5 225t-82.5 174
q-2 3 -2.5 5.5t2.5 6.5t10.5 10t21.5 15z" />
    <glyph glyph-name="asterisk" unicode="*" horiz-adv-x="422" 
d="M168 600l-10 116q-1 10 8.5 12t35.5 2h13q26 0 35.5 -2t8.5 -12l-11 -116l114 46q10 4 15 -4.5t13 -33.5l4 -13q8 -26 8 -35t-10 -11l-118 -29l81 -91q7 -7 1.5 -15.5t-25.5 -23.5l-12 -9q-21 -16 -30.5 -18.5t-14.5 5.5l-66 104l-61 -104q-5 -8 -14.5 -5.5t-30.5 18.5
l-12 9q-20 15 -25.5 23t1.5 16l76 91l-112 29q-10 2 -10 11t8 35l4 13q8 25 13 33.5t15 4.5z" />
    <glyph glyph-name="plus" unicode="+" 
d="M237 405v175q0 8 8.5 11t41.5 3h14q33 0 41.5 -3t8.5 -11v-175h176q8 0 11 -8.5t3 -41.5v-14q0 -33 -3 -41.5t-11 -8.5h-176v-176q0 -8 -8.5 -11t-41.5 -3h-14q-33 0 -41.5 3t-8.5 11v176h-175q-8 0 -11 8.5t-3 41.5v14q0 33 3 41.5t11 8.5h175z" />
    <glyph glyph-name="comma" unicode="," horiz-adv-x="239" 
d="M26 -165q-8 8 -9.5 13t5.5 13q34 44 44.5 73.5t10.5 47.5t-7 28.5t-15.5 20.5t-15.5 21t-7 30q0 27 21 49.5t56 22.5q39 0 64 -27t25 -72q0 -62 -33.5 -122.5t-91.5 -114.5q-14 -13 -29 1z" />
    <glyph glyph-name="hyphen" unicode="-" horiz-adv-x="390" 
d="M342 345q8 0 11 -8.5t3 -41.5v-14q0 -33 -3 -41.5t-11 -8.5h-294q-8 0 -11 8.5t-3 41.5v14q0 33 3 41.5t11 8.5h294z" />
    <glyph glyph-name="period" unicode="." horiz-adv-x="239" 
d="M34 72q0 35 24 59t61 24q38 0 62 -24t24 -59q0 -34 -24 -58t-62 -24q-37 0 -61 24t-24 58z" />
    <glyph glyph-name="slash" unicode="/" horiz-adv-x="369" 
d="M299 720q22 0 34 -1t18 -3t6.5 -5.5t-0.5 -7.5l-208 -686q-3 -11 -15.5 -14t-50.5 -3h-13q-22 0 -34 1t-18 3t-7 5t1 8l208 686q3 11 15.5 14t50.5 3h13z" />
    <glyph glyph-name="zero" unicode="0" 
d="M299 615q-62 0 -90 -68t-28 -193q0 -128 27 -188.5t83 -60.5q62 0 90 68t28 193q0 128 -27 188.5t-83 60.5zM303 730q117 0 183 -89.5t66 -267.5q0 -187 -69 -285t-196 -98q-117 0 -183 89t-66 268q0 187 69 285t196 98z" />
    <glyph glyph-name="one" unicode="1" 
d="M247 701q26 11 41 15t32 4h25q24 0 30 -3.5t6 -11.5v-597h117q7 0 9.5 -8t2.5 -41v-10q0 -33 -2.5 -41t-9.5 -8h-386q-7 0 -9.5 8t-2.5 41v10q0 33 2.5 41t9.5 8h130v462l-123 -53q-9 -4 -16 3t-20 36l-6 14q-11 26 -11.5 36t7.5 14z" />
    <glyph glyph-name="two" unicode="2" 
d="M79 622q-11 19 -10.5 28t11.5 17q38 28 88.5 45.5t101.5 17.5q104 0 163 -55.5t59 -151.5q0 -35 -9 -68t-29.5 -70t-53.5 -80t-81 -97l-81 -91h251q7 0 9.5 -8t2.5 -41v-19q0 -33 -2.5 -41t-9.5 -8h-382q-29 0 -36 2.5t-7 12.5v33q0 20 3 33t18 31l134 163l59 75
q25 33 40.5 61.5t23 54t7.5 52.5q0 47 -26 73t-71 26q-32 0 -62.5 -13t-61.5 -32q-8 -5 -15.5 -0.5t-21.5 29.5z" />
    <glyph glyph-name="three" unicode="3" 
d="M99 634q-12 23 -13 32t10 16q35 22 80 35t93 13q50 0 90 -14.5t67.5 -40.5t42.5 -61t15 -77q0 -51 -28.5 -91t-79.5 -61q60 -18 94 -62.5t34 -110.5q0 -93 -57 -152q-32 -33 -82 -51.5t-119 -18.5q-54 0 -104.5 14t-86.5 39q-8 5 -8 14t11 33l9 18q12 25 19.5 32t15.5 2
q34 -19 68.5 -29t70.5 -10q54 0 87 28.5t33 79.5q0 24 -7.5 45t-24.5 35q-19 17 -50 23.5t-79 6.5h-21q-7 0 -10 8t-3 41v9q0 33 3 41t10 8h25q77 0 109 27t32 73q0 42 -26.5 66t-67.5 24q-28 0 -54 -8t-52 -21q-9 -5 -16.5 -0.5t-20.5 28.5z" />
    <glyph glyph-name="four" unicode="4" 
d="M304 720q42 0 52.5 -3.5t7.5 -11.5l-177 -430h141v121q0 9 11.5 12t53.5 3h5q40 0 53.5 -3t13.5 -12v-121h74q8 0 10.5 -7.5t2.5 -40.5v-15q0 -33 -2.5 -42.5t-10.5 -9.5h-74v-145q0 -9 -13.5 -12t-53.5 -3h-5q-42 0 -53.5 3t-11.5 12v145h-243q-29 0 -36 2.5t-7 12.5v40
q0 14 0.5 27t6.5 27l178 436q2 5 5 8t10 4.5t19 2t32 0.5h11z" />
    <glyph glyph-name="five" unicode="5" 
d="M467 720q7 0 9.5 -8t2.5 -41v-19q0 -33 -2.5 -41t-9.5 -8h-236v-141q7 1 21 1.5t22 0.5q52 0 96 -14t75 -42.5t48.5 -71t17.5 -98.5q0 -54 -17 -97.5t-47 -75.5q-35 -37 -86.5 -56t-114.5 -19q-53 0 -99.5 14.5t-83.5 38.5q-10 7 -10.5 16.5t13.5 36.5l9 18q11 22 17 28
t15 1q33 -20 65 -30t72 -10q56 0 90.5 34t34.5 95t-34.5 94t-102.5 33q-23 0 -51.5 -3t-51.5 -8q-24 -6 -24 12v345q0 10 8 12.5t37 2.5h317z" />
    <glyph glyph-name="six" unicode="6" 
d="M468 621q-11 -22 -17 -25.5t-13 -0.5q-23 11 -45 17.5t-45 6.5q-30 0 -51.5 -10.5t-38.5 -31.5q-41 -53 -53 -162q27 20 62 33t71 13q46 0 83.5 -15.5t64 -44t40.5 -68.5t14 -88q0 -51 -17 -97t-48.5 -81t-76.5 -56t-101 -21q-63 0 -108 23t-74.5 65t-43 101t-13.5 130
q0 96 19.5 173.5t56 132.5t89 85t118.5 30q44 0 80.5 -12t59.5 -29q11 -8 10 -17t-10 -26zM200 304q0 -102 27 -152t75 -50q43 0 71.5 38t28.5 98q0 113 -100 113q-24 0 -52.5 -9.5t-49.5 -24.5v-13z" />
    <glyph glyph-name="seven" unicode="7" 
d="M486 720q29 0 36 -4.5t7 -15.5v-42q0 -14 -4 -29t-15 -42l-237 -572q-4 -10 -16.5 -12.5t-52.5 -2.5h-36q-26 0 -36 3t-6 12l258 588h-303q-7 0 -9.5 8t-2.5 41v19q0 33 2.5 41t9.5 8h405z" />
    <glyph glyph-name="eight" unicode="8" 
d="M172 364q-37 26 -62 67t-25 100q0 43 16 79.5t44.5 62.5t69 41t90.5 15q47 0 86 -13t66.5 -36.5t43 -57.5t15.5 -76q0 -48 -28 -87.5t-75 -68.5q25 -14 48 -31t40.5 -40.5t28 -53t10.5 -67.5q0 -53 -19.5 -92t-53.5 -65t-81 -39t-101 -13q-48 0 -91 12.5t-75 37t-50.5 61
t-18.5 85.5q0 60 34 105.5t88 73.5zM259 315q-36 -24 -52.5 -55t-16.5 -66q0 -45 30 -68.5t75 -23.5q48 0 76.5 24t28.5 66q0 24 -12 41.5t-32 31.5q-18 14 -44 26zM321 434q25 19 44 46.5t19 59.5q0 35 -22.5 57.5t-60.5 22.5q-36 0 -58 -23t-22 -55q0 -20 7.5 -36
t21 -28.5t32 -23t39.5 -20.5z" />
    <glyph glyph-name="nine" unicode="9" 
d="M105 101q11 22 17.5 26t12.5 0q22 -12 47.5 -19t53.5 -7q42 0 70 17.5t45 49.5q15 29 24 68.5t13 89.5q-27 -20 -62 -33.5t-73 -13.5q-46 0 -83.5 15t-64 42t-41 65t-14.5 84q0 49 16 93.5t46.5 78.5t74 53.5t98.5 19.5q70 0 117.5 -24t76.5 -66.5t41.5 -101t12.5 -127.5
q0 -104 -22 -186t-64 -138q-35 -47 -85 -72t-113 -25q-51 0 -91 12t-66 31q-11 8 -10 17t10 26zM391 421q-1 103 -26.5 150t-76.5 47q-42 0 -70 -33t-28 -88q0 -54 26.5 -81.5t74.5 -27.5q24 0 51.5 9t48.5 24z" />
    <glyph glyph-name="colon" unicode=":" horiz-adv-x="239" 
d="M34 72q0 35 24 59t61 24q38 0 62 -24t24 -59q0 -34 -24 -58t-62 -24q-37 0 -61 24t-24 58zM34 430q0 35 24 59t61 24q38 0 62 -24t24 -59q0 -34 -24 -58t-62 -24q-37 0 -61 24t-24 58z" />
    <glyph glyph-name="semicolon" unicode=";" horiz-adv-x="239" 
d="M34 430q0 35 24 59t61 24q38 0 62 -24t24 -59q0 -34 -24 -58t-62 -24q-37 0 -61 24t-24 58zM29 -165q-8 8 -9.5 13t5.5 13q34 44 44.5 73.5t10.5 47.5t-7 28.5t-15.5 20.5t-15.5 21t-7 30q0 27 21 49.5t56 22.5q39 0 64 -27t25 -72q0 -62 -33.5 -122.5t-91.5 -114.5
q-14 -13 -29 1z" />
    <glyph glyph-name="less" unicode="&#x3c;" 
d="M461 628q10 5 18.5 0.5t25.5 -33.5l4 -7q17 -31 18 -41t-8 -15l-313 -184l313 -184q9 -5 8 -15t-18 -41l-4 -7q-17 -29 -25.5 -33.5t-18.5 0.5l-384 227q-8 5 -12 13.5t-4 34.5v10q0 24 4 33.5t12 14.5z" />
    <glyph glyph-name="equal" unicode="=" 
d="M507 524q8 0 11 -8.5t3 -41.5v-14q0 -33 -3 -41.5t-11 -8.5h-425q-8 0 -11 8.5t-3 41.5v14q0 33 3 41.5t11 8.5h425zM507 285q8 0 11 -8.5t3 -41.5v-14q0 -33 -3 -41.5t-11 -8.5h-425q-8 0 -11 8.5t-3 41.5v14q0 33 3 41.5t11 8.5h425z" />
    <glyph glyph-name="greater" unicode="&#x3e;" 
d="M84 595q17 29 25.5 33.5t18.5 -0.5l384 -227q8 -5 12 -14.5t4 -33.5v-10q0 -26 -4 -34.5t-12 -13.5l-384 -227q-10 -5 -18.5 -0.5t-25.5 33.5l-4 7q-17 31 -18 41t8 15l313 184l-313 184q-9 5 -8 15t18 41z" />
    <glyph glyph-name="question" unicode="?" horiz-adv-x="457" 
d="M104 72q0 35 23.5 59t60.5 24q38 0 61.5 -24t23.5 -59q0 -34 -23.5 -58t-60.5 -24t-61 24t-24 58zM42 632q-10 18 -10 26.5t11 16.5q32 23 76 39t97 16q46 0 84.5 -12.5t66 -35.5t43 -57t15.5 -76q0 -41 -13 -71.5t-32 -55t-42 -44t-42.5 -39t-33 -41t-14.5 -48.5
q0 -8 -9 -10.5t-43 -2.5h-19q-32 0 -42 2.5t-10 11.5v4q0 39 11.5 68.5t29 52.5t38 41.5t38 37t29 39t11.5 47.5q0 32 -20.5 52t-62.5 20q-28 0 -55.5 -10.5t-50.5 -25.5q-9 -5 -16.5 -0.5t-20.5 29.5z" />
    <glyph glyph-name="at" unicode="@" horiz-adv-x="832" 
d="M507 524q2 7 17 9.5t28 2.5h18q34 0 42.5 -3.5t6.5 -11.5q-5 -20 -13 -49.5t-18 -74.5l-17 -78q-2 -9 -3 -16.5t-1 -14.5q0 -42 34 -42q17 0 34 12t30.5 34.5t22 54.5t8.5 73q0 98 -64 155.5t-185 57.5q-72 0 -128.5 -24.5t-95 -66t-59 -96t-20.5 -114.5
q0 -68 22.5 -116.5t60.5 -79t89.5 -44.5t108.5 -14q54 0 102.5 8t92.5 21q5 2 9.5 -3.5t9.5 -25.5l4 -17q4 -16 2 -22t-8 -8q-46 -20 -107.5 -30.5t-121.5 -10.5q-85 0 -158.5 26t-124.5 77q-42 42 -66 100t-24 132q0 91 34 166t91 128t131.5 82t156.5 29q81 0 146 -22
t111 -62t70.5 -96.5t24.5 -126.5q0 -46 -14.5 -92.5t-42 -84t-67.5 -61t-91 -23.5q-47 0 -76 15.5t-41 38.5q-20 -23 -48.5 -38.5t-63.5 -15.5t-60 12t-41.5 32t-24.5 46.5t-8 56.5q0 39 13 80.5t38 75.5t62 56t84 22q31 0 51 -11t31 -28zM483 432q-11 14 -22.5 19t-28.5 5
q-20 0 -38 -11.5t-31.5 -31t-21 -45t-7.5 -53.5q0 -30 12.5 -47.5t35.5 -17.5q14 0 26.5 5t23.5 18q22 26 34 79z" />
    <glyph glyph-name="A" unicode="A" horiz-adv-x="660" 
d="M332 720q21 0 33.5 -0.5t19.5 -2.5t10 -5t5 -8l247 -686q1 -3 1 -5q0 -6 -8 -9q-11 -4 -55 -4h-12q-22 0 -36 1t-22.5 3t-12.5 5t-5 8l-57 166h-230l-55 -166q-3 -9 -16.5 -13t-56.5 -4h-10q-44 0 -54 3q-7 2 -7 8q0 3 1 6l244 687q1 4 3.5 7t9.5 5t19.5 3t34.5 1h9z
M247 293h156l-11 35l-23 73l-18 57l-14 46q-6 21 -11 41l-28 -93q-16 -54 -40 -126z" />
    <glyph glyph-name="B" unicode="B" horiz-adv-x="604" 
d="M218 114h50q36 0 64.5 5.5t49.5 23.5q13 11 20.5 29.5t7.5 42.5q0 46 -23 69q-18 18 -45.5 24.5t-74.5 6.5h-49v-201zM218 425h36q63 0 94 27q27 24 27 67q0 38 -21 59q-14 14 -38 20.5t-62 6.5h-36v-180zM249 720q81 0 136.5 -14.5t90.5 -52.5q45 -47 45 -117
q0 -42 -20.5 -81.5t-76.5 -70.5q61 -22 97 -63t36 -108q0 -84 -50 -137q-38 -41 -96.5 -58.5t-144.5 -17.5h-148q-29 0 -37 2.5t-8 12.5v690q0 10 8 12.5t37 2.5h131z" />
    <glyph glyph-name="C" unicode="C" horiz-adv-x="586" 
d="M527 594q-14 -24 -20 -30.5t-15 -0.5q-35 23 -64 34t-66 11q-84 0 -130.5 -63.5t-46.5 -187.5q0 -116 43.5 -180t134.5 -64q33 0 68 9t67 26q11 6 17 0.5t17 -29.5l11 -24q12 -27 12 -35t-12 -15q-18 -11 -42 -21t-50.5 -17.5t-54.5 -12t-55 -4.5q-73 0 -129.5 25
t-95.5 72t-59.5 114.5t-20.5 151.5t21.5 153.5t62 119t99 77t132.5 27.5q112 0 192 -60q12 -9 12 -17t-15 -36z" />
    <glyph glyph-name="D" unicode="D" horiz-adv-x="671" 
d="M218 116h52q44 0 85 9.5t70 36.5q31 29 46.5 80.5t15.5 118.5q0 61 -12 107t-35 73q-27 32 -66.5 47.5t-99.5 15.5h-56v-488zM268 720q97 0 164.5 -21.5t111.5 -67.5q42 -43 66.5 -111.5t24.5 -156.5q0 -91 -25.5 -163.5t-79.5 -123.5q-46 -44 -109.5 -60t-147.5 -16
h-155q-29 0 -37 2.5t-8 12.5v690q0 10 8 12.5t37 2.5h150z" />
    <glyph glyph-name="E" unicode="E" horiz-adv-x="565" 
d="M493 720q5 0 8.5 -1t5.5 -6.5t2.5 -16t0.5 -29.5v-8q0 -37 -3.5 -46t-13.5 -9h-275v-182h233q5 0 8.5 -1t5.5 -6.5t2.5 -16t0.5 -29.5v-8q0 -37 -3.5 -46t-13.5 -9h-233v-190h279q5 0 8.5 -1t5.5 -6.5t2.5 -16t0.5 -29.5v-8q0 -37 -3.5 -46t-13.5 -9h-379q-29 0 -37 2.5
t-8 12.5v690q0 10 8 12.5t37 2.5h375z" />
    <glyph glyph-name="F" unicode="F" horiz-adv-x="537" 
d="M493 720q5 0 8.5 -1t5.5 -6.5t2.5 -16t0.5 -29.5v-8q0 -37 -3.5 -46t-13.5 -9h-275v-182h233q5 0 8.5 -1t5.5 -6.5t2.5 -16t0.5 -29.5v-8q0 -37 -3.5 -46t-13.5 -9h-233v-293q0 -8 -14 -10.5t-54 -2.5h-11q-42 0 -54 2.5t-12 10.5v692q0 10 8 12.5t37 2.5h375z" />
    <glyph glyph-name="G" unicode="G" horiz-adv-x="666" 
d="M554 404q29 0 37 -2.5t8 -12.5v-330q0 -7 -2 -11.5t-10 -9.5q-19 -10 -46 -19t-58.5 -15.5t-64.5 -10t-64 -3.5q-158 0 -238 97.5t-80 272.5q0 88 23.5 157.5t68.5 117.5q43 46 104 70.5t135 24.5q63 0 116 -17.5t95 -47.5q5 -4 8 -7.5t2.5 -9.5t-5 -15.5t-13.5 -24.5
l-12 -20q-16 -26 -23 -29.5t-14 1.5q-34 23 -67 35.5t-77 12.5q-95 0 -143.5 -63t-48.5 -184q0 -118 44 -184t140 -66q21 0 43.5 3.5t42.5 9.5v164h-111q-5 0 -8.5 1.5t-5.5 7t-3 16.5t-1 30v8q0 20 1 30.5t3 15.5t5.5 6t8.5 1h210z" />
    <glyph glyph-name="H" unicode="H" horiz-adv-x="689" 
d="M150 720q40 0 54 -3t14 -12v-283h253v283q0 9 12 12t54 3h11q40 0 54 -3t14 -12v-690q0 -9 -14 -12t-54 -3h-11q-42 0 -54 3t-12 12v291h-253v-291q0 -9 -14 -12t-54 -3h-11q-42 0 -54 3t-12 12v690q0 9 12 12t54 3h11z" />
    <glyph glyph-name="I" unicode="I" horiz-adv-x="411" 
d="M343 720q7 0 9.5 -8t2.5 -41v-5q0 -33 -2.5 -41t-9.5 -8h-65v-514h65q7 0 9.5 -8t2.5 -41v-5q0 -33 -2.5 -41t-9.5 -8h-275q-7 0 -9.5 8t-2.5 41v5q0 33 2.5 41t9.5 8h65v514h-65q-7 0 -9.5 8t-2.5 41v5q0 33 2.5 41t9.5 8h275z" />
    <glyph glyph-name="J" unicode="J" horiz-adv-x="473" 
d="M334 720q40 0 54 -3.5t14 -11.5v-464q0 -69 -14 -115t-41 -75q-29 -32 -71 -46.5t-97 -14.5q-38 0 -76 7.5t-64 19.5q-9 5 -9 17q0 11 7 34l6 20q8 25 14 34t19 4q21 -7 42.5 -11t41.5 -4q50 0 71 25q17 18 21.5 43.5t4.5 63.5v462q0 8 12 11.5t54 3.5h11z" />
    <glyph glyph-name="K" unicode="K" horiz-adv-x="623" 
d="M150 720q40 0 54 -3.5t14 -11.5v-279l27 29q70 75 117 136t82 115q3 4 6 7t10 4.5t18.5 2t31.5 0.5h12q22 0 35 -1t19 -2.5t7 -5t-1 -7.5q-26 -54 -77.5 -125t-141.5 -165l232 -396q2 -3 2 -6q0 -5 -7 -8q-9 -4 -47 -4h-29q-24 0 -37.5 0.5t-21 2t-10.5 4t-6 7.5
l-172 300l-49 -51v-248q0 -8 -14 -11.5t-54 -3.5h-11q-42 0 -54 3t-12 12v690q0 8 12 11.5t54 3.5h11z" />
    <glyph glyph-name="L" unicode="L" horiz-adv-x="516" 
d="M150 720q40 0 54 -3.5t14 -11.5v-589h256q5 0 8.5 -1t5.5 -6.5t2.5 -16t0.5 -29.5v-8q0 -37 -3.5 -46t-13.5 -9h-356q-29 0 -37 2.5t-8 12.5v690q0 8 12 11.5t54 3.5h11z" />
    <glyph glyph-name="M" unicode="M" horiz-adv-x="835" 
d="M180 720q21 0 33.5 -0.5t20 -2.5t11.5 -5.5t6 -8.5l94 -226q32 -78 51 -129t27 -79q4 15 12 39l18 50l21 58q12 30 24 58l93 229q2 4 4.5 7t9.5 5.5t20 3.5t36 1h8q22 0 35 -0.5t19.5 -2.5t9 -5t2.5 -8l27 -689q0 -5 -1.5 -7.5t-8.5 -4.5t-20 -2.5t-35 -0.5h-8
q-21 0 -34 0.5t-19.5 2t-8.5 4.5t-2 7l-5 248q-1 30 -1.5 61t-0.5 61t0.5 57.5t1.5 49.5l-14 -47l-20 -58q-10 -30 -22 -62l-24 -60l-54 -132q-2 -5 -4.5 -8t-8.5 -5t-17.5 -3t-30.5 -1h-11q-20 0 -31 1t-17.5 3t-9 5t-4.5 8l-55 129l-26 63l-25 62q-11 30 -20 56.5
t-15 46.5q1 -23 2 -52.5t1 -62.5q1 -16 1 -33t-1 -34q0 -34 -1 -65l-7 -228q0 -10 -11.5 -12t-51.5 -2h-6q-23 0 -36 0.5t-19.5 2.5t-7.5 4.5t-1 7.5l29 689q0 5 2 8.5t9 5t19.5 2t35.5 0.5h12z" />
    <glyph glyph-name="N" unicode="N" horiz-adv-x="706" 
d="M135 720q21 0 33.5 -1t20 -3t10.5 -5t6 -7l180 -274l47 -72q19 -30 32 -52t22 -40t17 -38q-2 18 -3 46.5t-2 60.5v65q-1 33 -1 59v246q0 8 11.5 11.5t52.5 3.5h7q39 0 52 -3.5t13 -11.5v-690q0 -5 -1.5 -7.5t-7.5 -4.5t-17.5 -2.5t-31.5 -0.5h-6q-36 0 -49 3t-19 13
l-180 274l-49 76l-34 54q-13 23 -21.5 40.5t-14.5 32.5q2 -18 3.5 -46.5t2.5 -60.5v-66q1 -33 1 -59v-246q0 -9 -12.5 -12t-51.5 -3h-6q-41 0 -53.5 2.5t-12.5 12.5v690q0 5 1.5 8t7 4.5t17 2t31.5 0.5h5z" />
    <glyph glyph-name="O" unicode="O" horiz-adv-x="697" 
d="M356 609q-85 0 -128 -65t-43 -190q0 -130 41 -186.5t115 -56.5q85 0 128 65t43 190q0 130 -41.5 186.5t-114.5 56.5zM359 730q67 0 122.5 -20.5t95.5 -64t62 -112t22 -163.5q0 -86 -20.5 -156.5t-61 -120t-101 -76.5t-140.5 -27q-67 0 -122.5 20.5t-95.5 64t-62 112
t-22 163.5q0 86 20.5 156.5t61 120t101 76.5t140.5 27z" />
    <glyph glyph-name="P" unicode="P" horiz-adv-x="573" 
d="M239 720q86 0 146 -13.5t101 -54.5q54 -54 54 -159q0 -51 -16 -95t-48 -76t-83 -50t-119 -18q-15 0 -30 0.5t-26 1.5v-241q0 -9 -14 -12t-54 -3h-11q-42 0 -54 3t-12 12v690q0 10 8 12.5t37 2.5h121zM218 372q11 -2 24 -2.5t24 -0.5q72 0 102 38q13 16 19.5 38.5
t6.5 47.5q0 46 -23 74q-17 20 -43.5 28.5t-71.5 8.5h-38v-232z" />
    <glyph glyph-name="Q" unicode="Q" horiz-adv-x="697" 
d="M578 -79q-14 -11 -23 -16.5t-15 -6.5q-3 -1 -5 -1q-3 0 -5 1q-5 2 -9 5q-42 39 -89 98q-22 -5 -45 -8t-49 -3q-67 0 -122.5 20.5t-95.5 64t-62 112t-22 163.5q0 86 20.5 156.5t61 120t101 76.5t140.5 27q67 0 122.5 -20.5t95.5 -64t62 -112t22 -163.5q0 -103 -29 -182.5
t-87 -128.5q17 -21 33.5 -38.5t42.5 -40.5q7 -7 2 -16.5t-29 -29.5zM360 254q17 8 27.5 11.5t16 3.5t8.5 -3t5 -7q9 -19 22.5 -44.5t27.5 -46.5q26 28 35.5 80.5t9.5 117.5q0 130 -41.5 186.5t-114.5 56.5q-85 0 -128 -65t-43 -190q0 -130 41 -188q40 -56 128 -56h6
q-16 26 -31 53t-23 48q-3 8 3 15t38 22z" />
    <glyph glyph-name="R" unicode="R" horiz-adv-x="615" 
d="M252 720h11q78 0 132 -13q58 -14 97 -55q24 -25 37 -61t13 -84q0 -71 -32 -121.5t-92 -82.5l23 -42q45 -82 82 -139t71 -102q3 -4 3.5 -8t-3.5 -6q-7 -6 -39 -6h-55q-26 0 -38.5 2t-23.5 13q-19 20 -48 67t-75 133l-33 61h-64v-261q0 -9 -14 -12t-54 -3h-11q-42 0 -54 3
t-12 12v690q0 10 8 12.5t37 2.5h134zM218 390h49q70 0 101 33q28 28 28 82q0 46 -24 70q-16 16 -41.5 22.5t-64.5 6.5h-48v-214z" />
    <glyph glyph-name="S" unicode="S" horiz-adv-x="552" 
d="M465 601q-14 -28 -20.5 -32.5t-15.5 1.5q-33 20 -61 31t-63 11q-43 0 -68.5 -23t-25.5 -58q0 -19 9.5 -34t25 -27t36.5 -22l41 -22l65 -36q32 -18 58 -43t42 -59t16 -81q0 -48 -15.5 -87.5t-46 -68.5t-76 -45t-105.5 -16q-66 0 -122.5 19.5t-92.5 48.5q-10 8 -10 19
t13 36l12 24q13 24 21 31t18 0q36 -26 74.5 -41.5t77.5 -15.5q49 0 78.5 21.5t29.5 63.5q0 23 -10 40t-26 30t-38 24l-43 22q-32 15 -63 33t-56.5 42t-41 56t-15.5 76q0 50 18.5 89.5t50 66.5t73.5 41t89 14q51 0 98 -13.5t83 -39.5q11 -8 10 -19t-14 -37z" />
    <glyph glyph-name="T" unicode="T" horiz-adv-x="542" 
d="M509 720q5 0 8.5 -1t5.5 -6.5t2.5 -16t0.5 -29.5v-8q0 -37 -3.5 -46t-13.5 -9h-166v-589q0 -9 -14 -12t-54 -3h-11q-42 0 -54 3t-12 12v589h-165q-5 0 -8 1.5t-5 7t-3 16.5t-1 30v8q0 20 0.5 30.5t2.5 15.5t5.5 6t8.5 1h476z" />
    <glyph glyph-name="U" unicode="U" horiz-adv-x="692" 
d="M146 720q40 0 54 -3.5t14 -11.5v-433q0 -50 9.5 -80.5t28.5 -49.5q17 -17 40.5 -24t53.5 -7q61 0 96 35q19 20 29 50t10 76v433q0 8 12 11.5t54 3.5h8q40 0 54 -3.5t14 -11.5v-413q0 -84 -16.5 -137.5t-51.5 -90.5q-71 -74 -213 -74q-72 0 -125.5 18.5t-88.5 57.5
q-29 33 -44 80.5t-15 124.5v434q0 8 12 11.5t54 3.5h11z" />
    <glyph glyph-name="V" unicode="V" horiz-adv-x="652" 
d="M102 720q24 0 38 -1t21.5 -3t10.5 -5.5t5 -7.5l87 -295l18 -66l20 -70q9 -35 17 -69t14 -63q5 28 13 63t18 71l18 72q10 35 19 64l86 293q1 5 4 8t9.5 5t19.5 3t36 1h4q44 0 57 -4q11 -3 11 -10q0 -1 -1 -3l-209 -682q-4 -12 -20 -16.5t-61 -4.5h-5q-26 0 -42.5 0.5
t-25.5 3t-13 6t-6 9.5l-220 684q-1 2 -1 4v3q2 4 8 6t18.5 3t34.5 1h17z" />
    <glyph glyph-name="W" unicode="W" horiz-adv-x="964" 
d="M108 720q43 0 56.5 -3.5t15.5 -13.5l73 -293q15 -60 29 -125.5t22 -122.5q3 24 7.5 54.5t10.5 63.5l11 67q6 34 13 64l67 292q1 5 4 8.5t10.5 5.5t21 2.5t35.5 0.5h9q44 0 57.5 -4t15.5 -13l67 -284l15 -69q7 -36 13 -71.5t11 -69t8 -60.5q3 27 8.5 60t12.5 68l14 71
q7 36 15 69l67 286q2 10 14 13.5t56 3.5h6q23 0 36 -1t20 -3.5t8 -5.5q0 -2 0.5 -3.5t-0.5 -3.5l-181 -686q-2 -9 -15.5 -13t-56.5 -4h-13q-46 0 -62 3t-18 14l-55 226q-8 33 -16 69l-14 72q-7 36 -12.5 70.5t-8.5 64.5q-8 -61 -20.5 -133t-27.5 -137l-55 -232
q-2 -9 -15.5 -13t-56.5 -4h-21q-23 0 -36.5 0.5t-21 2.5t-10.5 5.5t-4 8.5l-190 686q-1 3 -1 5v3q2 3 9 5t21 3t38 1h14z" />
    <glyph glyph-name="X" unicode="X" horiz-adv-x="612" 
d="M123 720q38 0 50 -2.5t17 -10.5l67 -113l33 -59q15 -28 27 -55l29 57l31 59l60 111q2 4 5 6.5t9.5 4t18 2t32.5 0.5h42q35 0 42 -4t2 -12l-128 -210l-40 -64l-38 -60q17 -22 32 -46l33 -55l150 -254q2 -3 2 -5q0 -4 -6 -6q-9 -4 -48 -4h-41q-38 0 -50 2.5t-17 10.5
l-74 125l-35 62l-32 59l-28 -55l-34 -61l-70 -130q-2 -4 -5 -6.5t-10 -4t-18.5 -2t-31.5 -0.5h-42q-17 0 -27 1t-14.5 3t-4.5 5t2 7l149 243l36 60l33 51l-33 52l-36 60l-132 223q-5 8 4.5 11.5t47.5 3.5h41z" />
    <glyph glyph-name="Y" unicode="Y" horiz-adv-x="591" 
d="M98 720q21 0 34 -1t21.5 -2.5t12.5 -5t6 -7.5l72 -150q18 -38 35 -78t26 -68l25 67q16 40 34 79l70 151q2 4 4.5 7t9.5 4.5t19 2.5t33 1h22q21 0 33 -1t18 -3q7 -1 7 -7q0 -2 -1 -5l-212 -424v-265q0 -9 -14 -12t-54 -3h-11q-42 0 -54 3t-12 12v265l-210 423q-2 3 -2 6
q0 5 8 7q7 2 20.5 3t36.5 1h23z" />
    <glyph glyph-name="Z" unicode="Z" horiz-adv-x="575" 
d="M478 720q29 0 37 -2.5t8 -12.5v-52q0 -17 -4 -33t-17 -36l-291 -468h306q5 0 8.5 -1t5.5 -6t2.5 -15.5t0.5 -30.5v-8q0 -19 -1 -30t-3 -16.5t-5 -7t-8 -1.5h-431q-29 0 -37 2.5t-8 12.5v52q0 17 4.5 33t17.5 36l291 468h-281q-5 0 -8 1.5t-5 7t-3 16.5t-1 30v8
q0 20 0.5 30.5t2.5 15.5t5.5 6t8.5 1h405z" />
    <glyph glyph-name="bracketleft" unicode="[" horiz-adv-x="339" 
d="M314 753q8 0 9.5 -7.5t1.5 -36.5v-9q0 -29 -1.5 -36.5t-9.5 -7.5h-114v-691h114q8 0 9.5 -7.5t1.5 -36.5v-9q0 -29 -1.5 -36.5t-9.5 -7.5h-234q-8 0 -8 7v871q0 7 8 7h234z" />
    <glyph glyph-name="backslash" unicode="\" horiz-adv-x="369" 
d="M83 720q38 0 50.5 -3t15.5 -14l208 -686q1 -5 0.5 -8t-6.5 -5t-18 -3t-34 -1h-13q-38 0 -50.5 3t-15.5 14l-208 686q-2 4 -1 7.5t7 5.5t18 3t34 1h13z" />
    <glyph glyph-name="bracketright" unicode="]" horiz-adv-x="339" 
d="M259 753q8 0 8 -7v-871q0 -7 -8 -7h-234q-8 0 -9.5 7.5t-1.5 36.5v9q0 29 1.5 36.5t9.5 7.5h114v691h-114q-8 0 -9.5 7.5t-1.5 36.5v9q0 29 1.5 36.5t9.5 7.5h234z" />
    <glyph glyph-name="asciicircum" unicode="^" 
d="M307 720q26 0 35 -3.5t14 -12.5l176 -366q3 -6 3.5 -10.5t-4.5 -7t-17 -4t-33 -1.5h-11q-29 0 -41 2t-16 10l-118 258l-118 -258q-4 -8 -16 -10t-41 -2h-11q-21 0 -33 1.5t-17 4t-4.5 7t3.5 10.5l176 366q5 9 14 12.5t35 3.5h24z" />
    <glyph glyph-name="underscore" unicode="_" horiz-adv-x="500" 
d="M497 -112q8 0 11 -8.5t3 -41.5v-6q0 -33 -3 -41.5t-11 -8.5h-494q-8 0 -11 8.5t-3 41.5v6q0 33 3 41.5t11 8.5h494z" />
    <glyph glyph-name="grave" unicode="`" horiz-adv-x="350" 
d="M129 786q28 0 37 -2.5t13 -9.5l106 -163q5 -9 -1 -12t-23 -3h-38q-19 0 -27.5 2.5t-13.5 8.5l-130 163q-6 8 0 12t29 4h48z" />
    <glyph glyph-name="a" unicode="a" horiz-adv-x="577" 
d="M388 515q0 3 2 5.5t8 4t17.5 2.5t31.5 1h6q38 0 48 -3t10 -11q0 -12 -0.5 -36t-0.5 -53.5t-0.5 -62.5t-0.5 -64v-61q0 -59 2 -118.5t5 -100.5q0 -5 -0.5 -8.5t-6 -5.5t-17.5 -3t-33 -1h-5q-37 0 -47.5 2.5t-13.5 10.5q-2 5 -3.5 15t-3.5 19q-23 -26 -61 -41.5t-76 -15.5
q-49 0 -88.5 18t-67 52.5t-42 83t-14.5 110.5q0 68 17.5 121t48 89t70.5 55t85 19q41 0 75 -17t51 -42zM372 371q-14 22 -37.5 35t-49.5 13q-55 0 -81 -41.5t-26 -119.5q0 -33 5 -61.5t17 -48.5t32.5 -31.5t50.5 -11.5q24 0 44 8t31 22q8 11 11 24.5t3 31.5v180z" />
    <glyph glyph-name="b" unicode="b" horiz-adv-x="578" 
d="M138 760q22 0 35 -1t19.5 -2.5t8.5 -4.5t2 -7v-255q51 48 131 48q47 0 85.5 -18t65.5 -52.5t41.5 -84t14.5 -111.5q0 -74 -19.5 -128.5t-54.5 -89.5q-33 -33 -85 -48.5t-115 -15.5q-26 0 -53 3t-52.5 8.5t-47 13t-36.5 16.5q-8 5 -10 10.5t-2 15.5v688q0 4 1.5 7t8 4.5
t20 2.5t37.5 1h5zM203 115q14 -5 32 -7.5t35 -2.5q31 0 56 9t40 28q34 42 34 130q0 45 -9 74t-24 46q-14 16 -33 22.5t-40 6.5t-43.5 -6.5t-33.5 -18.5q-8 -9 -11 -21.5t-3 -32.5v-227z" />
    <glyph glyph-name="c" unicode="c" horiz-adv-x="499" 
d="M450 410q-14 -27 -21.5 -31t-14.5 1q-27 19 -53 29t-58 10q-26 0 -48.5 -8.5t-39.5 -27t-27 -47.5t-10 -69q0 -76 32.5 -117t98.5 -41q31 0 56.5 7.5t54.5 21.5q9 5 14 -1.5t18 -35.5l6 -14q11 -26 11.5 -34t-6.5 -13q-31 -21 -75.5 -35.5t-96.5 -14.5q-110 0 -175 60
q-38 35 -58.5 88.5t-20.5 121.5q0 65 19 117.5t54 89.5q33 34 79.5 52.5t108.5 18.5q48 0 92 -15.5t78 -43.5q7 -6 7 -13q0 -9 -15 -37z" />
    <glyph glyph-name="d" unicode="d" horiz-adv-x="591" 
d="M448 760q22 0 35 -1t19.5 -2.5t8.5 -4.5t2 -7v-611q0 -17 7 -22.5t22 -5.5q9 0 11 -7t2 -34v-11q0 -26 -2 -35t-7 -11q-14 -5 -33 -8.5t-39 -3.5q-33 0 -55 13.5t-32 36.5q-26 -27 -61.5 -41.5t-77.5 -14.5q-49 0 -88 18.5t-66.5 53t-42 83.5t-14.5 111q0 66 16 118.5
t45 89t69.5 55.5t89.5 19q68 0 119 -45v252q0 4 1.5 7t8 4.5t20 2.5t37.5 1h5zM376 374q-38 46 -90 46q-55 0 -81.5 -42t-26.5 -122q0 -45 9.5 -74t24.5 -46q14 -16 34 -22.5t41 -6.5t42.5 7t32.5 19q8 9 11 21.5t3 32.5v187z" />
    <glyph glyph-name="e" unicode="e" horiz-adv-x="557" 
d="M180 217q8 -54 41.5 -82t90.5 -28q37 0 72 9t69 23q8 4 13.5 -1t13.5 -28l9 -25q9 -25 9 -33.5t-10 -13.5q-38 -21 -89.5 -34.5t-104.5 -13.5q-59 0 -106.5 18t-81 52.5t-51.5 84t-18 113.5q0 61 17 112.5t48.5 89t77.5 58t103 20.5t100 -20t72.5 -56t44 -85.5
t14.5 -107.5q0 -29 -2 -40.5t-8 -11.5h-324zM377 315q-5 47 -28 77.5t-65 30.5t-68 -28.5t-36 -79.5h197z" />
    <glyph glyph-name="f" unicode="f" horiz-adv-x="381" 
d="M99 528v24q0 55 14.5 96.5t41.5 69.5q51 52 144 52q58 0 110 -19q8 -2 8 -12t-6 -34l-4 -17q-6 -26 -10.5 -33.5t-10.5 -5.5q-17 4 -32.5 6t-31.5 2q-48 0 -67 -26t-19 -83v-20h115q7 0 10 -7t3 -43v-7q0 -36 -3 -43t-10 -7h-115v-406q0 -4 -2 -7t-8.5 -4.5t-19.5 -2.5
t-35 -1h-5q-24 0 -37.5 1t-20 2.5t-8 4.5t-1.5 7v406h-70q-7 0 -10 7t-3 43v7q0 36 3 43t10 7h70z" />
    <glyph glyph-name="g" unicode="g" horiz-adv-x="580" 
d="M454 528q29 0 38.5 -2t12.5 -10q3 -10 5 -32t3 -51t1 -62v-66v-262q0 -143 -61 -210q-60 -66 -183 -66q-45 0 -91 12t-76 29q-9 5 -9 14t12 37l7 17q11 25 17 32.5t14 3.5q26 -12 57.5 -20.5t60.5 -8.5q55 0 85 32.5t30 112.5v15q-53 -45 -128 -45q-99 0 -155.5 69
t-56.5 193q0 66 16.5 118t46 87.5t69.5 54t87 18.5q41 0 74.5 -17.5t58.5 -44.5q1 8 3.5 22.5t4.5 18.5q1 3 2.5 5t6 3.5t13 2t25.5 0.5h10zM377 359q-17 31 -41 46t-50 15q-51 0 -79.5 -39.5t-28.5 -120.5q0 -146 110 -146q21 0 42.5 7t32.5 19q8 9 11 21.5t3 32.5v165z
" />
    <glyph glyph-name="h" unicode="h" horiz-adv-x="587" 
d="M138 760q22 0 35 -1t19.5 -2.5t8.5 -4.5t2 -7v-260q24 24 58.5 38.5t76.5 14.5q46 0 81 -14t58 -40q25 -28 36 -66t11 -95v-308q0 -4 -2 -7t-8.5 -4.5t-19.5 -2.5t-35 -1h-5q-24 0 -37.5 1t-20 2.5t-8 4.5t-1.5 7v270q0 26 -1 43.5t-3 29.5t-6 20t-10 15q-10 11 -27.5 17
t-39.5 6q-17 0 -35 -4t-32 -12q-16 -10 -21 -22.5t-7 -30.5q-2 -17 -2 -43v-55v-234q0 -4 -2 -7t-8.5 -4.5t-19.5 -2.5t-35 -1h-5q-24 0 -37.5 1t-20 2.5t-8 4.5t-1.5 7v730q0 4 1.5 7t8 4.5t20 2.5t37.5 1h5z" />
    <glyph glyph-name="i" unicode="i" horiz-adv-x="277" 
d="M52 690q0 33 24 57.5t60 24.5t60 -24.5t24 -57.5t-24 -57.5t-60 -24.5t-60 24.5t-24 57.5zM142 528q22 0 35 -1t19.5 -2.5t8.5 -4.5t2 -7v-498q0 -4 -2 -7t-8.5 -4.5t-19.5 -2.5t-35 -1h-5q-24 0 -37.5 1t-20 2.5t-8 4.5t-1.5 7v498q0 4 1.5 7t8 4.5t20 2.5t37.5 1h5z
" />
    <glyph glyph-name="j" unicode="j" horiz-adv-x="291" 
d="M156 528q22 0 35 -1t19.5 -2.5t8.5 -4.5t2 -7v-508q0 -66 -14 -111t-39 -73.5t-60.5 -41t-78.5 -12.5q-29 0 -57 5.5t-42 13.5q-10 4 -10 13t7 37l4 17q6 24 10 30.5t17 3.5q14 -3 28.5 -4.5t25.5 -1.5q41 0 56.5 25t15.5 79v528q0 4 1.5 7t8 4.5t20 2.5t37.5 1h5z
M66 690q0 33 24 57.5t60 24.5t60 -24.5t24 -57.5t-24 -57.5t-60 -24.5t-60 24.5t-24 57.5z" />
    <glyph glyph-name="k" unicode="k" horiz-adv-x="530" 
d="M138 760q22 0 35 -1t19.5 -2.5t8.5 -4.5t2 -7v-412q22 22 43 46l42 48q21 24 38 47l33 41q3 4 6.5 6.5t10 4t18 2t31.5 0.5h16q38 0 48 -4t6 -13q-11 -24 -29 -51.5t-40.5 -56t-48.5 -57.5t-54 -54l200 -271q2 -3 2 -5q0 -5 -7 -10q-11 -6 -57 -6h-13q-25 0 -39.5 0.5
t-23 2t-12.5 4.5t-7 8l-163 224v-224q0 -4 -2 -7t-8.5 -4.5t-19.5 -2.5t-35 -1h-5q-24 0 -37.5 1t-20 2.5t-8 4.5t-1.5 7v730q0 4 1.5 7t8 4.5t20 2.5t37.5 1h5z" />
    <glyph glyph-name="l" unicode="l" horiz-adv-x="298" 
d="M130 760q21 0 34 -0.5t19.5 -2t9 -4t3.5 -6.5q2 -11 4 -39t3 -67t1.5 -86.5t0.5 -98.5v-318q0 -17 7 -25.5t26 -8.5h12q7 0 8.5 -8t1.5 -36v-9q0 -27 -1.5 -34t-7.5 -10q-11 -5 -29 -8.5t-38 -3.5q-54 0 -84 30q-18 18 -25 44t-7 61v347q0 36 -1 77l-2 80
q-1 38 -2.5 68.5t-2.5 44.5q0 4 1 6.5t7 4t19.5 2t37.5 0.5h5z" />
    <glyph glyph-name="m" unicode="m" horiz-adv-x="890" 
d="M126 528q37 0 48 -2.5t14 -10.5q2 -7 4 -19.5t4 -23.5q25 29 61.5 47.5t79.5 18.5q47 0 88 -20t62 -59q30 38 71 58.5t88 20.5q44 0 77.5 -14t56.5 -40q25 -28 36 -66t11 -95v-308q0 -4 -2 -7t-8.5 -4.5t-19.5 -2.5t-35 -1h-5q-24 0 -37.5 1t-20 2.5t-8 4.5t-1.5 7v270
q0 26 -1 43.5t-3 29.5t-6 20t-10 15q-20 23 -63 23q-14 0 -30.5 -3.5t-30.5 -11.5q-16 -10 -21 -22.5t-7 -30.5q-2 -17 -2 -43v-55v-235q0 -4 -2 -7t-8.5 -4.5t-19.5 -2.5t-35 -1h-5q-24 0 -37.5 1t-20 2.5t-8 4.5t-1.5 7v270q0 26 -1 43.5t-3 29.5t-6 20t-10 15
q-20 23 -63 23q-14 0 -30.5 -3.5t-30.5 -11.5q-16 -10 -21 -22.5t-7 -30.5q-2 -17 -2 -43v-55v-235q0 -4 -2 -7t-8.5 -4.5t-19.5 -2.5t-35 -1h-5q-24 0 -37.5 1t-20 2.5t-8 4.5t-1.5 7v276q0 59 -2 118.5t-5 100.5q0 5 1 8.5t7 5.5t18.5 3t33.5 1h5z" />
    <glyph glyph-name="n" unicode="n" horiz-adv-x="589" 
d="M126 528q37 0 48 -2.5t14 -10.5q2 -7 3.5 -18t3.5 -22q24 28 61.5 45.5t83.5 17.5t81 -14t58 -40q25 -28 36 -66t11 -95v-308q0 -4 -2 -7t-8.5 -4.5t-19.5 -2.5t-35 -1h-5q-24 0 -37.5 1t-20 2.5t-8 4.5t-1.5 7v270q0 26 -1 43.5t-3 29.5t-6 20t-10 15q-10 11 -27.5 17
t-39.5 6q-17 0 -35 -4t-32 -12q-16 -10 -21 -22.5t-7 -30.5q-2 -17 -2 -43v-55v-234q0 -4 -2 -7t-8.5 -4.5t-19.5 -2.5t-35 -1h-5q-24 0 -37.5 1t-20 2.5t-8 4.5t-1.5 7v276q0 59 -2 118.5t-5 100.5q0 5 1 8.5t7 5.5t18.5 3t33.5 1h5z" />
    <glyph glyph-name="o" unicode="o" horiz-adv-x="571" 
d="M294 538q112 0 176 -66.5t64 -197.5q0 -137 -65.5 -210.5t-191.5 -73.5q-112 0 -176 66.5t-64 197.5q0 137 65.5 210.5t191.5 73.5zM291 420q-60 0 -86.5 -42.5t-26.5 -117.5q0 -73 24.5 -112.5t77.5 -39.5q60 0 86.5 42.5t26.5 117.5q0 73 -24.5 112.5t-77.5 39.5z" />
    <glyph glyph-name="p" unicode="p" horiz-adv-x="581" 
d="M126 528q37 0 48 -2.5t14 -10.5q2 -7 3.5 -18t3.5 -22q25 29 61.5 46t80.5 17q47 0 85 -18.5t65 -53t42 -84t15 -110.5q0 -66 -16 -118.5t-45.5 -89t-70 -55.5t-89.5 -19q-34 0 -64.5 10t-53.5 29v-237q0 -4 -2 -7t-8.5 -4.5t-19.5 -2.5t-35 -1h-5q-24 0 -37.5 1t-20 2.5
t-8 4.5t-1.5 7v499q0 59 -2 118.5t-5 100.5q0 5 1 8.5t7 5.5t18.5 3t33.5 1h5zM205 145q18 -19 41.5 -28.5t47.5 -9.5q55 0 82 42.5t27 122.5q0 45 -9 74t-24 46q-14 16 -34 22.5t-41 6.5t-43 -7t-33 -19q-8 -9 -11 -21.5t-3 -32.5v-196z" />
    <glyph glyph-name="q" unicode="q" horiz-adv-x="577" 
d="M510 69q0 -82 5.5 -156t13.5 -121q0 -2 0.5 -4t-0.5 -3q-1 -3 -7 -4.5t-19 -2.5t-36 -1h-8q-22 0 -34.5 0.5t-19.5 2t-9.5 4.5t-3.5 8q-6 26 -12.5 91.5t-6.5 154.5q-51 -48 -125 -48q-49 0 -88 18.5t-66.5 53t-42 83.5t-14.5 111q0 64 18.5 116t54.5 89t87.5 57
t117.5 20q25 0 51 -4t50 -10.5t45 -15t36 -17.5q8 -5 10.5 -10t2.5 -15v-397zM373 414q-30 9 -64 9t-59 -13.5t-41 -37t-23.5 -53.5t-7.5 -63q0 -45 9.5 -74t24.5 -46q14 -16 33 -22.5t40 -6.5t42 6.5t32 18.5q8 9 11 21.5t3 32.5v228z" />
    <glyph glyph-name="r" unicode="r" horiz-adv-x="395" 
d="M127 528q37 0 48 -2.5t13 -10.5q1 -3 3 -14t3 -26l4 -31q1 -17 2 -32q24 62 57 94t81 32q17 0 26 -4q3 -1 4.5 -2.5t2.5 -6.5t1.5 -14.5t0.5 -26.5v-14q0 -19 -0.5 -30t-2 -16t-4.5 -6.5t-7 -1.5q-42 -4 -69.5 -21.5t-47.5 -46.5q-19 -29 -28 -73.5t-9 -115.5v-144
q0 -4 -2 -7t-8.5 -4.5t-19.5 -2.5t-35 -1h-5q-24 0 -37.5 1t-20 2.5t-8 4.5t-1.5 7v276q0 59 -2 118.5t-5 100.5q0 5 1 8.5t7 5.5t18.5 3t33.5 1h6z" />
    <glyph glyph-name="s" unicode="s" horiz-adv-x="478" 
d="M59 113q13 23 21 30t16 1q29 -20 62.5 -31.5t65.5 -11.5q40 0 62 13.5t22 33.5q0 19 -19 30t-47 20l-62 18q-33 10 -61.5 28t-47.5 47.5t-19 77.5q0 39 16 70.5t43.5 53.5t65.5 33.5t82 11.5q50 0 91.5 -13t73.5 -37q8 -5 5.5 -14t-17.5 -35l-9 -14q-14 -23 -21 -28.5
t-15 -0.5q-24 15 -48.5 23.5t-53.5 8.5q-45 0 -65 -17q-14 -12 -14 -29q0 -19 19 -29.5t47 -19.5l62 -19q33 -11 61.5 -28.5t47.5 -46t19 -73.5q0 -35 -13.5 -66.5t-37.5 -54.5q-57 -55 -165 -55q-58 0 -106.5 17t-79.5 43q-5 4 -5 11q0 9 14 34z" />
    <glyph glyph-name="t" unicode="t" horiz-adv-x="405" 
d="M168 672q22 0 35 -1t19.5 -2.5t8.5 -4.5t2 -7v-129h119q7 0 10 -7t3 -43v-7q0 -36 -3 -43t-10 -7h-119v-247q0 -22 4 -35t13 -21q16 -14 44 -14q12 0 25 2.5t27 7.5q8 2 13 -5t13 -35l3 -10q8 -26 8 -35t-10 -14q-24 -12 -55 -18.5t-60 -6.5q-42 0 -71.5 10.5t-49.5 30.5
q-21 21 -31 53.5t-10 81.5v255h-69q-7 0 -10 7t-3 43v7q0 36 3 43t10 7h69v129q0 4 1.5 7t8 4.5t20 2.5t37.5 1h5z" />
    <glyph glyph-name="u" unicode="u" horiz-adv-x="587" 
d="M135 528q22 0 35 -1t19.5 -2.5t8.5 -4.5t2 -7v-270q0 -26 1 -43.5t3 -29.5t6 -20t10 -15q20 -23 66 -23q17 0 34.5 4t31.5 12q16 10 21 22.5t7 30.5q2 17 2 43v55v234q0 4 1.5 7t8 4.5t20 2.5t37.5 1h5q22 0 35 -1t19.5 -2.5t8.5 -4.5t2 -7v-276q0 -59 2 -118.5t5 -100.5
q0 -5 -1 -8.5t-7 -5.5t-18.5 -3t-33.5 -1h-5q-37 0 -48 2.5t-14 10.5q-2 7 -3.5 18t-3.5 22q-24 -29 -61 -46t-83 -17t-80.5 14t-57.5 40q-25 28 -36 66t-11 95v308q0 4 1.5 7t8 4.5t20 2.5t37.5 1h5z" />
    <glyph glyph-name="v" unicode="v" horiz-adv-x="524" 
d="M81 528q40 0 53 -3.5t16 -11.5l68 -208l28 -87q12 -40 22 -79q14 36 30 84.5t31 100.5t28 101.5t21 87.5q1 4 3 7t8 4.5t18.5 2.5t33.5 1h6q21 0 33.5 -1t19.5 -3.5t10 -5.5q1 -1 1 -3q0 -14 -3.5 -32t-7.5 -31t-11 -35.5t-11 -32.5q-20 -69 -45.5 -136.5t-53 -129
t-52.5 -106.5q-3 -6 -15.5 -9t-51.5 -3h-9q-39 0 -51 2.5t-15 10.5l-179 497q-1 3 -1 5q0 5 7 9q7 2 21 3t39 1h9z" />
    <glyph glyph-name="w" unicode="w" horiz-adv-x="791" 
d="M76 528q42 0 54.5 -3.5t14.5 -12.5l48 -187l11 -49q7 -28 12.5 -56.5t9.5 -53.5t6 -39q2 14 8 39l12 54l14 56l13 46l52 190q1 5 4 8t10 5t19.5 2.5t33.5 0.5h9q40 0 51 -3.5t13 -10.5l49 -188l14 -58q7 -29 12 -56l10 -48q5 -21 7 -34q13 41 25 89.5t22.5 98.5t20 100
t16.5 94q1 5 2.5 8t8 5t19 2.5t35.5 0.5h4q37 0 48 -3q10 -3 10 -10q0 -16 -3 -34.5t-10.5 -47t-9.5 -38.5q-14 -63 -32 -128t-39 -130t-45 -123q-2 -5 -5.5 -7.5t-11.5 -4t-21.5 -2t-35.5 -0.5h-8q-25 0 -39.5 0.5t-22.5 2t-10.5 4t-3.5 6.5l-45 164q-14 51 -25 99t-16 92
q-5 -46 -16 -96.5t-25 -95.5l-48 -163q-1 -3 -4 -5.5t-10.5 -4t-21.5 -2.5t-36 -1h-10q-21 0 -34.5 0.5t-21 2t-11 4t-4.5 6.5l-141 496q-1 3 -1 6q0 5 7 9q7 2 21 3t38 1h3z" />
    <glyph glyph-name="x" unicode="x" horiz-adv-x="510" 
d="M86 528q23 0 38 -1t24 -2.5t14 -5t8 -7.5l38 -58q16 -24 28 -44l22 -37q9 17 22 39l25 42l34 58q3 5 6.5 8t11 5t19.5 2.5t33 0.5h10q45 0 55.5 -5t4.5 -14l-88 -133l-37 -56l-33 -47l33 -43l34 -47l113 -166q3 -4 3 -7q0 -5 -8 -7q-12 -3 -59 -3h-16q-21 0 -34.5 0.5
t-21 2.5t-12 5t-7.5 8l-45 68l-31 48q-14 22 -25 41l-25 -44l-27 -46l-40 -67q-3 -5 -6.5 -8t-11 -5t-19.5 -2.5t-33 -0.5h-12q-45 0 -55 5q-7 3 -7 8q0 3 2 6l109 162l32 48l28 41q-16 20 -32 42l-31 46l-102 151q-8 11 2.5 15t51.5 4h17z" />
    <glyph glyph-name="y" unicode="y" horiz-adv-x="532" 
d="M100 528q22 0 35 -1t19.5 -2.5t9 -4.5t4.5 -7l62 -196q16 -51 27 -95t18 -85q8 39 19 84.5t25 93.5l58 198q1 4 4 7t9.5 4.5t18 2.5t31.5 1h13q23 0 36 -1t19 -3q7 -3 7 -9q0 -2 -1 -5l-171 -501q-22 -64 -46 -109.5t-53.5 -75t-67 -43.5t-86.5 -14q-32 0 -62 7t-46 18
q-6 4 -6 11.5t8 35.5l4 14q8 26 13.5 34t16.5 4q12 -4 30 -7t32 -3q20 0 37 5t32 18t28.5 35.5t26.5 57.5l-180 513q-2 4 -1 7.5t7.5 6t19.5 3.5t37 1h13z" />
    <glyph glyph-name="z" unicode="z" horiz-adv-x="480" 
d="M406 528q24 0 30 -3t6 -11v-36q0 -17 -3.5 -27t-11.5 -23l-217 -322h225q7 0 10 -7.5t3 -43.5v-4q0 -36 -3 -43.5t-10 -7.5h-362q-24 0 -30 3t-6 11v36q0 17 3.5 27t11.5 23l219 322h-208q-7 0 -10 7.5t-3 43.5v4q0 36 3 43.5t10 7.5h343z" />
    <glyph glyph-name="braceleft" unicode="{" horiz-adv-x="322" 
d="M297 753q8 0 9.5 -7.5t1.5 -36.5v-12q0 -29 -1.5 -36.5t-9.5 -7.5h-23q-32 0 -43 -15.5t-11 -47.5v-141q0 -53 -16.5 -86t-55.5 -53q39 -20 55.5 -53t16.5 -86v-141q0 -32 11 -47t43 -15h21q8 0 10.5 -7.5t2.5 -36.5v-12q0 -29 -1.5 -36.5t-9.5 -7.5h-37q-48 0 -80 11
t-51.5 33t-28 54t-8.5 74v143q0 39 -16.5 53.5t-42.5 19.5q-8 2 -9.5 9.5t-1.5 34.5v20q0 27 1.5 34.5t9.5 9.5q26 5 42.5 19.5t16.5 53.5v144q0 42 8.5 74t28 54t51.5 33t80 11h37z" />
    <glyph glyph-name="bar" unicode="|" horiz-adv-x="273" 
d="M141 817q21 0 32.5 -1t17.5 -3t7.5 -4.5t1.5 -6.5v-1060q0 -4 -1.5 -6.5t-7.5 -4.5t-17.5 -3t-32.5 -1h-11q-20 0 -31.5 1t-17 2.5t-7 4.5t-1.5 7v1060q0 4 1.5 7t7 4.5t17 2.5t31.5 1h11z" />
    <glyph glyph-name="braceright" unicode="}" horiz-adv-x="322" 
d="M62 753q48 0 80 -11t51.5 -33t28 -54t8.5 -74v-144q0 -39 16.5 -53.5t42.5 -19.5q8 -2 9.5 -9.5t1.5 -34.5v-20q0 -27 -1.5 -34.5t-9.5 -9.5q-26 -5 -42.5 -19.5t-16.5 -53.5v-143q0 -42 -8.5 -74t-28 -54t-51.5 -33t-80 -11h-37q-8 0 -9.5 7.5t-1.5 36.5v12
q0 29 2.5 36.5t10.5 7.5h21q32 0 43 16.5t11 48.5v138q0 53 16.5 86t55.5 53q-39 20 -55.5 53t-16.5 86v138q0 32 -11 49t-43 17h-23q-8 0 -9.5 7.5t-1.5 36.5v12q0 29 1.5 36.5t9.5 7.5h37z" />
    <glyph glyph-name="asciitilde" unicode="~" 
d="M68 303q-23 5 -29.5 9.5t-4.5 14.5q6 29 20 54.5t34 44.5t45 30t54 11q38 0 68 -13q29 -13 55 -28l48 -28q22 -13 44 -13t37.5 16.5t24.5 41.5q2 7 11.5 9t32.5 -3l13 -3q23 -5 29.5 -9.5t4.5 -14.5q-6 -29 -20 -54.5t-34 -44.5t-45 -30t-54 -11q-38 0 -68 13t-55 28
l-47 28q-22 13 -45 13q-22 0 -37.5 -16.5t-24.5 -41.5q-2 -7 -11.5 -9t-32.5 3z" />
    <glyph glyph-name="uni00A0" unicode="&#xa0;" horiz-adv-x="254" 
 />
    <glyph glyph-name="exclamdown" unicode="&#xa1;" horiz-adv-x="299" 
d="M64 456q0 34 24 58t62 24q37 0 61 -24t24 -58q0 -35 -24 -59t-61 -24q-38 0 -62 24t-24 59zM161 291q27 0 36.5 -2t9.5 -10l18 -454q0 -9 -12.5 -13t-55.5 -4h-11q-22 0 -35 1t-20.5 3t-10 5t-2.5 8l16 454q0 8 9.5 10t36.5 2h21z" />
    <glyph glyph-name="cent" unicode="&#xa2;" 
d="M334 646q22 0 34.5 -1t18.5 -2.5t7.5 -4.5t1.5 -7v-99q32 -7 60 -20.5t51 -32.5q8 -7 6.5 -16t-14.5 -34l-10 -19q-14 -27 -21.5 -31t-14.5 1q-27 18 -54 28.5t-61 10.5q-26 0 -48.5 -8.5t-39.5 -27t-27 -47.5t-10 -69q0 -76 32.5 -117t98.5 -41q32 0 58.5 7.5t55.5 21.5
q9 5 14 -1.5t18 -35.5l6 -14q11 -26 11.5 -34t-6.5 -13q-20 -14 -47 -25t-58 -17v-101q0 -4 -1.5 -7t-7.5 -4.5t-18.5 -2.5t-34.5 -1h-3q-23 0 -36 1t-19 2.5t-7.5 4.5t-1.5 7v98q-70 12 -116 55q-38 35 -58.5 88.5t-20.5 121.5q0 65 19 117.5t54 89.5q48 49 122 64v100
q0 4 1.5 7t7.5 4.5t19 2.5t36 1h3z" />
    <glyph glyph-name="sterling" unicode="&#xa3;" 
d="M162 428v54q0 56 13 101.5t40.5 78t69 50.5t98.5 18q38 0 74 -9t62 -23q9 -5 8 -14t-10 -32l-7 -18q-11 -29 -16.5 -35t-13.5 -2q-20 9 -41 14.5t-45 5.5q-50 0 -70 -34t-20 -90v-65h158q7 0 10 -7t3 -43v-7q0 -36 -3 -43t-10 -7h-159v-45q0 -54 -12.5 -97.5t-40.5 -63.5
h267q5 0 8.5 -1t5.5 -6.5t2.5 -16t0.5 -29.5v-7q0 -37 -3.5 -46t-13.5 -9h-419q-10 0 -13.5 9t-3.5 46v4q0 27 3.5 37.5t13.5 15.5q38 23 51 59.5t13 99.5v50h-69q-7 0 -10 7t-3 43v7q0 36 3 43t10 7h69z" />
    <glyph glyph-name="currency" unicode="&#xa4;" 
d="M487 368q0 -91 -40 -146l73 -126q4 -7 -2 -10.5t-32 -3.5h-39q-20 0 -26.5 2t-11.5 10l-41 70q-35 -12 -79 -12q-41 0 -74 12l-41 -70q-5 -8 -11.5 -10t-26.5 -2h-39q-26 0 -32 3.5t-2 10.5l74 127q-34 51 -34 129q0 91 40 146l-73 126q-4 7 2 10.5t32 3.5h39
q20 0 26.5 -2t11.5 -10l41 -70q34 12 79 12q41 0 74 -12l41 70q5 8 11.5 10t26.5 2h39q26 0 32 -3.5t2 -10.5l-74 -127q34 -51 34 -129zM366 363q0 47 -17 72.5t-50 25.5q-38 0 -56.5 -27t-18.5 -77q0 -47 17 -72.5t50 -25.5q38 0 56.5 27t18.5 77z" />
    <glyph glyph-name="yen" unicode="&#xa5;" 
d="M107 720q21 0 34 -1t21.5 -2.5t12.5 -5t6 -7.5l72 -150q18 -38 35 -78t26 -68l26 67q16 40 33 79l70 151q2 4 4.5 7t9.5 4.5t19 2.5t33 1h22q21 0 33 -1t18 -2.5t7 -5t-1 -7.5l-188 -375h102q8 0 11 -6t3 -39v-1q0 -33 -3 -39t-11 -6h-126v-45h126q8 0 11 -6t3 -39v-1
q0 -33 -3 -39t-11 -6h-126v-87q0 -9 -14 -12t-54 -3h-11q-42 0 -54 3t-12 12v87h-126q-8 0 -11 6t-3 39v1q0 33 3 39t11 6h126v45h-126q-8 0 -11 6t-3 39v1q0 33 3 39t11 6h101l-185 374q-2 4 -1.5 7.5t7.5 5.5t20.5 3t36.5 1h23z" />
    <glyph glyph-name="brokenbar" unicode="&#xa6;" horiz-adv-x="273" 
d="M141 179q21 0 32.5 -1t17.5 -3t7.5 -4.5t1.5 -6.5v-371q0 -4 -1.5 -6.5t-7.5 -4.5t-17.5 -3t-32.5 -1h-11q-20 0 -31.5 1t-17 2.5t-7 4.5t-1.5 7v371q0 4 1.5 7t7 4.5t17 2.5t31.5 1h11zM141 766q21 0 32.5 -1t17.5 -3t7.5 -4.5t1.5 -6.5v-371q0 -4 -1.5 -6.5t-7.5 -4.5
t-17.5 -3t-32.5 -1h-11q-20 0 -31.5 1t-17 2.5t-7 4.5t-1.5 7v371q0 4 1.5 7t7 4.5t17 2.5t31.5 1h11z" />
    <glyph glyph-name="section" unicode="&#xa7;" horiz-adv-x="541" 
d="M432 617q-14 -23 -21 -28.5t-15 -0.5q-24 15 -48.5 23.5t-53.5 8.5q-45 0 -65 -17q-14 -12 -14 -29q0 -19 20.5 -29.5t50.5 -19.5l67 -19q36 -10 66.5 -28t51 -46.5t20.5 -73.5t-19.5 -77.5t-49.5 -52.5q17 -17 27.5 -41.5t10.5 -57.5q0 -39 -16 -70.5t-43.5 -53.5
t-65.5 -33.5t-82 -11.5q-50 0 -91.5 13t-73.5 37q-8 5 -5.5 14t17.5 35l9 14q14 23 21 28.5t15 0.5q24 -15 48.5 -23.5t53.5 -8.5q45 0 65 17q14 12 14 29q0 19 -20 30q-22 10 -52 19l-66 19q-36 10 -66.5 28t-51 46.5t-20.5 73.5t19 77.5t49 52.5q-17 17 -27 41t-10 58
q0 39 16 70.5t43.5 53.5t65.5 33.5t82 11.5q50 0 91.5 -13t73.5 -37q8 -5 5.5 -14t-17.5 -35zM322 282q16 9 25.5 23t9.5 30t-12 26t-31.5 18t-44.5 14.5t-51 14.5q-15 -10 -24.5 -23.5t-9.5 -29.5t12 -26.5t31.5 -18t44 -14t50.5 -14.5z" />
    <glyph glyph-name="dieresis" unicode="&#xa8;" horiz-adv-x="350" 
d="M-7 679q0 29 20.5 50t52.5 21t52.5 -21t20.5 -50t-20.5 -49t-52.5 -20t-52.5 20t-20.5 49zM211 679q0 29 19.5 50t51.5 21q33 0 54 -21t21 -50t-21 -49t-54 -20q-32 0 -51.5 20t-19.5 49z" />
    <glyph glyph-name="copyright" unicode="&#xa9;" horiz-adv-x="800" 
d="M510 492q-8 -14 -11.5 -17.5t-8.5 0.5q-20 13 -36.5 18t-36.5 5q-48 0 -73 -35t-25 -105q0 -65 23.5 -100t74.5 -35q19 0 38.5 4t37.5 13q6 3 10 0.5t10 -16.5l5 -12q6 -15 7 -20t-7 -9q-20 -14 -51.5 -23t-61.5 -9q-83 0 -128 54.5t-45 150.5q0 48 12 87t35.5 67
t56.5 43.5t75 15.5q64 0 107 -34q8 -5 7 -11t-9 -21zM400 730q76 0 142.5 -26.5t115.5 -74.5t77.5 -116.5t28.5 -152.5t-28.5 -152.5t-77.5 -116.5t-115.5 -74.5t-142.5 -26.5t-142.5 26.5t-115.5 74.5t-77.5 116.5t-28.5 152.5t28.5 152.5t77.5 116.5t115.5 74.5
t142.5 26.5zM397 650q-56 0 -105.5 -21t-86.5 -59t-58 -91.5t-21 -118.5t21.5 -118.5t58 -91.5t86.5 -59t107 -21q56 0 105.5 21t86 59t58 91.5t21.5 118.5t-21.5 118.5t-58 91.5t-86.5 59t-107 21z" />
    <glyph glyph-name="ordfeminine" unicode="&#xaa;" horiz-adv-x="409" 
d="M272 715q1 5 6.5 6.5t32.5 1.5h14q25 0 31.5 -2t6.5 -7v-24q0 -16 -1 -36v-40v-43v-40q0 -38 1 -78t3 -67q1 -7 -4 -9t-33 -2h-14q-24 0 -31 1.5t-9 6.5q-2 3 -2.5 9.5t-1.5 12.5q-15 -17 -40 -27t-51 -10q-65 0 -102.5 46.5t-37.5 127.5q0 45 11.5 80t31.5 59t46.5 36.5
t56.5 12.5q27 0 49.5 -11t33.5 -28zM261 615q-9 14 -22 22.5t-30 8.5q-35 0 -50.5 -25t-15.5 -76q0 -45 14 -70.5t49 -25.5q24 0 39 15q8 8 12 21.5t4 29.5v100z" />
    <glyph glyph-name="guillemotleft" unicode="&#xab;" horiz-adv-x="542" 
d="M247 511q23 -13 29 -21.5t1 -17.5l-105 -170l105 -170q5 -9 -1 -17.5t-29 -21.5l-16 -9q-23 -13 -32.5 -13t-15.5 9l-128 186q-5 8 -8 15t-3 18v6q0 11 3 18t8 15l128 186q6 9 15.5 9t32.5 -13zM467 511q23 -13 29 -21.5t1 -17.5l-105 -170l105 -170q5 -9 -1 -17.5
t-29 -21.5l-16 -9q-23 -13 -32.5 -13t-15.5 9l-128 186q-5 8 -8 15t-3 18v6q0 11 3 18t8 15l128 186q6 9 15.5 9t32.5 -13z" />
    <glyph glyph-name="logicalnot" unicode="&#xac;" 
d="M511 524q6 0 8 -1.5t2 -7.5v-330q0 -8 -8.5 -11t-41.5 -3h-14q-33 0 -41.5 3t-8.5 11v225h-325q-8 0 -11 8.5t-3 41.5v14q0 33 3 41.5t11 8.5h429z" />
    <glyph glyph-name="uni00AD" unicode="&#xad;" horiz-adv-x="390" 
d="M342 345q8 0 11 -8.5t3 -41.5v-14q0 -33 -3 -41.5t-11 -8.5h-294q-8 0 -11 8.5t-3 41.5v14q0 33 3 41.5t11 8.5h294z" />
    <glyph glyph-name="registered" unicode="&#xae;" horiz-adv-x="800" 
d="M374 563q31 0 59.5 -5t50.5 -18t35 -36.5t13 -60.5q0 -40 -18.5 -69t-52.5 -46l13 -24q25 -47 45.5 -78.5t40.5 -57.5q4 -5 0 -8t-22 -3h-33q-15 0 -22.5 1t-12.5 7q-11 12 -27.5 38t-42.5 76l-19 34h-32v-148q0 -5 -7.5 -6.5t-30.5 -1.5h-8q-23 0 -30 1.5t-7 6.5v390
q0 5 4 6.5t21 1.5h83zM349 379h27q38 0 56 18q16 16 16 44q0 25 -14 39q-15 15 -60 15h-25v-116zM400 730q76 0 142.5 -26.5t115.5 -74.5t77.5 -116.5t28.5 -152.5t-28.5 -152.5t-77.5 -116.5t-115.5 -74.5t-142.5 -26.5t-142.5 26.5t-115.5 74.5t-77.5 116.5t-28.5 152.5
t28.5 152.5t77.5 116.5t115.5 74.5t142.5 26.5zM399 650q-56 0 -105.5 -21t-86.5 -59t-58 -91.5t-21 -118.5t21.5 -118.5t58 -91.5t86.5 -59t107 -21q56 0 105.5 21t86 59t58 91.5t21.5 118.5t-21.5 118.5t-58 91.5t-86.5 59t-107 21z" />
    <glyph glyph-name="macron" unicode="&#xaf;" horiz-adv-x="350" 
d="M310 735q8 0 10.5 -9t2.5 -32v-14q0 -23 -2.5 -32t-10.5 -9h-270q-8 0 -10.5 9t-2.5 32v14q0 23 2.5 32t10.5 9h270z" />
    <glyph glyph-name="degree" unicode="&#xb0;" horiz-adv-x="353" 
d="M177 660q-30 0 -48 -20t-18 -53q0 -32 16.5 -51t46.5 -19t48.5 19t18.5 54q0 32 -17 51t-47 19zM32 585q0 66 41 105.5t107 39.5q62 0 101.5 -35t39.5 -104q0 -66 -41 -105t-107 -39q-62 0 -101.5 35t-39.5 103z" />
    <glyph glyph-name="plusminus" unicode="&#xb1;" 
d="M237 515v175q0 8 8.5 11t41.5 3h14q33 0 41.5 -3t8.5 -11v-175h176q8 0 11 -8.5t3 -41.5v-14q0 -33 -3 -41.5t-11 -8.5h-176v-176q0 -8 -8.5 -11t-41.5 -3h-14q-33 0 -41.5 3t-8.5 11v176h-175q-8 0 -11 8.5t-3 41.5v14q0 33 3 41.5t11 8.5h175zM527 114q8 0 11 -8.5
t3 -41.5v-14q0 -33 -3 -41.5t-11 -8.5h-465q-8 0 -11 8.5t-3 41.5v14q0 33 3 41.5t11 8.5h465z" />
    <glyph glyph-name="uni00B2" unicode="&#xb2;" horiz-adv-x="440" 
d="M88 415q0 16 3 24.5t14 17.5q75 60 107 106.5t32 82.5q0 37 -41 37q-17 0 -34.5 -8t-31.5 -17q-6 -4 -13.5 1t-23.5 32q-14 24 -15.5 33t6.5 14q25 17 59 29.5t68 12.5q29 0 54.5 -8t44.5 -24t30 -39.5t11 -54.5q0 -49 -28.5 -94t-85.5 -90h103q8 0 11.5 -9t3.5 -40v-4
q0 -31 -3.5 -40t-11.5 -9h-244q-8 0 -11.5 6.5t-3.5 35.5v5z" />
    <glyph glyph-name="uni00B3" unicode="&#xb3;" horiz-adv-x="440" 
d="M182 621q29 0 45 9t16 26q0 31 -45 31q-18 0 -36.5 -7t-35.5 -18q-6 -4 -13.5 0.5t-23.5 31.5q-14 24 -15 32.5t7 13.5q25 18 60.5 29t72.5 11q65 0 104.5 -30.5t39.5 -85.5q0 -28 -15.5 -49t-37.5 -31q29 -8 48 -32.5t19 -59.5q0 -32 -13.5 -56.5t-36 -41t-53.5 -24.5
t-65 -8q-28 0 -60.5 6t-57.5 17q-8 4 -8.5 12.5t8.5 33.5q11 28 17 35.5t14 4.5q17 -6 37.5 -10t45.5 -4q26 0 41 10.5t15 27.5q0 18 -16 27t-53 9h-17q-8 0 -11.5 6.5t-3.5 37.5v4q0 29 3.5 35.5t11.5 6.5h12z" />
    <glyph glyph-name="acute" unicode="&#xb4;" horiz-adv-x="350" 
d="M269 786q23 0 29 -4t0 -12l-130 -163q-5 -6 -13.5 -8.5t-27.5 -2.5h-38q-17 0 -23 3t-1 12l106 163q4 7 13 9.5t37 2.5h48z" />
    <glyph glyph-name="mu" unicode="&#xb5;" horiz-adv-x="596" 
d="M136 528q22 0 35 -1t19.5 -2.5t8.5 -4.5t2 -7v-270q0 -26 1 -43.5t3 -29.5t6 -20t10 -15q20 -23 66 -23q17 0 34.5 4t31.5 12q16 10 21 22.5t7 30.5q2 17 2 43v55v234q0 4 1.5 7t8 4.5t20 2.5t37.5 1h5q22 0 35 -1t19.5 -2.5t8.5 -4.5t2 -7v-379q0 -17 7 -22.5t22 -5.5
q9 0 11 -7t2 -34v-11q0 -26 -2 -35t-7 -11q-14 -5 -32 -8.5t-38 -3.5q-37 0 -58.5 16t-31.5 41q-24 -29 -61 -46t-83 -17q-27 0 -47 4q2 -61 7 -113.5t11 -88.5q1 -4 0 -7t-7 -4.5t-19 -2.5t-36 -1h-8q-22 0 -34.5 0.5t-19.5 2t-9.5 4.5t-3.5 8q-6 26 -12.5 91.5t-6.5 154.5
v475q0 4 1.5 7t8 4.5t20 2.5t37.5 1h5z" />
    <glyph glyph-name="mu" unicode="&#x3bc;" horiz-adv-x="596" 
d="M136 528q22 0 35 -1t19.5 -2.5t8.5 -4.5t2 -7v-270q0 -26 1 -43.5t3 -29.5t6 -20t10 -15q20 -23 66 -23q17 0 34.5 4t31.5 12q16 10 21 22.5t7 30.5q2 17 2 43v55v234q0 4 1.5 7t8 4.5t20 2.5t37.5 1h5q22 0 35 -1t19.5 -2.5t8.5 -4.5t2 -7v-379q0 -17 7 -22.5t22 -5.5
q9 0 11 -7t2 -34v-11q0 -26 -2 -35t-7 -11q-14 -5 -32 -8.5t-38 -3.5q-37 0 -58.5 16t-31.5 41q-24 -29 -61 -46t-83 -17q-27 0 -47 4q2 -61 7 -113.5t11 -88.5q1 -4 0 -7t-7 -4.5t-19 -2.5t-36 -1h-8q-22 0 -34.5 0.5t-19.5 2t-9.5 4.5t-3.5 8q-6 26 -12.5 91.5t-6.5 154.5
v475q0 4 1.5 7t8 4.5t20 2.5t37.5 1h5z" />
    <glyph glyph-name="paragraph" unicode="&#xb6;" horiz-adv-x="613" 
d="M584 720q5 0 7 -6t2 -26v-34q0 -20 -2 -25.5t-7 -5.5h-72v-750q0 -10 -38 -10h-33q-39 0 -39 10v750h-54v-750q0 -10 -38 -10h-33q-39 0 -39 10v426q-46 2 -83.5 18t-63.5 43.5t-40.5 64.5t-14.5 80q0 48 15.5 87.5t45.5 68t74.5 44t101.5 15.5h311z" />
    <glyph glyph-name="periodcentered" unicode="&#xb7;" horiz-adv-x="239" 
d="M34 364q0 35 24 59t61 24q38 0 62 -24t24 -59q0 -34 -24 -58t-62 -24q-37 0 -61 24t-24 58z" />
    <glyph glyph-name="cedilla" unicode="&#xb8;" horiz-adv-x="350" 
d="M139 23q27 0 34 -3t6 -12l-4 -45q46 -2 76 -24t30 -70q0 -21 -7.5 -40.5t-23.5 -34.5t-39.5 -24t-56.5 -9q-47 0 -78 13q-6 2 -7 8.5t4 26.5l3 11q5 17 8.5 23t13.5 3q11 -3 23.5 -4.5t22.5 -1.5q20 0 29.5 8t9.5 21q0 14 -10 22t-35 8q-11 0 -27 -1t-33 -3l17 118
q1 6 7 8t30 2h7z" />
    <glyph glyph-name="uni00B9" unicode="&#xb9;" horiz-adv-x="440" 
d="M190 758q11 6 21 9t25 3h44q12 0 16 -2t4 -7v-303h42q8 0 11.5 -7.5t3.5 -38.5v-1q0 -31 -3.5 -38.5t-11.5 -7.5h-216q-8 0 -11.5 7.5t-3.5 38.5v1q0 31 3.5 38.5t11.5 7.5h60v192l-58 -31q-7 -4 -15 1t-23 32t-16.5 34.5t6.5 12.5z" />
    <glyph glyph-name="ordmasculine" unicode="&#xba;" horiz-adv-x="409" 
d="M208 647q-65 0 -65 -101q0 -45 13.5 -70t44.5 -25q65 0 65 101q0 45 -13.5 70t-44.5 25zM210 730q75 0 117 -44t42 -130q0 -91 -43.5 -139.5t-126.5 -48.5q-75 0 -117 44t-42 130q0 91 43.5 139.5t126.5 48.5z" />
    <glyph glyph-name="guillemotright" unicode="&#xbb;" horiz-adv-x="542" 
d="M311 520q23 13 32.5 13t15.5 -9l128 -186q5 -8 8 -15t3 -18v-6q0 -11 -3 -18t-8 -15l-128 -186q-6 -9 -15.5 -9t-32.5 13l-16 9q-23 13 -29 21.5t-1 17.5l105 170l-105 170q-5 9 1 17.5t29 21.5zM91 520q23 13 32.5 13t15.5 -9l128 -186q5 -8 8 -15t3 -18v-6
q0 -11 -3 -18t-8 -15l-128 -186q-6 -9 -15.5 -9t-32.5 13l-16 9q-23 13 -29 21.5t-1 17.5l105 170l-105 170q-5 9 1 17.5t29 21.5z" />
    <glyph glyph-name="onequarter" unicode="&#xbc;" horiz-adv-x="980" 
d="M673 720q39 0 46 -4t3 -12l-315 -687q-2 -5 -5 -8t-10 -5t-18.5 -3t-31.5 -1h-9q-39 0 -46 4t-3 12l315 687q3 5 6 8.5t9.5 5.5t18 2.5t31.5 0.5h9zM189 708q11 6 21 9t25 3h44q12 0 16 -2t4 -7v-303h42q8 0 11.5 -7.5t3.5 -38.5v-1q0 -31 -3.5 -38.5t-11.5 -7.5h-216
q-8 0 -11.5 7.5t-3.5 38.5v1q0 31 3.5 38.5t11.5 7.5h60v192l-58 -31q-7 -4 -15 1t-23 32t-16.5 34.5t6.5 12.5zM748 405q35 0 44.5 -3.5t6.5 -11.5l-86 -211h58v50q0 8 10 11.5t41 3.5h4q31 0 41 -3.5t10 -11.5v-50h22q8 0 11.5 -8.5t3.5 -39.5v-3q0 -31 -3.5 -37t-11.5 -6
h-22v-70q0 -8 -10 -11.5t-41 -3.5h-4q-31 0 -41 3.5t-10 11.5v70h-168q-8 0 -11.5 6t-3.5 37v2q0 14 3.5 26.5t11.5 32.5l82 201q4 9 15.5 12t43.5 3h4z" />
    <glyph glyph-name="onehalf" unicode="&#xbd;" horiz-adv-x="980" 
d="M623 47q0 16 3 24.5t14 17.5q75 60 107 106.5t32 82.5q0 37 -41 37q-17 0 -34.5 -8t-31.5 -17q-6 -4 -13.5 1t-23.5 32q-14 24 -15.5 33t6.5 14q25 17 59 29.5t68 12.5q29 0 54.5 -8t44.5 -24t30 -39.5t11 -54.5q0 -49 -28.5 -94t-85.5 -90h103q8 0 11.5 -9t3.5 -40v-4
q0 -31 -3.5 -40t-11.5 -9h-244q-8 0 -11.5 6.5t-3.5 35.5v5zM673 720q39 0 46 -4t3 -12l-315 -687q-2 -5 -5 -8t-10 -5t-18.5 -3t-31.5 -1h-9q-39 0 -46 4t-3 12l315 687q3 5 6 8.5t9.5 5.5t18 2.5t31.5 0.5h9zM189 708q11 6 21 9t25 3h44q12 0 16 -2t4 -7v-303h42
q8 0 11.5 -7.5t3.5 -38.5v-1q0 -31 -3.5 -38.5t-11.5 -7.5h-216q-8 0 -11.5 7.5t-3.5 38.5v1q0 31 3.5 38.5t11.5 7.5h60v192l-58 -31q-7 -4 -15 1t-23 32t-16.5 34.5t6.5 12.5z" />
    <glyph glyph-name="threequarters" unicode="&#xbe;" horiz-adv-x="980" 
d="M196 571q29 0 45 9t16 26q0 31 -45 31q-18 0 -36.5 -7t-35.5 -18q-6 -4 -13.5 0.5t-23.5 31.5q-14 24 -15 32.5t7 13.5q25 18 60.5 29t72.5 11q65 0 104.5 -30.5t39.5 -85.5q0 -28 -15.5 -49t-37.5 -31q29 -8 48 -32.5t19 -59.5q0 -32 -13.5 -56.5t-36 -41t-53.5 -24.5
t-65 -8q-28 0 -60.5 6t-57.5 17q-8 4 -8.5 12.5t8.5 33.5q11 28 17 35.5t14 4.5q17 -6 37.5 -10t45.5 -4q26 0 41 10.5t15 27.5q0 18 -16 27t-53 9h-17q-8 0 -11.5 6.5t-3.5 37.5v4q0 29 3.5 35.5t11.5 6.5h12zM673 720q39 0 46 -4t3 -12l-315 -687q-2 -5 -5 -8t-10 -5
t-18.5 -3t-31.5 -1h-9q-39 0 -46 4t-3 12l315 687q3 5 6 8.5t9.5 5.5t18 2.5t31.5 0.5h9zM748 405q35 0 44.5 -3.5t6.5 -11.5l-86 -211h58v50q0 8 10 11.5t41 3.5h4q31 0 41 -3.5t10 -11.5v-50h22q8 0 11.5 -8.5t3.5 -39.5v-3q0 -31 -3.5 -37t-11.5 -6h-22v-70
q0 -8 -10 -11.5t-41 -3.5h-4q-31 0 -41 3.5t-10 11.5v70h-168q-8 0 -11.5 6t-3.5 37v2q0 14 3.5 26.5t11.5 32.5l82 201q4 9 15.5 12t43.5 3h4z" />
    <glyph glyph-name="questiondown" unicode="&#xbf;" horiz-adv-x="457" 
d="M353.006 456.004q0 -34.9971 -23.498 -58.9961q-23.499 -23.998 -60.4961 -23.998q-37.998 0 -61.4961 23.998q-23.499 23.999 -23.499 58.9961q0 33.998 23.499 57.9971q23.498 23.998 60.4961 23.998t60.9961 -23.998q23.998 -23.999 23.998 -57.9971z
M415.003 -103.961q9.99902 -17.999 9.99902 -26.499q0 -8.49902 -10.999 -16.499q-31.998 -22.998 -75.9961 -38.9971q-43.9971 -15.999 -96.9932 -15.999q-45.998 0 -84.4951 12.499q-38.498 12.499 -65.9961 35.498q-27.498 22.998 -42.9971 56.9961t-15.499 75.9951
q0 40.998 12.999 71.4961t31.998 54.9961q18.999 24.499 41.9971 43.998q22.999 19.498 42.4971 38.9971q19.499 19.499 32.998 40.998q13.5 21.498 14.5 48.4971q0 7.99902 8.99902 10.499t42.9971 2.5h18.999q31.998 0 41.9971 -2.5q10 -2.5 10 -11.499v-4
q0 -38.998 -11.499 -68.4961q-11.5 -29.498 -28.999 -52.4961q-17.499 -22.999 -37.9971 -41.498q-20.499 -18.499 -37.998 -36.998q-17.499 -18.498 -28.998 -38.9971t-11.499 -47.4971q0 -31.998 20.498 -51.9971q20.499 -19.999 62.4961 -19.999q27.999 0 55.4971 10.5
q27.498 10.499 50.4971 25.498q8.99902 5 16.499 0.5q7.49902 -4.5 20.499 -29.498z" />
    <glyph glyph-name="Agrave" unicode="&#xc0;" horiz-adv-x="660" 
d="M332 720q21 0 33.5 -0.5t19.5 -2.5t10 -5t5 -8l247 -686q1 -3 1 -5q0 -6 -8 -9q-11 -4 -55 -4h-12q-22 0 -36 1t-22.5 3t-12.5 5t-5 8l-57 166h-230l-55 -166q-3 -9 -16.5 -13t-56.5 -4h-10q-44 0 -54 3q-7 2 -7 8q0 3 1 6l244 687q1 4 3.5 7t9.5 5t19.5 3t34.5 1h9z
M247 293h156l-11 35l-23 73l-18 57l-14 46q-6 21 -11 41l-28 -93q-16 -54 -40 -126zM269 978q28 0 37 -2.5t13 -9.5l106 -163q5 -9 -1 -12t-23 -3h-38q-19 0 -27.5 2.5t-13.5 8.5l-130 163q-6 8 0 12t29 4h48z" />
    <glyph glyph-name="Aacute" unicode="&#xc1;" horiz-adv-x="660" 
d="M332 720q21 0 33.5 -0.5t19.5 -2.5t10 -5t5 -8l247 -686q1 -3 1 -5q0 -6 -8 -9q-11 -4 -55 -4h-12q-22 0 -36 1t-22.5 3t-12.5 5t-5 8l-57 166h-230l-55 -166q-3 -9 -16.5 -13t-56.5 -4h-10q-44 0 -54 3q-7 2 -7 8q0 3 1 6l244 687q1 4 3.5 7t9.5 5t19.5 3t34.5 1h9z
M247 293h156l-11 35l-23 73l-18 57l-14 46q-6 21 -11 41l-28 -93q-16 -54 -40 -126zM442 978q23 0 29 -4t0 -12l-130 -163q-5 -6 -13.5 -8.5t-27.5 -2.5h-38q-17 0 -23 3t-1 12l106 163q4 7 13 9.5t37 2.5h48z" />
    <glyph glyph-name="Acircumflex" unicode="&#xc2;" horiz-adv-x="660" 
d="M332 720q21 0 33.5 -0.5t19.5 -2.5t10 -5t5 -8l247 -686q1 -3 1 -5q0 -6 -8 -9q-11 -4 -55 -4h-12q-22 0 -36 1t-22.5 3t-12.5 5t-5 8l-57 166h-230l-55 -166q-3 -9 -16.5 -13t-56.5 -4h-10q-44 0 -54 3q-7 2 -7 8q0 3 1 6l244 687q1 4 3.5 7t9.5 5t19.5 3t34.5 1h9z
M247 293h156l-11 35l-23 73l-18 57l-14 46q-6 21 -11 41l-28 -93q-16 -54 -40 -126zM261 952q9 10 21.5 13t40.5 3h14q28 0 40.5 -3t21.5 -13l91 -97q8 -8 4.5 -15t-16.5 -20l-10 -10q-15 -15 -22 -18.5t-15 3.5l-101 88l-101 -88q-8 -7 -15 -3.5t-22 18.5l-10 10
q-13 13 -16.5 20t4.5 15z" />
    <glyph glyph-name="Atilde" unicode="&#xc3;" horiz-adv-x="660" 
d="M332 720q21 0 33.5 -0.5t19.5 -2.5t10 -5t5 -8l247 -686q1 -3 1 -5q0 -6 -8 -9q-11 -4 -55 -4h-12q-22 0 -36 1t-22.5 3t-12.5 5t-5 8l-57 166h-230l-55 -166q-3 -9 -16.5 -13t-56.5 -4h-10q-44 0 -54 3q-7 2 -7 8q0 3 1 6l244 687q1 4 3.5 7t9.5 5t19.5 3t34.5 1h9z
M247 293h156l-11 35l-23 73l-18 57l-14 46q-6 21 -11 41l-28 -93q-16 -54 -40 -126zM166 840q-14 14 -18 21.5t2 15.5q23 28 51.5 47.5t63.5 19.5q19 0 35.5 -6t30.5 -12l25 -13q12 -6 24 -6q15 0 29 8t30 24q4 4 11 2t25 -20l4 -4q14 -14 18 -21.5t-2 -15.5
q-23 -28 -51.5 -47.5t-63.5 -19.5q-19 0 -35 6q-16 7 -30 13l-26 12q-12 6 -24 6q-15 0 -29 -8t-30 -24q-4 -4 -11 -2t-25 20z" />
    <glyph glyph-name="Adieresis" unicode="&#xc4;" horiz-adv-x="660" 
d="M332 720q21 0 33.5 -0.5t19.5 -2.5t10 -5t5 -8l247 -686q1 -3 1 -5q0 -6 -8 -9q-11 -4 -55 -4h-12q-22 0 -36 1t-22.5 3t-12.5 5t-5 8l-57 166h-230l-55 -166q-3 -9 -16.5 -13t-56.5 -4h-10q-44 0 -54 3q-7 2 -7 8q0 3 1 6l244 687q1 4 3.5 7t9.5 5t19.5 3t34.5 1h9z
M247 293h156l-11 35l-23 73l-18 57l-14 46q-6 21 -11 41l-28 -93q-16 -54 -40 -126zM148 871q0 29 20.5 50t52.5 21t52.5 -21t20.5 -50t-20.5 -49t-52.5 -20t-52.5 20t-20.5 49zM366 871q0 29 19.5 50t51.5 21q33 0 54 -21t21 -50t-21 -49t-54 -20q-32 0 -51.5 20t-19.5 49z
" />
    <glyph glyph-name="Aring" unicode="&#xc5;" horiz-adv-x="660" 
d="M647 18q4 -10 -7 -14t-55 -4h-12q-22 0 -36 1t-22.5 3t-12.5 5t-5 8l-57 166h-230l-55 -166q-3 -9 -16.5 -13t-56.5 -4h-10q-44 0 -54 3t-6 14l248 700q-20 15 -32 38t-12 50q0 23 9 43t24.5 34.5t36.5 23t44 8.5t43.5 -8.5t36 -23t24.5 -34.5t9 -43q0 -29 -13 -52
t-34 -38zM247 293h156l-11 35l-23 73l-18 57l-14 46q-6 20 -11 41l-28 -93q-16 -54 -40 -126zM290 805q0 -17 11.5 -28.5t28.5 -11.5t27.5 11.5t10.5 28.5q0 16 -10.5 27.5t-27.5 11.5t-28.5 -11t-11.5 -28z" />
    <glyph glyph-name="AE" unicode="&#xc6;" horiz-adv-x="977" 
d="M905 720q5 0 8.5 -1t5.5 -6.5t2.5 -16t0.5 -29.5v-8q0 -37 -3.5 -46t-13.5 -9h-275v-182h233q5 0 8.5 -1t5.5 -6.5t2.5 -16t0.5 -29.5v-8q0 -37 -3.5 -46t-13.5 -9h-233v-190h279q5 0 8.5 -1t5.5 -6.5t2.5 -16t0.5 -29.5v-8q0 -37 -3.5 -46t-13.5 -9h-379q-29 0 -37 2.5
t-8 12.5v159h-237l-93 -157q-6 -11 -21.5 -14t-52.5 -3h-25q-42 0 -50.5 4t-2.5 13l423 687q6 9 15.5 12.5t41.5 3.5h422zM313 283h172v303q-6 -16 -17 -36l-24 -44l-29 -51l-30 -51z" />
    <glyph glyph-name="Ccedilla" unicode="&#xc7;" horiz-adv-x="586" 
d="M527 594q-14 -24 -20 -30.5t-15 -0.5q-35 23 -64 34t-66 11q-84 0 -130.5 -63.5t-46.5 -187.5q0 -116 43.5 -180t134.5 -64q33 0 68 9t67 26q11 6 17 0.5t17 -29.5l11 -24q11 -25 12 -33.5t-12 -16.5q-34 -21 -85 -36.5t-102 -18.5l-2 -27q46 -2 76 -24t30 -70
q0 -21 -7.5 -40.5t-23.5 -34.5t-39.5 -24t-56.5 -9q-47 0 -78 13q-6 2 -7 8.5t4 26.5l3 11q5 17 8.5 23t13.5 3q11 -3 23.5 -4.5t22.5 -1.5q20 0 29.5 8t9.5 21q0 14 -10 22t-35 8q-11 0 -27 -1t-33 -3l14 102q-114 22 -174.5 114.5t-60.5 241.5q0 84 21.5 153.5t62 119
t99 77t132.5 27.5q112 0 192 -60q13 -10 12 -18.5t-15 -34.5z" />
    <glyph glyph-name="Egrave" unicode="&#xc8;" horiz-adv-x="565" 
d="M493 720q5 0 8.5 -1t5.5 -6.5t2.5 -16t0.5 -29.5v-8q0 -37 -3.5 -46t-13.5 -9h-275v-182h233q5 0 8.5 -1t5.5 -6.5t2.5 -16t0.5 -29.5v-8q0 -37 -3.5 -46t-13.5 -9h-233v-190h279q5 0 8.5 -1t5.5 -6.5t2.5 -16t0.5 -29.5v-8q0 -37 -3.5 -46t-13.5 -9h-379q-29 0 -37 2.5
t-8 12.5v690q0 10 8 12.5t37 2.5h375zM236 978q28 0 37 -2.5t13 -9.5l106 -163q5 -9 -1 -12t-23 -3h-38q-19 0 -27.5 2.5t-13.5 8.5l-130 163q-6 8 0 12t29 4h48z" />
    <glyph glyph-name="Eacute" unicode="&#xc9;" horiz-adv-x="565" 
d="M493 720q5 0 8.5 -1t5.5 -6.5t2.5 -16t0.5 -29.5v-8q0 -37 -3.5 -46t-13.5 -9h-275v-182h233q5 0 8.5 -1t5.5 -6.5t2.5 -16t0.5 -29.5v-8q0 -37 -3.5 -46t-13.5 -9h-233v-190h279q5 0 8.5 -1t5.5 -6.5t2.5 -16t0.5 -29.5v-8q0 -37 -3.5 -46t-13.5 -9h-379q-29 0 -37 2.5
t-8 12.5v690q0 10 8 12.5t37 2.5h375zM404 978q23 0 29 -4t0 -12l-130 -163q-5 -6 -13.5 -8.5t-27.5 -2.5h-38q-17 0 -23 3t-1 12l106 163q4 7 13 9.5t37 2.5h48z" />
    <glyph glyph-name="Ecircumflex" unicode="&#xca;" horiz-adv-x="565" 
d="M493 720q5 0 8.5 -1t5.5 -6.5t2.5 -16t0.5 -29.5v-8q0 -37 -3.5 -46t-13.5 -9h-275v-182h233q5 0 8.5 -1t5.5 -6.5t2.5 -16t0.5 -29.5v-8q0 -37 -3.5 -46t-13.5 -9h-233v-190h279q5 0 8.5 -1t5.5 -6.5t2.5 -16t0.5 -29.5v-8q0 -37 -3.5 -46t-13.5 -9h-379q-29 0 -37 2.5
t-8 12.5v690q0 10 8 12.5t37 2.5h375zM226 952q9 10 21.5 13t40.5 3h14q28 0 40.5 -3t21.5 -13l91 -97q8 -8 4.5 -15t-16.5 -20l-10 -10q-15 -15 -22 -18.5t-15 3.5l-101 88l-101 -88q-8 -7 -15 -3.5t-22 18.5l-10 10q-13 13 -16.5 20t4.5 15z" />
    <glyph glyph-name="Edieresis" unicode="&#xcb;" horiz-adv-x="565" 
d="M493 720q5 0 8.5 -1t5.5 -6.5t2.5 -16t0.5 -29.5v-8q0 -37 -3.5 -46t-13.5 -9h-275v-182h233q5 0 8.5 -1t5.5 -6.5t2.5 -16t0.5 -29.5v-8q0 -37 -3.5 -46t-13.5 -9h-233v-190h279q5 0 8.5 -1t5.5 -6.5t2.5 -16t0.5 -29.5v-8q0 -37 -3.5 -46t-13.5 -9h-379q-29 0 -37 2.5
t-8 12.5v690q0 10 8 12.5t37 2.5h375zM102 871q0 29 20.5 50t52.5 21t52.5 -21t20.5 -50t-20.5 -49t-52.5 -20t-52.5 20t-20.5 49zM320 871q0 29 19.5 50t51.5 21q33 0 54 -21t21 -50t-21 -49t-54 -20q-32 0 -51.5 20t-19.5 49z" />
    <glyph glyph-name="Igrave" unicode="&#xcc;" horiz-adv-x="405" 
d="M341 720q7 0 9.5 -8t2.5 -41v-5q0 -33 -2.5 -41t-9.5 -8h-65v-514h65q7 0 9.5 -8t2.5 -41v-5q0 -33 -2.5 -41t-9.5 -8h-275q-7 0 -9.5 8t-2.5 41v5q0 33 2.5 41t9.5 8h65v514h-65q-7 0 -9.5 8t-2.5 41v5q0 33 2.5 41t9.5 8h275zM156 978q28 0 37 -2.5t13 -9.5l106 -163
q5 -9 -1 -12t-23 -3h-38q-19 0 -27.5 2.5t-13.5 8.5l-130 163q-6 8 0 12t29 4h48z" />
    <glyph glyph-name="Iacute" unicode="&#xcd;" horiz-adv-x="405" 
d="M341 720q7 0 9.5 -8t2.5 -41v-5q0 -33 -2.5 -41t-9.5 -8h-65v-514h65q7 0 9.5 -8t2.5 -41v-5q0 -33 -2.5 -41t-9.5 -8h-275q-7 0 -9.5 8t-2.5 41v5q0 33 2.5 41t9.5 8h65v514h-65q-7 0 -9.5 8t-2.5 41v5q0 33 2.5 41t9.5 8h275zM306 978q23 0 29 -4t0 -12l-130 -163
q-5 -6 -13.5 -8.5t-27.5 -2.5h-38q-17 0 -23 3t-1 12l106 163q4 7 13 9.5t37 2.5h48z" />
    <glyph glyph-name="Icircumflex" unicode="&#xce;" horiz-adv-x="405" 
d="M341 720q7 0 9.5 -8t2.5 -41v-5q0 -33 -2.5 -41t-9.5 -8h-65v-514h65q7 0 9.5 -8t2.5 -41v-5q0 -33 -2.5 -41t-9.5 -8h-275q-7 0 -9.5 8t-2.5 41v5q0 33 2.5 41t9.5 8h65v514h-65q-7 0 -9.5 8t-2.5 41v5q0 33 2.5 41t9.5 8h275zM134 952q9 10 21.5 13t40.5 3h14
q28 0 40.5 -3t21.5 -13l91 -97q8 -8 4.5 -15t-16.5 -20l-10 -10q-15 -15 -22 -18.5t-15 3.5l-101 88l-101 -88q-8 -7 -15 -3.5t-22 18.5l-10 10q-13 13 -16.5 20t4.5 15z" />
    <glyph glyph-name="Idieresis" unicode="&#xcf;" horiz-adv-x="405" 
d="M341 720q7 0 9.5 -8t2.5 -41v-5q0 -33 -2.5 -41t-9.5 -8h-65v-514h65q7 0 9.5 -8t2.5 -41v-5q0 -33 -2.5 -41t-9.5 -8h-275q-7 0 -9.5 8t-2.5 41v5q0 33 2.5 41t9.5 8h65v514h-65q-7 0 -9.5 8t-2.5 41v5q0 33 2.5 41t9.5 8h275zM21 871q0 29 20.5 50t52.5 21t52.5 -21
t20.5 -50t-20.5 -49t-52.5 -20t-52.5 20t-20.5 49zM239 871q0 29 19.5 50t51.5 21q33 0 54 -21t21 -50t-21 -49t-54 -20q-32 0 -51.5 20t-19.5 49z" />
    <glyph glyph-name="Eth" unicode="&#xd0;" horiz-adv-x="683" 
d="M280 720q97 0 164.5 -21.5t111.5 -67.5q42 -43 66.5 -111.5t24.5 -156.5q0 -91 -25.5 -163.5t-79.5 -123.5q-46 -44 -109.5 -60t-147.5 -16h-155q-29 0 -37 2.5t-8 12.5v294h-65q-8 0 -11 8.5t-3 41.5v10q0 33 3 41.5t11 8.5h65v286q0 10 8 12.5t37 2.5h150zM230 419h96
q8 0 11 -8.5t3 -41.5v-10q0 -33 -3 -41.5t-11 -8.5h-96v-193h52q44 0 85 9.5t70 36.5q31 29 46.5 80.5t15.5 118.5q0 61 -12 107t-35 73q-27 32 -66.5 47.5t-99.5 15.5h-56v-185z" />
    <glyph glyph-name="Ntilde" unicode="&#xd1;" horiz-adv-x="706" 
d="M135 720q21 0 33.5 -1t20 -3t10.5 -5t6 -7l180 -274l47 -72q19 -30 32 -52t22 -40t17 -38q-2 18 -3 46.5t-2 60.5v65q-1 33 -1 59v246q0 8 11.5 11.5t52.5 3.5h7q39 0 52 -3.5t13 -11.5v-690q0 -5 -1.5 -7.5t-7.5 -4.5t-17.5 -2.5t-31.5 -0.5h-6q-36 0 -49 3t-19 13
l-180 274l-49 76l-34 54q-13 23 -21.5 40.5t-14.5 32.5q2 -18 3.5 -46.5t2.5 -60.5v-66q1 -33 1 -59v-246q0 -9 -12.5 -12t-51.5 -3h-6q-41 0 -53.5 2.5t-12.5 12.5v690q0 5 1.5 8t7 4.5t17 2t31.5 0.5h5zM196 840q-14 14 -18 21.5t2 15.5q23 28 51.5 47.5t63.5 19.5
q19 0 35.5 -6t30.5 -12l25 -13q12 -6 24 -6q15 0 29 8t30 24q4 4 11 2t25 -20l4 -4q14 -14 18 -21.5t-2 -15.5q-23 -28 -51.5 -47.5t-63.5 -19.5q-19 0 -35 6q-16 7 -30 13l-26 12q-12 6 -24 6q-15 0 -29 -8t-30 -24q-4 -4 -11 -2t-25 20z" />
    <glyph glyph-name="Ograve" unicode="&#xd2;" horiz-adv-x="697" 
d="M356 609q-85 0 -128 -65t-43 -190q0 -130 41 -186.5t115 -56.5q85 0 128 65t43 190q0 130 -41.5 186.5t-114.5 56.5zM359 730q67 0 122.5 -20.5t95.5 -64t62 -112t22 -163.5q0 -86 -20.5 -156.5t-61 -120t-101 -76.5t-140.5 -27q-67 0 -122.5 20.5t-95.5 64t-62 112
t-22 163.5q0 86 20.5 156.5t61 120t101 76.5t140.5 27zM302 978q28 0 37 -2.5t13 -9.5l106 -163q5 -9 -1 -12t-23 -3h-38q-19 0 -27.5 2.5t-13.5 8.5l-130 163q-6 8 0 12t29 4h48z" />
    <glyph glyph-name="Oacute" unicode="&#xd3;" horiz-adv-x="697" 
d="M356 609q-85 0 -128 -65t-43 -190q0 -130 41 -186.5t115 -56.5q85 0 128 65t43 190q0 130 -41.5 186.5t-114.5 56.5zM359 730q67 0 122.5 -20.5t95.5 -64t62 -112t22 -163.5q0 -86 -20.5 -156.5t-61 -120t-101 -76.5t-140.5 -27q-67 0 -122.5 20.5t-95.5 64t-62 112
t-22 163.5q0 86 20.5 156.5t61 120t101 76.5t140.5 27zM451 978q23 0 29 -4t0 -12l-130 -163q-5 -6 -13.5 -8.5t-27.5 -2.5h-38q-17 0 -23 3t-1 12l106 163q4 7 13 9.5t37 2.5h48z" />
    <glyph glyph-name="Ocircumflex" unicode="&#xd4;" horiz-adv-x="697" 
d="M356 609q-85 0 -128 -65t-43 -190q0 -130 41 -186.5t115 -56.5q85 0 128 65t43 190q0 130 -41.5 186.5t-114.5 56.5zM359 730q67 0 122.5 -20.5t95.5 -64t62 -112t22 -163.5q0 -86 -20.5 -156.5t-61 -120t-101 -76.5t-140.5 -27q-67 0 -122.5 20.5t-95.5 64t-62 112
t-22 163.5q0 86 20.5 156.5t61 120t101 76.5t140.5 27zM279 952q9 10 21.5 13t40.5 3h14q28 0 40.5 -3t21.5 -13l91 -97q8 -8 4.5 -15t-16.5 -20l-10 -10q-15 -15 -22 -18.5t-15 3.5l-101 88l-101 -88q-8 -7 -15 -3.5t-22 18.5l-10 10q-13 13 -16.5 20t4.5 15z" />
    <glyph glyph-name="Otilde" unicode="&#xd5;" horiz-adv-x="697" 
d="M356 609q-85 0 -128 -65t-43 -190q0 -130 41 -186.5t115 -56.5q85 0 128 65t43 190q0 130 -41.5 186.5t-114.5 56.5zM359 730q67 0 122.5 -20.5t95.5 -64t62 -112t22 -163.5q0 -86 -20.5 -156.5t-61 -120t-101 -76.5t-140.5 -27q-67 0 -122.5 20.5t-95.5 64t-62 112
t-22 163.5q0 86 20.5 156.5t61 120t101 76.5t140.5 27zM192 840q-14 14 -18 21.5t2 15.5q23 28 51.5 47.5t63.5 19.5q19 0 35.5 -6t30.5 -12l25 -13q12 -6 24 -6q15 0 29 8t30 24q4 4 11 2t25 -20l4 -4q14 -14 18 -21.5t-2 -15.5q-23 -28 -51.5 -47.5t-63.5 -19.5
q-19 0 -35 6q-16 7 -30 13l-26 12q-12 6 -24 6q-15 0 -29 -8t-30 -24q-4 -4 -11 -2t-25 20z" />
    <glyph glyph-name="Odieresis" unicode="&#xd6;" horiz-adv-x="697" 
d="M356 609q-85 0 -128 -65t-43 -190q0 -130 41 -186.5t115 -56.5q85 0 128 65t43 190q0 130 -41.5 186.5t-114.5 56.5zM359 730q67 0 122.5 -20.5t95.5 -64t62 -112t22 -163.5q0 -86 -20.5 -156.5t-61 -120t-101 -76.5t-140.5 -27q-67 0 -122.5 20.5t-95.5 64t-62 112
t-22 163.5q0 86 20.5 156.5t61 120t101 76.5t140.5 27zM166 871q0 29 20.5 50t52.5 21t52.5 -21t20.5 -50t-20.5 -49t-52.5 -20t-52.5 20t-20.5 49zM384 871q0 29 19.5 50t51.5 21q33 0 54 -21t21 -50t-21 -49t-54 -20q-32 0 -51.5 20t-19.5 49z" />
    <glyph glyph-name="multiply" unicode="&#xd7;" 
d="M126 526q23 24 31.5 27.5t13.5 -1.5l124 -124l124 125q5 5 13.5 1t31.5 -27l10 -10q24 -23 27.5 -31.5t-1.5 -13.5l-125 -125l125 -124q5 -5 1.5 -13.5t-27.5 -31.5l-10 -10q-23 -23 -31.5 -27t-13.5 1l-124 125l-124 -124q-5 -5 -13.5 -1.5t-31.5 27.5l-10 10
q-23 23 -27 31.5t1 13.5l124 123l-124 124q-5 5 -1 13.5t27 31.5z" />
    <glyph glyph-name="Oslash" unicode="&#xd8;" horiz-adv-x="697" 
d="M500 771q6 11 15 10.5t34 -11.5l13 -6q29 -13 33.5 -19.5t-0.5 -16.5l-36 -66q48 -43 75 -114.5t27 -177.5q0 -86 -20.5 -156.5t-61 -120t-101 -76.5t-140.5 -27q-74 0 -132 24l-35 -65q-6 -11 -14.5 -10.5t-34.5 12.5l-13 6q-27 13 -32.5 19.5t-0.5 15.5l45 82
q-41 44 -63 111.5t-22 164.5q0 86 20.5 156.5t61 120t101 76.5t140.5 27q61 0 110 -16zM268 128q30 -17 73 -17q85 0 128 65t43 190q0 103 -27 160zM407 601q-24 8 -51 8q-85 0 -128 -65t-43 -190q0 -82 16 -133z" />
    <glyph glyph-name="Ugrave" unicode="&#xd9;" horiz-adv-x="692" 
d="M146 720q40 0 54 -3.5t14 -11.5v-433q0 -50 9.5 -80.5t28.5 -49.5q17 -17 40.5 -24t53.5 -7q61 0 96 35q19 20 29 50t10 76v433q0 8 12 11.5t54 3.5h8q40 0 54 -3.5t14 -11.5v-413q0 -84 -16.5 -137.5t-51.5 -90.5q-71 -74 -213 -74q-72 0 -125.5 18.5t-88.5 57.5
q-29 33 -44 80.5t-15 124.5v434q0 8 12 11.5t54 3.5h11zM282 978q28 0 37 -2.5t13 -9.5l106 -163q5 -9 -1 -12t-23 -3h-38q-19 0 -27.5 2.5t-13.5 8.5l-130 163q-6 8 0 12t29 4h48z" />
    <glyph glyph-name="Uacute" unicode="&#xda;" horiz-adv-x="692" 
d="M146 720q40 0 54 -3.5t14 -11.5v-433q0 -50 9.5 -80.5t28.5 -49.5q17 -17 40.5 -24t53.5 -7q61 0 96 35q19 20 29 50t10 76v433q0 8 12 11.5t54 3.5h8q40 0 54 -3.5t14 -11.5v-413q0 -84 -16.5 -137.5t-51.5 -90.5q-71 -74 -213 -74q-72 0 -125.5 18.5t-88.5 57.5
q-29 33 -44 80.5t-15 124.5v434q0 8 12 11.5t54 3.5h11zM462 978q23 0 29 -4t0 -12l-130 -163q-5 -6 -13.5 -8.5t-27.5 -2.5h-38q-17 0 -23 3t-1 12l106 163q4 7 13 9.5t37 2.5h48z" />
    <glyph glyph-name="Ucircumflex" unicode="&#xdb;" horiz-adv-x="692" 
d="M146 720q40 0 54 -3.5t14 -11.5v-433q0 -50 9.5 -80.5t28.5 -49.5q17 -17 40.5 -24t53.5 -7q61 0 96 35q19 20 29 50t10 76v433q0 8 12 11.5t54 3.5h8q40 0 54 -3.5t14 -11.5v-413q0 -84 -16.5 -137.5t-51.5 -90.5q-71 -74 -213 -74q-72 0 -125.5 18.5t-88.5 57.5
q-29 33 -44 80.5t-15 124.5v434q0 8 12 11.5t54 3.5h11zM277 952q9 10 21.5 13t40.5 3h14q28 0 40.5 -3t21.5 -13l91 -97q8 -8 4.5 -15t-16.5 -20l-10 -10q-15 -15 -22 -18.5t-15 3.5l-101 88l-101 -88q-8 -7 -15 -3.5t-22 18.5l-10 10q-13 13 -16.5 20t4.5 15z" />
    <glyph glyph-name="Udieresis" unicode="&#xdc;" horiz-adv-x="692" 
d="M146 720q40 0 54 -3.5t14 -11.5v-433q0 -50 9.5 -80.5t28.5 -49.5q17 -17 40.5 -24t53.5 -7q61 0 96 35q19 20 29 50t10 76v433q0 8 12 11.5t54 3.5h8q40 0 54 -3.5t14 -11.5v-413q0 -84 -16.5 -137.5t-51.5 -90.5q-71 -74 -213 -74q-72 0 -125.5 18.5t-88.5 57.5
q-29 33 -44 80.5t-15 124.5v434q0 8 12 11.5t54 3.5h11zM164 871q0 29 20.5 50t52.5 21t52.5 -21t20.5 -50t-20.5 -49t-52.5 -20t-52.5 20t-20.5 49zM382 871q0 29 19.5 50t51.5 21q33 0 54 -21t21 -50t-21 -49t-54 -20q-32 0 -51.5 20t-19.5 49z" />
    <glyph glyph-name="Yacute" unicode="&#xdd;" horiz-adv-x="591" 
d="M98 720q21 0 34 -1t21.5 -2.5t12.5 -5t6 -7.5l72 -150q18 -38 35 -78t26 -68l25 67q16 40 34 79l70 151q2 4 4.5 7t9.5 4.5t19 2.5t33 1h22q21 0 33 -1t18 -3q7 -1 7 -7q0 -2 -1 -5l-212 -424v-265q0 -9 -14 -12t-54 -3h-11q-42 0 -54 3t-12 12v265l-210 423q-2 3 -2 6
q0 5 8 7q7 2 20.5 3t36.5 1h23zM449 978q23 0 29 -4t0 -12l-130 -163q-5 -6 -13.5 -8.5t-27.5 -2.5h-38q-17 0 -23 3t-1 12l106 163q4 7 13 9.5t37 2.5h48z" />
    <glyph glyph-name="Thorn" unicode="&#xde;" horiz-adv-x="574" 
d="M149 720q40 0 54 -3t14 -12v-117h24q86 0 146 -13.5t101 -54.5q54 -54 54 -159q0 -51 -16 -95t-48 -76t-83 -50t-119 -18q-15 0 -31.5 0.5t-27.5 1.5v-109q0 -9 -14 -12t-54 -3h-11q-42 0 -54 3t-12 12v690q0 9 12 12t54 3h11zM217 240q11 -2 25.5 -2.5t25.5 -0.5
q72 0 102 38q13 16 19.5 38.5t6.5 47.5q0 46 -23 74q-17 20 -43.5 28.5t-71.5 8.5h-41v-232z" />
    <glyph glyph-name="germandbls" unicode="&#xdf;" horiz-adv-x="688" 
d="M203 15q0 -4 -2 -7t-8.5 -4.5t-19.5 -2.5t-35 -1h-5q-24 0 -37.5 1t-20 2.5t-8 4.5t-1.5 7v488q0 75 19.5 121t51.5 77q71 69 194 69q53 0 98 -13t78 -37t52 -57t19 -73q0 -45 -23.5 -76t-51.5 -54l-51 -42q-24 -19 -24 -41q0 -18 16 -29q16 -10 42 -20l55 -20
q29 -10 54.5 -28t42 -45t16.5 -69q0 -44 -18 -76.5t-48 -55t-68.5 -33.5t-79.5 -11q-58 0 -104 17t-77 43q-6 5 -4.5 14t13.5 31l10 18q13 23 21 30t16 1q29 -20 60 -31.5t63 -11.5q42 0 62 13.5t20 33.5q0 18 -17 30q-17 10 -43 20l-56 21q-30 11 -55.5 28.5t-42.5 44
t-17 67.5q0 31 11 53.5t27.5 40.5t35.5 32.5t35.5 29.5t27.5 31.5t11 39.5q0 34 -28.5 54t-76.5 20q-56 0 -89 -33q-22 -23 -31 -55t-9 -77v-480z" />
    <glyph glyph-name="agrave" unicode="&#xe0;" horiz-adv-x="577" 
d="M388 515q0 3 2 5.5t8 4t17.5 2.5t31.5 1h6q38 0 48 -3t10 -11q0 -12 -0.5 -36t-0.5 -53.5t-0.5 -62.5t-0.5 -64v-61q0 -59 2 -118.5t5 -100.5q0 -5 -0.5 -8.5t-6 -5.5t-17.5 -3t-33 -1h-5q-37 0 -47.5 2.5t-13.5 10.5q-2 5 -3.5 15t-3.5 19q-23 -26 -61 -41.5t-76 -15.5
q-49 0 -88.5 18t-67 52.5t-42 83t-14.5 110.5q0 68 17.5 121t48 89t70.5 55t85 19q41 0 75 -17t51 -42zM372 371q-14 22 -37.5 35t-49.5 13q-55 0 -81 -41.5t-26 -119.5q0 -33 5 -61.5t17 -48.5t32.5 -31.5t50.5 -11.5q24 0 44 8t31 22q8 11 11 24.5t3 31.5v180zM231 786
q28 0 37 -2.5t13 -9.5l106 -163q5 -9 -1 -12t-23 -3h-38q-19 0 -27.5 2.5t-13.5 8.5l-130 163q-6 8 0 12t29 4h48z" />
    <glyph glyph-name="aacute" unicode="&#xe1;" horiz-adv-x="577" 
d="M388 515q0 3 2 5.5t8 4t17.5 2.5t31.5 1h6q38 0 48 -3t10 -11q0 -12 -0.5 -36t-0.5 -53.5t-0.5 -62.5t-0.5 -64v-61q0 -59 2 -118.5t5 -100.5q0 -5 -0.5 -8.5t-6 -5.5t-17.5 -3t-33 -1h-5q-37 0 -47.5 2.5t-13.5 10.5q-2 5 -3.5 15t-3.5 19q-23 -26 -61 -41.5t-76 -15.5
q-49 0 -88.5 18t-67 52.5t-42 83t-14.5 110.5q0 68 17.5 121t48 89t70.5 55t85 19q41 0 75 -17t51 -42zM372 371q-14 22 -37.5 35t-49.5 13q-55 0 -81 -41.5t-26 -119.5q0 -33 5 -61.5t17 -48.5t32.5 -31.5t50.5 -11.5q24 0 44 8t31 22q8 11 11 24.5t3 31.5v180zM394 786
q23 0 29 -4t0 -12l-130 -163q-5 -6 -13.5 -8.5t-27.5 -2.5h-38q-17 0 -23 3t-1 12l106 163q4 7 13 9.5t37 2.5h48z" />
    <glyph glyph-name="acircumflex" unicode="&#xe2;" horiz-adv-x="577" 
d="M388 515q0 3 2 5.5t8 4t17.5 2.5t31.5 1h6q38 0 48 -3t10 -11q0 -12 -0.5 -36t-0.5 -53.5t-0.5 -62.5t-0.5 -64v-61q0 -59 2 -118.5t5 -100.5q0 -5 -0.5 -8.5t-6 -5.5t-17.5 -3t-33 -1h-5q-37 0 -47.5 2.5t-13.5 10.5q-2 5 -3.5 15t-3.5 19q-23 -26 -61 -41.5t-76 -15.5
q-49 0 -88.5 18t-67 52.5t-42 83t-14.5 110.5q0 68 17.5 121t48 89t70.5 55t85 19q41 0 75 -17t51 -42zM372 371q-14 22 -37.5 35t-49.5 13q-55 0 -81 -41.5t-26 -119.5q0 -33 5 -61.5t17 -48.5t32.5 -31.5t50.5 -11.5q24 0 44 8t31 22q8 11 11 24.5t3 31.5v180zM213 760
q9 10 21.5 13t40.5 3h14q28 0 40.5 -3t21.5 -13l91 -97q8 -8 4.5 -15t-16.5 -20l-10 -10q-15 -15 -22 -18.5t-15 3.5l-101 88l-101 -88q-8 -7 -15 -3.5t-22 18.5l-10 10q-13 13 -16.5 20t4.5 15z" />
    <glyph glyph-name="atilde" unicode="&#xe3;" horiz-adv-x="577" 
d="M388 515q0 3 2 5.5t8 4t17.5 2.5t31.5 1h6q38 0 48 -3t10 -11q0 -12 -0.5 -36t-0.5 -53.5t-0.5 -62.5t-0.5 -64v-61q0 -59 2 -118.5t5 -100.5q0 -5 -0.5 -8.5t-6 -5.5t-17.5 -3t-33 -1h-5q-37 0 -47.5 2.5t-13.5 10.5q-2 5 -3.5 15t-3.5 19q-23 -26 -61 -41.5t-76 -15.5
q-49 0 -88.5 18t-67 52.5t-42 83t-14.5 110.5q0 68 17.5 121t48 89t70.5 55t85 19q41 0 75 -17t51 -42zM372 371q-14 22 -37.5 35t-49.5 13q-55 0 -81 -41.5t-26 -119.5q0 -33 5 -61.5t17 -48.5t32.5 -31.5t50.5 -11.5q24 0 44 8t31 22q8 11 11 24.5t3 31.5v180zM132 647
q-14 14 -18 21.5t2 15.5q23 28 51.5 47.5t63.5 19.5q19 0 36 -6q16 -7 30 -13l25 -12q12 -6 24 -6q15 0 29 8t30 24q4 4 11 2t25 -20l4 -4q14 -14 18 -21.5t-2 -15.5q-23 -28 -51.5 -47.5t-63.5 -19.5q-19 0 -35 6t-30 12l-26 13q-12 6 -24 6q-15 0 -29 -8t-30 -24
q-4 -4 -11 -2t-25 20z" />
    <glyph glyph-name="adieresis" unicode="&#xe4;" horiz-adv-x="577" 
d="M388 515q0 3 2 5.5t8 4t17.5 2.5t31.5 1h6q38 0 48 -3t10 -11q0 -12 -0.5 -36t-0.5 -53.5t-0.5 -62.5t-0.5 -64v-61q0 -59 2 -118.5t5 -100.5q0 -5 -0.5 -8.5t-6 -5.5t-17.5 -3t-33 -1h-5q-37 0 -47.5 2.5t-13.5 10.5q-2 5 -3.5 15t-3.5 19q-23 -26 -61 -41.5t-76 -15.5
q-49 0 -88.5 18t-67 52.5t-42 83t-14.5 110.5q0 68 17.5 121t48 89t70.5 55t85 19q41 0 75 -17t51 -42zM372 371q-14 22 -37.5 35t-49.5 13q-55 0 -81 -41.5t-26 -119.5q0 -33 5 -61.5t17 -48.5t32.5 -31.5t50.5 -11.5q24 0 44 8t31 22q8 11 11 24.5t3 31.5v180zM106 679
q0 29 20.5 50t52.5 21t52.5 -21t20.5 -50t-20.5 -49t-52.5 -20t-52.5 20t-20.5 49zM324 679q0 29 19.5 50t51.5 21q33 0 54 -21t21 -50t-21 -49t-54 -20q-32 0 -51.5 20t-19.5 49z" />
    <glyph glyph-name="aring" unicode="&#xe5;" horiz-adv-x="577" 
d="M388 515q0 3 2 5.5t8 4t17.5 2.5t31.5 1h6q38 0 48 -3t10 -11q0 -12 -0.5 -36t-0.5 -53.5t-0.5 -62.5t-0.5 -64v-61q0 -59 2 -118.5t5 -100.5q0 -5 -0.5 -8.5t-6 -5.5t-17.5 -3t-33 -1h-5q-37 0 -47.5 2.5t-13.5 10.5q-2 5 -3.5 15t-3.5 19q-23 -26 -61 -41.5t-76 -15.5
q-49 0 -88.5 18t-67 52.5t-42 83t-14.5 110.5q0 68 17.5 121t48 89t70.5 55t85 19q41 0 75 -17t51 -42zM372 371q-14 22 -37.5 35t-49.5 13q-55 0 -81 -41.5t-26 -119.5q0 -33 5 -61.5t17 -48.5t32.5 -31.5t50.5 -11.5q24 0 44 8t31 22q8 11 11 24.5t3 31.5v180zM175 701
q0 23 9 43t24.5 34.5t36.5 23t44 8.5t43.5 -8.5t36 -23t24.5 -34.5t9 -43t-9 -43t-24.5 -35t-36 -23.5t-43.5 -8.5t-44 8.5t-36.5 23.5t-24.5 35t-9 43zM249 701q0 -17 11.5 -28.5t28.5 -11.5t27.5 11.5t10.5 28.5q0 16 -10.5 27.5t-27.5 11.5t-28.5 -11t-11.5 -28z" />
    <glyph glyph-name="ae" unicode="&#xe6;" horiz-adv-x="867" 
d="M75 440q-10 23 -11 31t6 13q41 26 95 40t101 14q60 0 100.5 -15t66.5 -42q31 27 71 42t89 15q57 0 100 -20t72.5 -56t44 -85.5t14.5 -107.5q0 -29 -2 -40.5t-8 -11.5h-324q8 -54 41.5 -82t90.5 -28q37 0 72 9t69 23q8 4 13.5 -1t13.5 -28l9 -25q9 -26 8.5 -34t-9.5 -13
q-38 -21 -89.5 -34.5t-104.5 -13.5q-122 0 -189 72q-35 -33 -84.5 -52.5t-108.5 -19.5q-37 0 -74 11.5t-64 37.5q-23 21 -36.5 51t-13.5 71q0 43 15.5 75t44 53.5t67.5 32t87 10.5q27 0 52.5 -4.5t46.5 -11.5v28q0 40 -23.5 61.5t-71.5 21.5q-32 0 -69 -9.5t-68 -23.5
q-10 -5 -16.5 1.5t-17.5 30.5zM364 147q-12 33 -15 71q-19 6 -42 10t-43 4q-41 0 -67 -16t-26 -51q0 -17 7 -28.5t18.5 -19t25.5 -11t28 -3.5q34 0 64 12t50 32zM687 315q-5 47 -28 77.5t-65 30.5t-68 -28.5t-36 -79.5h197z" />
    <glyph glyph-name="ccedilla" unicode="&#xe7;" horiz-adv-x="505" 
d="M450 410q-14 -27 -21.5 -31t-14.5 1q-27 19 -53 29t-58 10q-26 0 -48.5 -8.5t-39.5 -27t-27 -47.5t-10 -69q0 -76 32.5 -117t98.5 -41q31 0 56.5 7.5t54.5 21.5q9 5 14 -1.5t18 -35.5l6 -14q11 -26 11.5 -34t-6.5 -13q-30 -20 -72.5 -34t-92.5 -16l-2 -27q46 -2 76 -24
t30 -70q0 -21 -7.5 -40.5t-23.5 -34.5t-39.5 -24t-56.5 -9q-47 0 -78 13q-6 2 -7 8.5t4 26.5l3 11q5 17 8.5 23t13.5 3q11 -3 23.5 -4.5t22.5 -1.5q20 0 29.5 8t9.5 21q0 14 -10 22t-35 8q-11 0 -27 -1t-33 -3l15 104q-57 13 -98 51q-38 35 -58.5 88.5t-20.5 121.5
q0 65 19 117.5t54 89.5q33 34 79.5 52.5t108.5 18.5q48 0 92 -15.5t78 -43.5q8 -7 6.5 -16t-14.5 -34z" />
    <glyph glyph-name="egrave" unicode="&#xe8;" horiz-adv-x="557" 
d="M180 217q8 -54 41.5 -82t90.5 -28q37 0 72 9t69 23q8 4 13.5 -1t13.5 -28l9 -25q9 -25 9 -33.5t-10 -13.5q-38 -21 -89.5 -34.5t-104.5 -13.5q-59 0 -106.5 18t-81 52.5t-51.5 84t-18 113.5q0 61 17 112.5t48.5 89t77.5 58t103 20.5t100 -20t72.5 -56t44 -85.5
t14.5 -107.5q0 -29 -2 -40.5t-8 -11.5h-324zM377 315q-5 47 -28 77.5t-65 30.5t-68 -28.5t-36 -79.5h197zM236 786q28 0 37 -2.5t13 -9.5l106 -163q5 -9 -1 -12t-23 -3h-38q-19 0 -27.5 2.5t-13.5 8.5l-130 163q-6 8 0 12t29 4h48z" />
    <glyph glyph-name="eacute" unicode="&#xe9;" horiz-adv-x="557" 
d="M180 217q8 -54 41.5 -82t90.5 -28q37 0 72 9t69 23q8 4 13.5 -1t13.5 -28l9 -25q9 -25 9 -33.5t-10 -13.5q-38 -21 -89.5 -34.5t-104.5 -13.5q-59 0 -106.5 18t-81 52.5t-51.5 84t-18 113.5q0 61 17 112.5t48.5 89t77.5 58t103 20.5t100 -20t72.5 -56t44 -85.5
t14.5 -107.5q0 -29 -2 -40.5t-8 -11.5h-324zM377 315q-5 47 -28 77.5t-65 30.5t-68 -28.5t-36 -79.5h197zM388 786q23 0 29 -4t0 -12l-130 -163q-5 -6 -13.5 -8.5t-27.5 -2.5h-38q-17 0 -23 3t-1 12l106 163q4 7 13 9.5t37 2.5h48z" />
    <glyph glyph-name="ecircumflex" unicode="&#xea;" horiz-adv-x="557" 
d="M180 217q8 -54 41.5 -82t90.5 -28q37 0 72 9t69 23q8 4 13.5 -1t13.5 -28l9 -25q9 -25 9 -33.5t-10 -13.5q-38 -21 -89.5 -34.5t-104.5 -13.5q-59 0 -106.5 18t-81 52.5t-51.5 84t-18 113.5q0 61 17 112.5t48.5 89t77.5 58t103 20.5t100 -20t72.5 -56t44 -85.5
t14.5 -107.5q0 -29 -2 -40.5t-8 -11.5h-324zM377 315q-5 47 -28 77.5t-65 30.5t-68 -28.5t-36 -79.5h197zM210 760q9 10 21.5 13t40.5 3h14q28 0 40.5 -3t21.5 -13l91 -97q8 -8 4.5 -15t-16.5 -20l-10 -10q-15 -15 -22 -18.5t-15 3.5l-101 88l-101 -88q-8 -7 -15 -3.5
t-22 18.5l-10 10q-13 13 -16.5 20t4.5 15z" />
    <glyph glyph-name="edieresis" unicode="&#xeb;" horiz-adv-x="557" 
d="M180 217q8 -54 41.5 -82t90.5 -28q37 0 72 9t69 23q8 4 13.5 -1t13.5 -28l9 -25q9 -25 9 -33.5t-10 -13.5q-38 -21 -89.5 -34.5t-104.5 -13.5q-59 0 -106.5 18t-81 52.5t-51.5 84t-18 113.5q0 61 17 112.5t48.5 89t77.5 58t103 20.5t100 -20t72.5 -56t44 -85.5
t14.5 -107.5q0 -29 -2 -40.5t-8 -11.5h-324zM377 315q-5 47 -28 77.5t-65 30.5t-68 -28.5t-36 -79.5h197zM96 679q0 29 20.5 50t52.5 21t52.5 -21t20.5 -50t-20.5 -49t-52.5 -20t-52.5 20t-20.5 49zM314 679q0 29 19.5 50t51.5 21q33 0 54 -21t21 -50t-21 -49t-54 -20
q-32 0 -51.5 20t-19.5 49z" />
    <glyph glyph-name="igrave" unicode="&#xec;" horiz-adv-x="277" 
d="M142 528q22 0 35 -1t19.5 -2.5t8.5 -4.5t2 -7v-498q0 -4 -2 -7t-8.5 -4.5t-19.5 -2.5t-35 -1h-5q-24 0 -37.5 1t-20 2.5t-8 4.5t-1.5 7v498q0 4 1.5 7t8 4.5t20 2.5t37.5 1h5zM83 786q28 0 37 -2.5t13 -9.5l106 -163q5 -9 -1 -12t-23 -3h-38q-19 0 -27.5 2.5t-13.5 8.5
l-130 163q-6 8 0 12t29 4h48z" />
    <glyph glyph-name="iacute" unicode="&#xed;" horiz-adv-x="277" 
d="M142 528q22 0 35 -1t19.5 -2.5t8.5 -4.5t2 -7v-498q0 -4 -2 -7t-8.5 -4.5t-19.5 -2.5t-35 -1h-5q-24 0 -37.5 1t-20 2.5t-8 4.5t-1.5 7v498q0 4 1.5 7t8 4.5t20 2.5t37.5 1h5zM245 786q23 0 29 -4t0 -12l-130 -163q-5 -6 -13.5 -8.5t-27.5 -2.5h-38q-17 0 -23 3t-1 12
l106 163q4 7 13 9.5t37 2.5h48z" />
    <glyph glyph-name="icircumflex" unicode="&#xee;" horiz-adv-x="277" 
d="M142 528q22 0 35 -1t19.5 -2.5t8.5 -4.5t2 -7v-498q0 -4 -2 -7t-8.5 -4.5t-19.5 -2.5t-35 -1h-5q-24 0 -37.5 1t-20 2.5t-8 4.5t-1.5 7v498q0 4 1.5 7t8 4.5t20 2.5t37.5 1h5zM71 760q9 10 21.5 13t40.5 3h14q28 0 40.5 -3t21.5 -13l91 -97q8 -8 4.5 -15t-16.5 -20
l-10 -10q-15 -15 -22 -18.5t-15 3.5l-101 88l-101 -88q-8 -7 -15 -3.5t-22 18.5l-10 10q-13 13 -16.5 20t4.5 15z" />
    <glyph glyph-name="idieresis" unicode="&#xef;" horiz-adv-x="277" 
d="M142 528q22 0 35 -1t19.5 -2.5t8.5 -4.5t2 -7v-498q0 -4 -2 -7t-8.5 -4.5t-19.5 -2.5t-35 -1h-5q-24 0 -37.5 1t-20 2.5t-8 4.5t-1.5 7v498q0 4 1.5 7t8 4.5t20 2.5t37.5 1h5zM-42 679q0 29 20.5 50t52.5 21t52.5 -21t20.5 -50t-20.5 -49t-52.5 -20t-52.5 20t-20.5 49z
M176 679q0 29 19.5 50t51.5 21q33 0 54 -21t21 -50t-21 -49t-54 -20q-32 0 -51.5 20t-19.5 49z" />
    <glyph glyph-name="eth" unicode="&#xf0;" horiz-adv-x="584" 
d="M212 741q14 20 21.5 23.5t18.5 -1.5q85 -42 143 -102l117 32q6 2 9.5 -2.5t9.5 -25.5l4 -14q5 -17 4.5 -23t-6.5 -8l-84 -23q45 -63 67 -135t22 -152q0 -71 -16 -129.5t-49 -101t-82.5 -66t-116.5 -23.5q-55 0 -99 18.5t-74.5 53t-47 82t-16.5 106.5q0 61 18.5 108.5
t50 80t72 49.5t85.5 17q32 0 55.5 -6.5t42.5 -17.5q-20 44 -46 79l-105 -28q-6 -2 -9.5 3t-9.5 25l-4 14q-5 17 -5 23t7 8l69 19q-17 15 -35 27.5t-36 23.5q-7 4 -5.5 14t17.5 33zM392 361q-20 14 -45.5 24.5t-54.5 10.5q-54 0 -84.5 -37.5t-30.5 -111.5q0 -72 28 -107.5
t75 -35.5q62 0 88.5 50t26.5 163q0 21 -3 44z" />
    <glyph glyph-name="ntilde" unicode="&#xf1;" horiz-adv-x="589" 
d="M126 528q37 0 48 -2.5t14 -10.5q2 -7 3.5 -18t3.5 -22q24 28 61.5 45.5t83.5 17.5t81 -14t58 -40q25 -28 36 -66t11 -95v-308q0 -4 -2 -7t-8.5 -4.5t-19.5 -2.5t-35 -1h-5q-24 0 -37.5 1t-20 2.5t-8 4.5t-1.5 7v270q0 26 -1 43.5t-3 29.5t-6 20t-10 15q-10 11 -27.5 17
t-39.5 6q-17 0 -35 -4t-32 -12q-16 -10 -21 -22.5t-7 -30.5q-2 -17 -2 -43v-55v-234q0 -4 -2 -7t-8.5 -4.5t-19.5 -2.5t-35 -1h-5q-24 0 -37.5 1t-20 2.5t-8 4.5t-1.5 7v276q0 59 -2 118.5t-5 100.5q0 5 1 8.5t7 5.5t18.5 3t33.5 1h5zM140 647q-14 14 -18 21.5t2 15.5
q23 28 51.5 47.5t63.5 19.5q19 0 36 -6q16 -7 30 -13l25 -12q12 -6 24 -6q15 0 29 8t30 24q4 4 11 2t25 -20l4 -4q14 -14 18 -21.5t-2 -15.5q-23 -28 -51.5 -47.5t-63.5 -19.5q-19 0 -35 6t-30 12l-26 13q-12 6 -24 6q-15 0 -29 -8t-30 -24q-4 -4 -11 -2t-25 20z" />
    <glyph glyph-name="ograve" unicode="&#xf2;" horiz-adv-x="571" 
d="M294 538q112 0 176 -66.5t64 -197.5q0 -137 -65.5 -210.5t-191.5 -73.5q-112 0 -176 66.5t-64 197.5q0 137 65.5 210.5t191.5 73.5zM291 420q-60 0 -86.5 -42.5t-26.5 -117.5q0 -73 24.5 -112.5t77.5 -39.5q60 0 86.5 42.5t26.5 117.5q0 73 -24.5 112.5t-77.5 39.5z
M229 786q28 0 37 -2.5t13 -9.5l106 -163q5 -9 -1 -12t-23 -3h-38q-19 0 -27.5 2.5t-13.5 8.5l-130 163q-6 8 0 12t29 4h48z" />
    <glyph glyph-name="oacute" unicode="&#xf3;" horiz-adv-x="571" 
d="M294 538q112 0 176 -66.5t64 -197.5q0 -137 -65.5 -210.5t-191.5 -73.5q-112 0 -176 66.5t-64 197.5q0 137 65.5 210.5t191.5 73.5zM291 420q-60 0 -86.5 -42.5t-26.5 -117.5q0 -73 24.5 -112.5t77.5 -39.5q60 0 86.5 42.5t26.5 117.5q0 73 -24.5 112.5t-77.5 39.5z
M389 786q23 0 29 -4t0 -12l-130 -163q-5 -6 -13.5 -8.5t-27.5 -2.5h-38q-17 0 -23 3t-1 12l106 163q4 7 13 9.5t37 2.5h48z" />
    <glyph glyph-name="ocircumflex" unicode="&#xf4;" horiz-adv-x="571" 
d="M294 538q112 0 176 -66.5t64 -197.5q0 -137 -65.5 -210.5t-191.5 -73.5q-112 0 -176 66.5t-64 197.5q0 137 65.5 210.5t191.5 73.5zM291 420q-60 0 -86.5 -42.5t-26.5 -117.5q0 -73 24.5 -112.5t77.5 -39.5q60 0 86.5 42.5t26.5 117.5q0 73 -24.5 112.5t-77.5 39.5z
M216 760q9 10 21.5 13t40.5 3h14q28 0 40.5 -3t21.5 -13l91 -97q8 -8 4.5 -15t-16.5 -20l-10 -10q-15 -15 -22 -18.5t-15 3.5l-101 88l-101 -88q-8 -7 -15 -3.5t-22 18.5l-10 10q-13 13 -16.5 20t4.5 15z" />
    <glyph glyph-name="otilde" unicode="&#xf5;" horiz-adv-x="571" 
d="M294 538q112 0 176 -66.5t64 -197.5q0 -137 -65.5 -210.5t-191.5 -73.5q-112 0 -176 66.5t-64 197.5q0 137 65.5 210.5t191.5 73.5zM291 420q-60 0 -86.5 -42.5t-26.5 -117.5q0 -73 24.5 -112.5t77.5 -39.5q60 0 86.5 42.5t26.5 117.5q0 73 -24.5 112.5t-77.5 39.5z
M129 647q-14 14 -18 21.5t2 15.5q23 28 51.5 47.5t63.5 19.5q19 0 36 -6q16 -7 30 -13l25 -12q12 -6 24 -6q15 0 29 8t30 24q4 4 11 2t25 -20l4 -4q14 -14 18 -21.5t-2 -15.5q-23 -28 -51.5 -47.5t-63.5 -19.5q-19 0 -35 6t-30 12l-26 13q-12 6 -24 6q-15 0 -29 -8t-30 -24
q-4 -4 -11 -2t-25 20z" />
    <glyph glyph-name="odieresis" unicode="&#xf6;" horiz-adv-x="571" 
d="M294 538q112 0 176 -66.5t64 -197.5q0 -137 -65.5 -210.5t-191.5 -73.5q-112 0 -176 66.5t-64 197.5q0 137 65.5 210.5t191.5 73.5zM291 420q-60 0 -86.5 -42.5t-26.5 -117.5q0 -73 24.5 -112.5t77.5 -39.5q60 0 86.5 42.5t26.5 117.5q0 73 -24.5 112.5t-77.5 39.5z
M103 679q0 29 20.5 50t52.5 21t52.5 -21t20.5 -50t-20.5 -49t-52.5 -20t-52.5 20t-20.5 49zM321 679q0 29 19.5 50t51.5 21q33 0 54 -21t21 -50t-21 -49t-54 -20q-32 0 -51.5 20t-19.5 49z" />
    <glyph glyph-name="divide" unicode="&#xf7;" 
d="M527 405q8 0 11 -8.5t3 -41.5v-14q0 -33 -3 -41.5t-11 -8.5h-465q-8 0 -11 8.5t-3 41.5v14q0 33 3 41.5t11 8.5h465zM207 128q0 35 24 59t61 24q38 0 62 -24t24 -59q0 -34 -24 -58t-62 -24q-37 0 -61 24t-24 58zM207 567q0 35 24 59t61 24q38 0 62 -24t24 -59
q0 -34 -24 -58t-62 -24q-37 0 -61 24t-24 58z" />
    <glyph glyph-name="oslash" unicode="&#xf8;" horiz-adv-x="571" 
d="M404 587q6 11 14 11t35 -13l13 -6q28 -13 33 -19.5t0 -16.5l-36 -66q35 -33 53 -83.5t18 -119.5q0 -137 -65.5 -210.5t-191.5 -73.5q-20 0 -37 2t-34 6l-32 -60q-6 -11 -14 -11t-35 13l-13 6q-26 12 -32 19t-1 17l33 63q-36 33 -55.5 85t-19.5 124q0 137 65.5 210.5
t191.5 73.5q21 0 40.5 -2.5t37.5 -7.5zM312 418q-5 1 -10.5 1.5t-10.5 0.5q-60 0 -86.5 -42.5t-26.5 -117.5q0 -45 9 -76zM266 109q4 -1 14 -1q60 0 86.5 42.5t26.5 117.5q0 38 -7 65z" />
    <glyph glyph-name="ugrave" unicode="&#xf9;" horiz-adv-x="587" 
d="M135 528q22 0 35 -1t19.5 -2.5t8.5 -4.5t2 -7v-270q0 -26 1 -43.5t3 -29.5t6 -20t10 -15q20 -23 66 -23q17 0 34.5 4t31.5 12q16 10 21 22.5t7 30.5q2 17 2 43v55v234q0 4 1.5 7t8 4.5t20 2.5t37.5 1h5q22 0 35 -1t19.5 -2.5t8.5 -4.5t2 -7v-276q0 -59 2 -118.5t5 -100.5
q0 -5 -1 -8.5t-7 -5.5t-18.5 -3t-33.5 -1h-5q-37 0 -48 2.5t-14 10.5q-2 7 -3.5 18t-3.5 22q-24 -29 -61 -46t-83 -17t-80.5 14t-57.5 40q-25 28 -36 66t-11 95v308q0 4 1.5 7t8 4.5t20 2.5t37.5 1h5zM233 786q28 0 37 -2.5t13 -9.5l106 -163q5 -9 -1 -12t-23 -3h-38
q-19 0 -27.5 2.5t-13.5 8.5l-130 163q-6 8 0 12t29 4h48z" />
    <glyph glyph-name="uacute" unicode="&#xfa;" horiz-adv-x="587" 
d="M135 528q22 0 35 -1t19.5 -2.5t8.5 -4.5t2 -7v-270q0 -26 1 -43.5t3 -29.5t6 -20t10 -15q20 -23 66 -23q17 0 34.5 4t31.5 12q16 10 21 22.5t7 30.5q2 17 2 43v55v234q0 4 1.5 7t8 4.5t20 2.5t37.5 1h5q22 0 35 -1t19.5 -2.5t8.5 -4.5t2 -7v-276q0 -59 2 -118.5t5 -100.5
q0 -5 -1 -8.5t-7 -5.5t-18.5 -3t-33.5 -1h-5q-37 0 -48 2.5t-14 10.5q-2 7 -3.5 18t-3.5 22q-24 -29 -61 -46t-83 -17t-80.5 14t-57.5 40q-25 28 -36 66t-11 95v308q0 4 1.5 7t8 4.5t20 2.5t37.5 1h5zM403 786q23 0 29 -4t0 -12l-130 -163q-5 -6 -13.5 -8.5t-27.5 -2.5h-38
q-17 0 -23 3t-1 12l106 163q4 7 13 9.5t37 2.5h48z" />
    <glyph glyph-name="ucircumflex" unicode="&#xfb;" horiz-adv-x="587" 
d="M135 528q22 0 35 -1t19.5 -2.5t8.5 -4.5t2 -7v-270q0 -26 1 -43.5t3 -29.5t6 -20t10 -15q20 -23 66 -23q17 0 34.5 4t31.5 12q16 10 21 22.5t7 30.5q2 17 2 43v55v234q0 4 1.5 7t8 4.5t20 2.5t37.5 1h5q22 0 35 -1t19.5 -2.5t8.5 -4.5t2 -7v-276q0 -59 2 -118.5t5 -100.5
q0 -5 -1 -8.5t-7 -5.5t-18.5 -3t-33.5 -1h-5q-37 0 -48 2.5t-14 10.5q-2 7 -3.5 18t-3.5 22q-24 -29 -61 -46t-83 -17t-80.5 14t-57.5 40q-25 28 -36 66t-11 95v308q0 4 1.5 7t8 4.5t20 2.5t37.5 1h5zM224 760q9 10 21.5 13t40.5 3h14q28 0 40.5 -3t21.5 -13l91 -97
q8 -8 4.5 -15t-16.5 -20l-10 -10q-15 -15 -22 -18.5t-15 3.5l-101 88l-101 -88q-8 -7 -15 -3.5t-22 18.5l-10 10q-13 13 -16.5 20t4.5 15z" />
    <glyph glyph-name="udieresis" unicode="&#xfc;" horiz-adv-x="587" 
d="M135 528q22 0 35 -1t19.5 -2.5t8.5 -4.5t2 -7v-270q0 -26 1 -43.5t3 -29.5t6 -20t10 -15q20 -23 66 -23q17 0 34.5 4t31.5 12q16 10 21 22.5t7 30.5q2 17 2 43v55v234q0 4 1.5 7t8 4.5t20 2.5t37.5 1h5q22 0 35 -1t19.5 -2.5t8.5 -4.5t2 -7v-276q0 -59 2 -118.5t5 -100.5
q0 -5 -1 -8.5t-7 -5.5t-18.5 -3t-33.5 -1h-5q-37 0 -48 2.5t-14 10.5q-2 7 -3.5 18t-3.5 22q-24 -29 -61 -46t-83 -17t-80.5 14t-57.5 40q-25 28 -36 66t-11 95v308q0 4 1.5 7t8 4.5t20 2.5t37.5 1h5zM111 679q0 29 20.5 50t52.5 21t52.5 -21t20.5 -50t-20.5 -49t-52.5 -20
t-52.5 20t-20.5 49zM329 679q0 29 19.5 50t51.5 21q33 0 54 -21t21 -50t-21 -49t-54 -20q-32 0 -51.5 20t-19.5 49z" />
    <glyph glyph-name="yacute" unicode="&#xfd;" horiz-adv-x="532" 
d="M100 528q22 0 35 -1t19.5 -2.5t9 -4.5t4.5 -7l62 -196q16 -51 27 -95t18 -85q8 39 19 84.5t25 93.5l58 198q1 4 4 7t9.5 4.5t18 2.5t31.5 1h13q23 0 36 -1t19 -3q7 -3 7 -9q0 -2 -1 -5l-171 -501q-22 -64 -46 -109.5t-53.5 -75t-67 -43.5t-86.5 -14q-32 0 -62 7t-46 18
q-6 4 -6 11.5t8 35.5l4 14q8 26 13.5 34t16.5 4q12 -4 30 -7t32 -3q20 0 37 5t32 18t28.5 35.5t26.5 57.5l-180 513q-2 4 -1 7.5t7.5 6t19.5 3.5t37 1h13zM395 786q23 0 29 -4t0 -12l-130 -163q-5 -6 -13.5 -8.5t-27.5 -2.5h-38q-17 0 -23 3t-1 12l106 163q4 7 13 9.5
t37 2.5h48z" />
    <glyph glyph-name="thorn" unicode="&#xfe;" horiz-adv-x="579" 
d="M138 760q22 0 35 -1t19.5 -2.5t8.5 -4.5t2 -7v-259q25 24 58.5 38t73.5 14q47 0 85 -18.5t65 -53t42 -84t15 -110.5q0 -66 -16 -118.5t-45.5 -89t-70 -55.5t-89.5 -19q-34 0 -64.5 10t-53.5 29v-237q0 -4 -2 -7t-8.5 -4.5t-19.5 -2.5t-35 -1h-5q-24 0 -37.5 1t-20 2.5
t-8 4.5t-1.5 7v953q0 4 1.5 7t8 4.5t20 2.5t37.5 1h5zM203 145q18 -19 41.5 -28.5t47.5 -9.5q55 0 82 42.5t27 122.5q0 45 -9 74t-24 46q-14 16 -34 22.5t-41 6.5t-43 -7t-33 -19q-8 -9 -11 -21.5t-3 -32.5v-196z" />
    <glyph glyph-name="ydieresis" unicode="&#xff;" horiz-adv-x="530" 
d="M99 528q22 0 35 -1t19.5 -2.5t9 -4.5t4.5 -7l62 -196q16 -51 27 -95t18 -85q8 39 19 84.5t25 93.5l58 198q1 4 4 7t9.5 4.5t18 2.5t31.5 1h13q23 0 36 -1t19 -3q7 -3 7 -9q0 -2 -1 -5l-171 -501q-22 -64 -46 -109.5t-53.5 -75t-67 -43.5t-86.5 -14q-32 0 -62 7t-46 18
q-6 4 -6 11.5t8 35.5l4 14q8 26 13.5 34t16.5 4q12 -4 30 -7t32 -3q20 0 37 5t32 18t28.5 35.5t26.5 57.5l-180 513q-2 4 -1 7.5t7.5 6t19.5 3.5t37 1h13zM83 679q0 29 20.5 50t52.5 21t52.5 -21t20.5 -50t-20.5 -49t-52.5 -20t-52.5 20t-20.5 49zM301 679q0 29 19.5 50
t51.5 21q33 0 54 -21t21 -50t-21 -49t-54 -20q-32 0 -51.5 20t-19.5 49z" />
    <glyph glyph-name="Amacron" unicode="&#x100;" horiz-adv-x="660" 
d="M332 720q21 0 33.5 -0.5t19.5 -2.5t10 -5t5 -8l247 -686q1 -3 1 -5q0 -6 -8 -9q-11 -4 -55 -4h-12q-22 0 -36 1t-22.5 3t-12.5 5t-5 8l-57 166h-230l-55 -166q-3 -9 -16.5 -13t-56.5 -4h-10q-44 0 -54 3q-7 2 -7 8q0 3 1 6l244 687q1 4 3.5 7t9.5 5t19.5 3t34.5 1h9z
M247 293h156l-11 35l-23 73l-18 57l-14 46q-6 21 -11 41l-28 -93q-16 -54 -40 -126zM465 924q8 0 10.5 -9t2.5 -32v-14q0 -23 -2.5 -32t-10.5 -9h-270q-8 0 -10.5 9t-2.5 32v14q0 23 2.5 32t10.5 9h270z" />
    <glyph glyph-name="amacron" unicode="&#x101;" horiz-adv-x="577" 
d="M388 515q0 3 2 5.5t8 4t17.5 2.5t31.5 1h6q38 0 48 -3t10 -11q0 -12 -0.5 -36t-0.5 -53.5t-0.5 -62.5t-0.5 -64v-61q0 -59 2 -118.5t5 -100.5q0 -5 -0.5 -8.5t-6 -5.5t-17.5 -3t-33 -1h-5q-37 0 -47.5 2.5t-13.5 10.5q-2 5 -3.5 15t-3.5 19q-23 -26 -61 -41.5t-76 -15.5
q-49 0 -88.5 18t-67 52.5t-42 83t-14.5 110.5q0 68 17.5 121t48 89t70.5 55t85 19q41 0 75 -17t51 -42zM372 371q-14 22 -37.5 35t-49.5 13q-55 0 -81 -41.5t-26 -119.5q0 -33 5 -61.5t17 -48.5t32.5 -31.5t50.5 -11.5q24 0 44 8t31 22q8 11 11 24.5t3 31.5v180zM433 735
q8 0 10.5 -9t2.5 -32v-14q0 -23 -2.5 -32t-10.5 -9h-270q-8 0 -10.5 9t-2.5 32v14q0 23 2.5 32t10.5 9h270z" />
    <glyph glyph-name="Abreve" unicode="&#x102;" horiz-adv-x="660" 
d="M332 720q21 0 33.5 -0.5t19.5 -2.5t10 -5t5 -8l247 -686q1 -3 1 -5q0 -6 -8 -9q-11 -4 -55 -4h-12q-22 0 -36 1t-22.5 3t-12.5 5t-5 8l-57 166h-230l-55 -166q-3 -9 -16.5 -13t-56.5 -4h-10q-44 0 -54 3q-7 2 -7 8q0 3 1 6l244 687q1 4 3.5 7t9.5 5t19.5 3t34.5 1h9z
M247 293h156l-11 35l-23 73l-18 57l-14 46q-6 21 -11 41l-28 -93q-16 -54 -40 -126zM233 952q23 0 29.5 -3t7.5 -9q10 -57 60 -57q49 0 60 57q1 6 7.5 9t29.5 3h15q26 0 34.5 -2t8.5 -12q-4 -68 -44.5 -104.5t-110.5 -36.5t-110.5 36.5t-44.5 104.5q0 10 8.5 12t34.5 2h15z
" />
    <glyph glyph-name="abreve" unicode="&#x103;" horiz-adv-x="577" 
d="M388 515q0 3 2 5.5t8 4t17.5 2.5t31.5 1h6q38 0 48 -3t10 -11q0 -12 -0.5 -36t-0.5 -53.5t-0.5 -62.5t-0.5 -64v-61q0 -59 2 -118.5t5 -100.5q0 -5 -0.5 -8.5t-6 -5.5t-17.5 -3t-33 -1h-5q-37 0 -47.5 2.5t-13.5 10.5q-2 5 -3.5 15t-3.5 19q-23 -26 -61 -41.5t-76 -15.5
q-49 0 -88.5 18t-67 52.5t-42 83t-14.5 110.5q0 68 17.5 121t48 89t70.5 55t85 19q41 0 75 -17t51 -42zM372 371q-14 22 -37.5 35t-49.5 13q-55 0 -81 -41.5t-26 -119.5q0 -33 5 -61.5t17 -48.5t32.5 -31.5t50.5 -11.5q24 0 44 8t31 22q8 11 11 24.5t3 31.5v180zM191 762
q23 0 29.5 -3t7.5 -9q10 -57 60 -57q49 0 60 57q1 6 7.5 9t29.5 3h15q26 0 34.5 -2t8.5 -12q-4 -68 -44.5 -104.5t-110.5 -36.5t-110.5 36.5t-44.5 104.5q0 10 8.5 12t34.5 2h15z" />
    <glyph glyph-name="Aogonek" unicode="&#x104;" horiz-adv-x="660" 
d="M332 720q21 0 33.5 -0.5t19.5 -2.5t10 -5t5 -8l247 -686q2 -7 0.5 -10t-10.5 -5q-32 -8 -57 -24t-40 -37q-10 -14 -14 -27.5t-4 -27.5q0 -19 11.5 -28.5t30.5 -9.5q10 0 22 3t20 7q6 3 10 -2t12 -25l4 -12q6 -19 6 -26.5t-8 -12.5q-17 -10 -41 -15.5t-43 -5.5
q-54 0 -89.5 30t-35.5 87q0 36 23.5 70.5t57.5 55.5l-62 180h-230l-55 -166q-3 -9 -16.5 -13t-56.5 -4h-10q-44 0 -54 3t-6 14l244 687q1 4 3.5 7t9.5 5t19.5 3t34.5 1h9zM247 293h156l-11 35l-23 73l-18 57l-14 46q-6 20 -11 41l-28 -93q-16 -54 -40 -126z" />
    <glyph glyph-name="aogonek" unicode="&#x105;" horiz-adv-x="577" 
d="M290 -123q0 42 24 75.5t77 64.5q-2 5 -3 13l-2 17q-23 -26 -61 -41.5t-76 -15.5q-49 0 -88.5 18t-67 52.5t-42 83t-14.5 110.5q0 68 17.5 121t48 89t70.5 55t85 19q41 0 75 -17t51 -42l4 36q0 3 2 5.5t8 4t17.5 2.5t31.5 1h6q38 0 48 -3t10 -11q0 -12 -0.5 -36
t-0.5 -53.5t-0.5 -62.5t-0.5 -64v-61q0 -59 1.5 -117.5t5.5 -101.5q1 -7 -1 -10t-10 -5q-23 -5 -43.5 -15t-36.5 -24.5t-25 -32t-9 -37.5q0 -23 11.5 -34t30.5 -11q9 0 20 2.5t20 5.5q8 2 12.5 -1.5t11.5 -23.5l4 -12q6 -19 6 -26.5t-8 -12.5q-17 -9 -40 -15t-43 -6
q-58 0 -92 32t-34 85zM372 371q-14 22 -37.5 35t-49.5 13q-55 0 -81 -41.5t-26 -119.5q0 -33 5 -61.5t17 -48.5t32.5 -31.5t50.5 -11.5q24 0 44 8t31 22q8 11 11 24.5t3 31.5v180z" />
    <glyph glyph-name="Cacute" unicode="&#x106;" horiz-adv-x="586" 
d="M527 594q-14 -24 -20 -30.5t-15 -0.5q-35 23 -64 34t-66 11q-84 0 -130.5 -63.5t-46.5 -187.5q0 -116 43.5 -180t134.5 -64q33 0 68 9t67 26q11 6 17 0.5t17 -29.5l11 -24q12 -27 12 -35t-12 -15q-18 -11 -42 -21t-50.5 -17.5t-54.5 -12t-55 -4.5q-73 0 -129.5 25
t-95.5 72t-59.5 114.5t-20.5 151.5t21.5 153.5t62 119t99 77t132.5 27.5q112 0 192 -60q12 -9 12 -17t-15 -36zM442 978q23 0 29 -4t0 -12l-130 -163q-5 -6 -13.5 -8.5t-27.5 -2.5h-38q-17 0 -23 3t-1 12l106 163q4 7 13 9.5t37 2.5h48z" />
    <glyph glyph-name="cacute" unicode="&#x107;" horiz-adv-x="499" 
d="M450 410q-14 -27 -21.5 -31t-14.5 1q-27 19 -53 29t-58 10q-26 0 -48.5 -8.5t-39.5 -27t-27 -47.5t-10 -69q0 -76 32.5 -117t98.5 -41q31 0 56.5 7.5t54.5 21.5q9 5 14 -1.5t18 -35.5l6 -14q11 -26 11.5 -34t-6.5 -13q-31 -21 -75.5 -35.5t-96.5 -14.5q-110 0 -175 60
q-38 35 -58.5 88.5t-20.5 121.5q0 65 19 117.5t54 89.5q33 34 79.5 52.5t108.5 18.5q48 0 92 -15.5t78 -43.5q7 -6 7 -13q0 -9 -15 -37zM398 786q23 0 29 -4t0 -12l-130 -163q-5 -6 -13.5 -8.5t-27.5 -2.5h-38q-17 0 -23 3t-1 12l106 163q4 7 13 9.5t37 2.5h48z" />
    <glyph glyph-name="Ccircumflex" unicode="&#x108;" horiz-adv-x="586" 
d="M527 594q-14 -24 -20 -30.5t-15 -0.5q-35 23 -64 34t-66 11q-84 0 -130.5 -63.5t-46.5 -187.5q0 -116 43.5 -180t134.5 -64q33 0 68 9t67 26q11 6 17 0.5t17 -29.5l11 -24q12 -27 12 -35t-12 -15q-18 -11 -42 -21t-50.5 -17.5t-54.5 -12t-55 -4.5q-73 0 -129.5 25
t-95.5 72t-59.5 114.5t-20.5 151.5t21.5 153.5t62 119t99 77t132.5 27.5q112 0 192 -60q12 -9 12 -17t-15 -36zM284 952q9 10 21.5 13t40.5 3h14q28 0 40.5 -3t21.5 -13l91 -97q8 -8 4.5 -15t-16.5 -20l-10 -10q-15 -15 -22 -18.5t-15 3.5l-101 88l-101 -88q-8 -7 -15 -3.5
t-22 18.5l-10 10q-13 13 -16.5 20t4.5 15z" />
    <glyph glyph-name="ccircumflex" unicode="&#x109;" horiz-adv-x="499" 
d="M450 410q-14 -27 -21.5 -31t-14.5 1q-27 19 -53 29t-58 10q-26 0 -48.5 -8.5t-39.5 -27t-27 -47.5t-10 -69q0 -76 32.5 -117t98.5 -41q31 0 56.5 7.5t54.5 21.5q9 5 14 -1.5t18 -35.5l6 -14q11 -26 11.5 -34t-6.5 -13q-31 -21 -75.5 -35.5t-96.5 -14.5q-110 0 -175 60
q-38 35 -58.5 88.5t-20.5 121.5q0 65 19 117.5t54 89.5q33 34 79.5 52.5t108.5 18.5q48 0 92 -15.5t78 -43.5q7 -6 7 -13q0 -9 -15 -37zM230 760q9 10 21.5 13t40.5 3h14q28 0 40.5 -3t21.5 -13l91 -97q8 -8 4.5 -15t-16.5 -20l-10 -10q-15 -15 -22 -18.5t-15 3.5l-101 88
l-101 -88q-8 -7 -15 -3.5t-22 18.5l-10 10q-13 13 -16.5 20t4.5 15z" />
    <glyph glyph-name="Cdotaccent" unicode="&#x10a;" horiz-adv-x="586" 
d="M527 594q-14 -24 -20 -30.5t-15 -0.5q-35 23 -64 34t-66 11q-84 0 -130.5 -63.5t-46.5 -187.5q0 -116 43.5 -180t134.5 -64q33 0 68 9t67 26q11 6 17 0.5t17 -29.5l11 -24q12 -27 12 -35t-12 -15q-18 -11 -42 -21t-50.5 -17.5t-54.5 -12t-55 -4.5q-73 0 -129.5 25
t-95.5 72t-59.5 114.5t-20.5 151.5t21.5 153.5t62 119t99 77t132.5 27.5q112 0 192 -60q12 -9 12 -17t-15 -36zM280 880q0 30 22 51t52 21t51 -21t21 -51t-21 -51.5t-51 -21.5t-52 21.5t-22 51.5z" />
    <glyph glyph-name="cdotaccent" unicode="&#x10b;" horiz-adv-x="499" 
d="M450 410q-14 -27 -21.5 -31t-14.5 1q-27 19 -53 29t-58 10q-26 0 -48.5 -8.5t-39.5 -27t-27 -47.5t-10 -69q0 -76 32.5 -117t98.5 -41q31 0 56.5 7.5t54.5 21.5q9 5 14 -1.5t18 -35.5l6 -14q11 -26 11.5 -34t-6.5 -13q-31 -21 -75.5 -35.5t-96.5 -14.5q-110 0 -175 60
q-38 35 -58.5 88.5t-20.5 121.5q0 65 19 117.5t54 89.5q33 34 79.5 52.5t108.5 18.5q48 0 92 -15.5t78 -43.5q7 -6 7 -13q0 -9 -15 -37zM226 692q0 30 22 51t52 21t51 -21t21 -51t-21 -51.5t-51 -21.5t-52 21.5t-22 51.5z" />
    <glyph glyph-name="Ccaron" unicode="&#x10c;" horiz-adv-x="586" 
d="M527 594q-14 -24 -20 -30.5t-15 -0.5q-35 23 -64 34t-66 11q-84 0 -130.5 -63.5t-46.5 -187.5q0 -116 43.5 -180t134.5 -64q33 0 68 9t67 26q11 6 17 0.5t17 -29.5l11 -24q12 -27 12 -35t-12 -15q-18 -11 -42 -21t-50.5 -17.5t-54.5 -12t-55 -4.5q-73 0 -129.5 25
t-95.5 72t-59.5 114.5t-20.5 151.5t21.5 153.5t62 119t99 77t132.5 27.5q112 0 192 -60q12 -9 12 -17t-15 -36zM215 948q15 15 22 18.5t15 -3.5l101 -88l101 88q8 7 15 3.5t22 -18.5l10 -10q13 -13 16 -20t-4 -15l-91 -97q-9 -10 -21.5 -13t-40.5 -3h-14q-28 0 -40.5 3
t-21.5 13l-91 97q-8 8 -4.5 15t16.5 20z" />
    <glyph glyph-name="ccaron" unicode="&#x10d;" horiz-adv-x="499" 
d="M450 410q-14 -27 -21.5 -31t-14.5 1q-27 19 -53 29t-58 10q-26 0 -48.5 -8.5t-39.5 -27t-27 -47.5t-10 -69q0 -76 32.5 -117t98.5 -41q31 0 56.5 7.5t54.5 21.5q9 5 14 -1.5t18 -35.5l6 -14q11 -26 11.5 -34t-6.5 -13q-31 -21 -75.5 -35.5t-96.5 -14.5q-110 0 -175 60
q-38 35 -58.5 88.5t-20.5 121.5q0 65 19 117.5t54 89.5q33 34 79.5 52.5t108.5 18.5q48 0 92 -15.5t78 -43.5q7 -6 7 -13q0 -9 -15 -37zM161 756q15 15 22 18.5t15 -3.5l101 -88l101 88q8 7 15 3.5t22 -18.5l10 -10q13 -13 16 -20t-4 -15l-91 -97q-9 -10 -21.5 -13t-40.5 -3
h-14q-28 0 -40.5 3t-21.5 13l-91 97q-8 8 -4.5 15t16.5 20z" />
    <glyph glyph-name="Dcaron" unicode="&#x10e;" horiz-adv-x="671" 
d="M218 116h52q44 0 85 9.5t70 36.5q31 29 46.5 80.5t15.5 118.5q0 61 -12 107t-35 73q-27 32 -66.5 47.5t-99.5 15.5h-56v-488zM268 720q97 0 164.5 -21.5t111.5 -67.5q42 -43 66.5 -111.5t24.5 -156.5q0 -91 -25.5 -163.5t-79.5 -123.5q-46 -44 -109.5 -60t-147.5 -16
h-155q-29 0 -37 2.5t-8 12.5v690q0 10 8 12.5t37 2.5h150zM197 948q15 15 22 18.5t15 -3.5l101 -88l101 88q8 7 15 3.5t22 -18.5l10 -10q13 -13 16 -20t-4 -15l-91 -97q-9 -10 -21.5 -13t-40.5 -3h-14q-28 0 -40.5 3t-21.5 13l-91 97q-8 8 -4.5 15t16.5 20z" />
    <glyph glyph-name="dcaron" unicode="&#x10f;" horiz-adv-x="680" 
d="M448 760q22 0 35 -1t19.5 -2.5t8.5 -4.5t2 -7v-611q0 -17 7 -22.5t22 -5.5q9 0 11 -7t2 -34v-11q0 -26 -2 -35t-7 -11q-14 -5 -33 -8.5t-39 -3.5q-33 0 -55 13.5t-32 36.5q-26 -27 -61.5 -41.5t-77.5 -14.5q-49 0 -88 18.5t-66.5 53t-42 83.5t-14.5 111q0 66 16 118.5
t45 89t69.5 55.5t89.5 19q68 0 119 -45v252q0 4 1.5 7t8 4.5t20 2.5t37.5 1h5zM376 374q-38 46 -90 46q-55 0 -81.5 -42t-26.5 -122q0 -45 9.5 -74t24.5 -46q14 -16 34 -22.5t41 -6.5t42.5 7t32.5 19q8 9 11 21.5t3 32.5v187zM557 490q-11 9 -2 19q27 34 34 56.5t7 35.5
q0 11 -5 19t-11.5 16t-11.5 17t-5 23q0 21 16.5 37.5t44.5 16.5q29 0 47.5 -21.5t18.5 -54.5q0 -46 -25 -92t-71 -86q-10 -9 -21 0z" />
    <glyph glyph-name="Dcroat" unicode="&#x110;" horiz-adv-x="683" 
d="M280 720q97 0 164.5 -21.5t111.5 -67.5q42 -43 66.5 -111.5t24.5 -156.5q0 -91 -25.5 -163.5t-79.5 -123.5q-46 -44 -109.5 -60t-147.5 -16h-155q-29 0 -37 2.5t-8 12.5v294h-65q-8 0 -11 8.5t-3 41.5v10q0 33 3 41.5t11 8.5h65v286q0 10 8 12.5t37 2.5h150zM230 419h96
q8 0 11 -8.5t3 -41.5v-10q0 -33 -3 -41.5t-11 -8.5h-96v-193h52q44 0 85 9.5t70 36.5q31 29 46.5 80.5t15.5 118.5q0 61 -12 107t-35 73q-27 32 -66.5 47.5t-99.5 15.5h-56v-185z" />
    <glyph glyph-name="dcroat" unicode="&#x111;" horiz-adv-x="591" 
d="M376 695v50q0 4 1.5 7t8 4.5t20 2.5t37.5 1h5q22 0 35 -1t19.5 -2.5t8.5 -4.5t2 -7v-50h60q8 0 11 -8t3 -41t-3 -41t-11 -8h-60v-463q0 -17 7 -22.5t22 -5.5q9 0 11 -7t2 -34v-11q0 -26 -2 -35t-7 -11q-14 -5 -33 -8.5t-39 -3.5q-33 0 -55 13.5t-32 36.5
q-26 -27 -61.5 -41.5t-77.5 -14.5q-49 0 -88 18.5t-66.5 53t-42 83.5t-14.5 111q0 66 16 118.5t45 89t69.5 55.5t89.5 19q68 0 119 -45v104h-130q-8 0 -11 8t-3 41t3 41t11 8h130zM376 374q-38 46 -90 46q-55 0 -81.5 -42t-26.5 -122q0 -45 9.5 -74t24.5 -46
q14 -16 34 -22.5t41 -6.5t42.5 7t32.5 19q8 9 11 21.5t3 32.5v187z" />
    <glyph glyph-name="Emacron" unicode="&#x112;" horiz-adv-x="565" 
d="M493 720q5 0 8.5 -1t5.5 -6.5t2.5 -16t0.5 -29.5v-8q0 -37 -3.5 -46t-13.5 -9h-275v-182h233q5 0 8.5 -1t5.5 -6.5t2.5 -16t0.5 -29.5v-8q0 -37 -3.5 -46t-13.5 -9h-233v-190h279q5 0 8.5 -1t5.5 -6.5t2.5 -16t0.5 -29.5v-8q0 -37 -3.5 -46t-13.5 -9h-379q-29 0 -37 2.5
t-8 12.5v690q0 10 8 12.5t37 2.5h375zM432 924q8 0 10.5 -9t2.5 -32v-14q0 -23 -2.5 -32t-10.5 -9h-270q-8 0 -10.5 9t-2.5 32v14q0 23 2.5 32t10.5 9h270z" />
    <glyph glyph-name="emacron" unicode="&#x113;" horiz-adv-x="557" 
d="M180 217q8 -54 41.5 -82t90.5 -28q37 0 72 9t69 23q8 4 13.5 -1t13.5 -28l9 -25q9 -25 9 -33.5t-10 -13.5q-38 -21 -89.5 -34.5t-104.5 -13.5q-59 0 -106.5 18t-81 52.5t-51.5 84t-18 113.5q0 61 17 112.5t48.5 89t77.5 58t103 20.5t100 -20t72.5 -56t44 -85.5
t14.5 -107.5q0 -29 -2 -40.5t-8 -11.5h-324zM377 315q-5 47 -28 77.5t-65 30.5t-68 -28.5t-36 -79.5h197zM420 735q8 0 10.5 -9t2.5 -32v-14q0 -23 -2.5 -32t-10.5 -9h-270q-8 0 -10.5 9t-2.5 32v14q0 23 2.5 32t10.5 9h270z" />
    <glyph glyph-name="Ebreve" unicode="&#x114;" horiz-adv-x="565" 
d="M493 720q5 0 8.5 -1t5.5 -6.5t2.5 -16t0.5 -29.5v-8q0 -37 -3.5 -46t-13.5 -9h-275v-182h233q5 0 8.5 -1t5.5 -6.5t2.5 -16t0.5 -29.5v-8q0 -37 -3.5 -46t-13.5 -9h-233v-190h279q5 0 8.5 -1t5.5 -6.5t2.5 -16t0.5 -29.5v-8q0 -37 -3.5 -46t-13.5 -9h-379q-29 0 -37 2.5
t-8 12.5v690q0 10 8 12.5t37 2.5h375zM205 952q23 0 29.5 -3t7.5 -9q10 -57 60 -57q49 0 60 57q1 6 7.5 9t29.5 3h15q26 0 34.5 -2t8.5 -12q-4 -68 -44.5 -104.5t-110.5 -36.5t-110.5 36.5t-44.5 104.5q0 10 8.5 12t34.5 2h15z" />
    <glyph glyph-name="ebreve" unicode="&#x115;" horiz-adv-x="557" 
d="M180 217q8 -54 41.5 -82t90.5 -28q37 0 72 9t69 23q8 4 13.5 -1t13.5 -28l9 -25q9 -25 9 -33.5t-10 -13.5q-38 -21 -89.5 -34.5t-104.5 -13.5q-59 0 -106.5 18t-81 52.5t-51.5 84t-18 113.5q0 61 17 112.5t48.5 89t77.5 58t103 20.5t100 -20t72.5 -56t44 -85.5
t14.5 -107.5q0 -29 -2 -40.5t-8 -11.5h-324zM377 315q-5 47 -28 77.5t-65 30.5t-68 -28.5t-36 -79.5h197zM188 762q23 0 29.5 -3t7.5 -9q10 -57 60 -57q49 0 60 57q1 6 7.5 9t29.5 3h15q26 0 34.5 -2t8.5 -12q-4 -68 -44.5 -104.5t-110.5 -36.5t-110.5 36.5t-44.5 104.5
q0 10 8.5 12t34.5 2h15z" />
    <glyph glyph-name="Edotaccent" unicode="&#x116;" horiz-adv-x="565" 
d="M493 720q5 0 8.5 -1t5.5 -6.5t2.5 -16t0.5 -29.5v-8q0 -37 -3.5 -46t-13.5 -9h-275v-182h233q5 0 8.5 -1t5.5 -6.5t2.5 -16t0.5 -29.5v-8q0 -37 -3.5 -46t-13.5 -9h-233v-190h279q5 0 8.5 -1t5.5 -6.5t2.5 -16t0.5 -29.5v-8q0 -37 -3.5 -46t-13.5 -9h-379q-29 0 -37 2.5
t-8 12.5v690q0 10 8 12.5t37 2.5h375zM229 880q0 30 22 51t52 21t51 -21t21 -51t-21 -51.5t-51 -21.5t-52 21.5t-22 51.5z" />
    <glyph glyph-name="edotaccent" unicode="&#x117;" horiz-adv-x="557" 
d="M180 217q8 -54 41.5 -82t90.5 -28q37 0 72 9t69 23q8 4 13.5 -1t13.5 -28l9 -25q9 -25 9 -33.5t-10 -13.5q-38 -21 -89.5 -34.5t-104.5 -13.5q-59 0 -106.5 18t-81 52.5t-51.5 84t-18 113.5q0 61 17 112.5t48.5 89t77.5 58t103 20.5t100 -20t72.5 -56t44 -85.5
t14.5 -107.5q0 -29 -2 -40.5t-8 -11.5h-324zM377 315q-5 47 -28 77.5t-65 30.5t-68 -28.5t-36 -79.5h197zM212 692q0 30 22 51t52 21t51 -21t21 -51t-21 -51.5t-51 -21.5t-52 21.5t-22 51.5z" />
    <glyph glyph-name="Eogonek" unicode="&#x118;" horiz-adv-x="565" 
d="M493 720q5 0 8.5 -1t5.5 -6.5t2.5 -16t0.5 -29.5v-8q0 -37 -3.5 -46t-13.5 -9h-275v-182h233q5 0 8.5 -1t5.5 -6.5t2.5 -16t0.5 -29.5v-8q0 -37 -3.5 -46t-13.5 -9h-233v-190h279q5 0 8.5 -1t5.5 -6.5t2.5 -16t0.5 -29.5v-8q0 -17 -0.5 -27.5t-2.5 -16t-5.5 -8t-8.5 -3.5
q-21 -5 -41 -14.5t-35 -23t-24 -30.5t-9 -37q0 -46 43 -46q10 0 21.5 3t19.5 7q6 3 10 -2t12 -25l4 -12q6 -19 6 -26.5t-8 -12.5q-17 -10 -41 -15.5t-43 -5.5q-54 0 -89.5 30t-35.5 87q0 37 22.5 70t57.5 53h-249q-29 0 -37 2.5t-8 12.5v690q0 10 8 12.5t37 2.5h375z" />
    <glyph glyph-name="eogonek" unicode="&#x119;" horiz-adv-x="557" 
d="M180 217q8 -54 41.5 -82t90.5 -28q37 0 72 9t69 23q9 4 14 -1.5t13 -27.5l9 -25q10 -26 9.5 -34t-10.5 -13q-59 -32 -94 -67t-35 -75q0 -21 12 -34t32 -13q9 0 19 2.5t20 6.5q8 3 12 -1.5t11 -24.5l4 -12q6 -19 6 -26.5t-8 -12.5q-17 -10 -40.5 -15.5t-43.5 -5.5
q-54 0 -89.5 30t-35.5 87q0 32 15 61t41 52h-20q-59 0 -106.5 18t-81 52.5t-51.5 84t-18 113.5q0 61 17 112.5t48.5 89t77.5 58t103 20.5t100 -20t72.5 -56t44 -85.5t14.5 -107.5q0 -29 -2 -40.5t-8 -11.5h-324zM377 315q-5 47 -28 77.5t-65 30.5t-68 -28.5t-36 -79.5h197z
" />
    <glyph glyph-name="Ecaron" unicode="&#x11a;" horiz-adv-x="565" 
d="M493 720q5 0 8.5 -1t5.5 -6.5t2.5 -16t0.5 -29.5v-8q0 -37 -3.5 -46t-13.5 -9h-275v-182h233q5 0 8.5 -1t5.5 -6.5t2.5 -16t0.5 -29.5v-8q0 -37 -3.5 -46t-13.5 -9h-233v-190h279q5 0 8.5 -1t5.5 -6.5t2.5 -16t0.5 -29.5v-8q0 -37 -3.5 -46t-13.5 -9h-379q-29 0 -37 2.5
t-8 12.5v690q0 10 8 12.5t37 2.5h375zM164 948q15 15 22 18.5t15 -3.5l101 -88l101 88q8 7 15 3.5t22 -18.5l10 -10q13 -13 16 -20t-4 -15l-91 -97q-9 -10 -21.5 -13t-40.5 -3h-14q-28 0 -40.5 3t-21.5 13l-91 97q-8 8 -4.5 15t16.5 20z" />
    <glyph glyph-name="ecaron" unicode="&#x11b;" horiz-adv-x="557" 
d="M180 217q8 -54 41.5 -82t90.5 -28q37 0 72 9t69 23q8 4 13.5 -1t13.5 -28l9 -25q9 -25 9 -33.5t-10 -13.5q-38 -21 -89.5 -34.5t-104.5 -13.5q-59 0 -106.5 18t-81 52.5t-51.5 84t-18 113.5q0 61 17 112.5t48.5 89t77.5 58t103 20.5t100 -20t72.5 -56t44 -85.5
t14.5 -107.5q0 -29 -2 -40.5t-8 -11.5h-324zM377 315q-5 47 -28 77.5t-65 30.5t-68 -28.5t-36 -79.5h197zM147 756q15 15 22 18.5t15 -3.5l101 -88l101 88q8 7 15 3.5t22 -18.5l10 -10q13 -13 16 -20t-4 -15l-91 -97q-9 -10 -21.5 -13t-40.5 -3h-14q-28 0 -40.5 3t-21.5 13
l-91 97q-8 8 -4.5 15t16.5 20z" />
    <glyph glyph-name="Gcircumflex" unicode="&#x11c;" horiz-adv-x="666" 
d="M554 404q29 0 37 -2.5t8 -12.5v-330q0 -7 -2 -11.5t-10 -9.5q-19 -10 -46 -19t-58.5 -15.5t-64.5 -10t-64 -3.5q-158 0 -238 97.5t-80 272.5q0 88 23.5 157.5t68.5 117.5q43 46 104 70.5t135 24.5q63 0 116 -17.5t95 -47.5q5 -4 8 -7.5t2.5 -9.5t-5 -15.5t-13.5 -24.5
l-12 -20q-16 -26 -23 -29.5t-14 1.5q-34 23 -67 35.5t-77 12.5q-95 0 -143.5 -63t-48.5 -184q0 -118 44 -184t140 -66q21 0 43.5 3.5t42.5 9.5v164h-111q-5 0 -8.5 1.5t-5.5 7t-3 16.5t-1 30v8q0 20 1 30.5t3 15.5t5.5 6t8.5 1h210zM294 952q9 10 21.5 13t40.5 3h14
q28 0 40.5 -3t21.5 -13l91 -97q8 -8 4.5 -15t-16.5 -20l-10 -10q-15 -15 -22 -18.5t-15 3.5l-101 88l-101 -88q-8 -7 -15 -3.5t-22 18.5l-10 10q-13 13 -16.5 20t4.5 15z" />
    <glyph glyph-name="gcircumflex" unicode="&#x11d;" horiz-adv-x="580" 
d="M454 528q29 0 38.5 -2t12.5 -10q3 -10 5 -32t3 -51t1 -62v-66v-262q0 -143 -61 -210q-60 -66 -183 -66q-45 0 -91 12t-76 29q-9 5 -9 14t12 37l7 17q11 25 17 32.5t14 3.5q26 -12 57.5 -20.5t60.5 -8.5q55 0 85 32.5t30 112.5v15q-53 -45 -128 -45q-99 0 -155.5 69
t-56.5 193q0 66 16.5 118t46 87.5t69.5 54t87 18.5q41 0 74.5 -17.5t58.5 -44.5q1 8 3.5 22.5t4.5 18.5q1 3 2.5 5t6 3.5t13 2t25.5 0.5h10zM377 359q-17 31 -41 46t-50 15q-51 0 -79.5 -39.5t-28.5 -120.5q0 -146 110 -146q21 0 42.5 7t32.5 19q8 9 11 21.5t3 32.5v165z
M221 760q9 10 21.5 13t40.5 3h14q28 0 40.5 -3t21.5 -13l91 -97q8 -8 4.5 -15t-16.5 -20l-10 -10q-15 -15 -22 -18.5t-15 3.5l-101 88l-101 -88q-8 -7 -15 -3.5t-22 18.5l-10 10q-13 13 -16.5 20t4.5 15z" />
    <glyph glyph-name="Gbreve" unicode="&#x11e;" horiz-adv-x="666" 
d="M554 404q29 0 37 -2.5t8 -12.5v-330q0 -7 -2 -11.5t-10 -9.5q-19 -10 -46 -19t-58.5 -15.5t-64.5 -10t-64 -3.5q-158 0 -238 97.5t-80 272.5q0 88 23.5 157.5t68.5 117.5q43 46 104 70.5t135 24.5q63 0 116 -17.5t95 -47.5q5 -4 8 -7.5t2.5 -9.5t-5 -15.5t-13.5 -24.5
l-12 -20q-16 -26 -23 -29.5t-14 1.5q-34 23 -67 35.5t-77 12.5q-95 0 -143.5 -63t-48.5 -184q0 -118 44 -184t140 -66q21 0 43.5 3.5t42.5 9.5v164h-111q-5 0 -8.5 1.5t-5.5 7t-3 16.5t-1 30v8q0 20 1 30.5t3 15.5t5.5 6t8.5 1h210zM266 952q23 0 29.5 -3t7.5 -9
q10 -57 60 -57q49 0 60 57q1 6 7.5 9t29.5 3h15q26 0 34.5 -2t8.5 -12q-4 -68 -44.5 -104.5t-110.5 -36.5t-110.5 36.5t-44.5 104.5q0 10 8.5 12t34.5 2h15z" />
    <glyph glyph-name="gbreve" unicode="&#x11f;" horiz-adv-x="580" 
d="M454 528q29 0 38.5 -2t12.5 -10q3 -10 5 -32t3 -51t1 -62v-66v-262q0 -143 -61 -210q-60 -66 -183 -66q-45 0 -91 12t-76 29q-9 5 -9 14t12 37l7 17q11 25 17 32.5t14 3.5q26 -12 57.5 -20.5t60.5 -8.5q55 0 85 32.5t30 112.5v15q-53 -45 -128 -45q-99 0 -155.5 69
t-56.5 193q0 66 16.5 118t46 87.5t69.5 54t87 18.5q41 0 74.5 -17.5t58.5 -44.5q1 8 3.5 22.5t4.5 18.5q1 3 2.5 5t6 3.5t13 2t25.5 0.5h10zM377 359q-17 31 -41 46t-50 15q-51 0 -79.5 -39.5t-28.5 -120.5q0 -146 110 -146q21 0 42.5 7t32.5 19q8 9 11 21.5t3 32.5v165z
M193 762q23 0 29.5 -3t7.5 -9q10 -57 60 -57q49 0 60 57q1 6 7.5 9t29.5 3h15q26 0 34.5 -2t8.5 -12q-4 -68 -44.5 -104.5t-110.5 -36.5t-110.5 36.5t-44.5 104.5q0 10 8.5 12t34.5 2h15z" />
    <glyph glyph-name="Gdotaccent" unicode="&#x120;" horiz-adv-x="666" 
d="M554 404q29 0 37 -2.5t8 -12.5v-330q0 -7 -2 -11.5t-10 -9.5q-19 -10 -46 -19t-58.5 -15.5t-64.5 -10t-64 -3.5q-158 0 -238 97.5t-80 272.5q0 88 23.5 157.5t68.5 117.5q43 46 104 70.5t135 24.5q63 0 116 -17.5t95 -47.5q5 -4 8 -7.5t2.5 -9.5t-5 -15.5t-13.5 -24.5
l-12 -20q-16 -26 -23 -29.5t-14 1.5q-34 23 -67 35.5t-77 12.5q-95 0 -143.5 -63t-48.5 -184q0 -118 44 -184t140 -66q21 0 43.5 3.5t42.5 9.5v164h-111q-5 0 -8.5 1.5t-5.5 7t-3 16.5t-1 30v8q0 20 1 30.5t3 15.5t5.5 6t8.5 1h210zM290 880q0 30 22 51t52 21t51 -21t21 -51
t-21 -51.5t-51 -21.5t-52 21.5t-22 51.5z" />
    <glyph glyph-name="gdotaccent" unicode="&#x121;" horiz-adv-x="580" 
d="M454 528q29 0 38.5 -2t12.5 -10q3 -10 5 -32t3 -51t1 -62v-66v-262q0 -143 -61 -210q-60 -66 -183 -66q-45 0 -91 12t-76 29q-9 5 -9 14t12 37l7 17q11 25 17 32.5t14 3.5q26 -12 57.5 -20.5t60.5 -8.5q55 0 85 32.5t30 112.5v15q-53 -45 -128 -45q-99 0 -155.5 69
t-56.5 193q0 66 16.5 118t46 87.5t69.5 54t87 18.5q41 0 74.5 -17.5t58.5 -44.5q1 8 3.5 22.5t4.5 18.5q1 3 2.5 5t6 3.5t13 2t25.5 0.5h10zM377 359q-17 31 -41 46t-50 15q-51 0 -79.5 -39.5t-28.5 -120.5q0 -146 110 -146q21 0 42.5 7t32.5 19q8 9 11 21.5t3 32.5v165z
M217 692q0 30 22 51t52 21t51 -21t21 -51t-21 -51.5t-51 -21.5t-52 21.5t-22 51.5z" />
    <glyph glyph-name="Gcommaaccent" unicode="&#x122;" horiz-adv-x="666" 
d="M554 404q29 0 37 -2.5t8 -12.5v-330q0 -7 -2 -11.5t-10 -9.5q-19 -10 -46 -19t-58.5 -15.5t-64.5 -10t-64 -3.5q-158 0 -238 97.5t-80 272.5q0 88 23.5 157.5t68.5 117.5q43 46 104 70.5t135 24.5q63 0 116 -17.5t95 -47.5q5 -4 8 -7.5t2.5 -9.5t-5 -15.5t-13.5 -24.5
l-12 -20q-16 -26 -23 -29.5t-14 1.5q-34 23 -67 35.5t-77 12.5q-95 0 -143.5 -63t-48.5 -184q0 -118 44 -184t140 -66q21 0 43.5 3.5t42.5 9.5v164h-111q-5 0 -8.5 1.5t-5.5 7t-3 16.5t-1 30v8q0 20 1 30.5t3 15.5t5.5 6t8.5 1h210zM290 -299q-11 9 -2 19q27 34 34 56.5
t7 35.5q0 11 -5 19t-11.5 16t-11.5 17t-5 23q0 21 16.5 37.5t44.5 16.5q29 0 47.5 -21.5t18.5 -54.5q0 -46 -25 -92t-71 -86q-10 -9 -21 0z" />
    <glyph glyph-name="gcommaaccent" unicode="&#x123;" horiz-adv-x="580" 
d="M352 848q11 -9 2 -19q-27 -34 -34 -56.5t-7 -35.5q0 -11 5 -19t11.5 -16t11.5 -17t5 -23q0 -21 -16.5 -37.5t-44.5 -16.5q-29 0 -47.5 21.5t-18.5 54.5q0 46 25 92t71 86q10 9 21 0zM454 528q29 0 38.5 -2t12.5 -10q3 -10 5 -32t3 -51t1 -62v-66v-262q0 -143 -61 -210
q-60 -66 -183 -66q-45 0 -91 12t-76 29q-8 5 -8.5 13.5t11.5 37.5l7 17q11 25 17 32.5t14 3.5q26 -12 57.5 -20.5t60.5 -8.5q55 0 85 32.5t30 112.5v15q-53 -45 -128 -45q-99 0 -155.5 69t-56.5 193q0 66 16.5 118t46 87.5t69.5 54t87 18.5q41 0 74.5 -17.5t58.5 -44.5
q1 8 3.5 22.5t4.5 18.5q1 3 2.5 5t6 3.5t13 2t25.5 0.5h10zM377 359q-17 31 -41 46t-50 15q-51 0 -79.5 -39.5t-28.5 -120.5q0 -146 110 -146q21 0 42.5 7t32.5 19q8 9 11 21.5t3 32.5v165z" />
    <glyph glyph-name="Hcircumflex" unicode="&#x124;" horiz-adv-x="689" 
d="M150 720q40 0 54 -3t14 -12v-283h253v283q0 9 12 12t54 3h11q40 0 54 -3t14 -12v-690q0 -9 -14 -12t-54 -3h-11q-42 0 -54 3t-12 12v291h-253v-291q0 -9 -14 -12t-54 -3h-11q-42 0 -54 3t-12 12v690q0 9 12 12t54 3h11zM275 952q9 10 21.5 13t40.5 3h14q28 0 40.5 -3
t21.5 -13l91 -97q8 -8 4.5 -15t-16.5 -20l-10 -10q-15 -15 -22 -18.5t-15 3.5l-101 88l-101 -88q-8 -7 -15 -3.5t-22 18.5l-10 10q-13 13 -16.5 20t4.5 15z" />
    <glyph glyph-name="hcircumflex" unicode="&#x125;" horiz-adv-x="587" 
d="M138 760q22 0 35 -1t19.5 -2.5t8.5 -4.5t2 -7v-260q24 24 58.5 38.5t76.5 14.5q46 0 81 -14t58 -40q25 -28 36 -66t11 -95v-308q0 -4 -2 -7t-8.5 -4.5t-19.5 -2.5t-35 -1h-5q-24 0 -37.5 1t-20 2.5t-8 4.5t-1.5 7v270q0 26 -1 43.5t-3 29.5t-6 20t-10 15q-10 11 -27.5 17
t-39.5 6q-17 0 -35 -4t-32 -12q-16 -10 -21 -22.5t-7 -30.5q-2 -17 -2 -43v-55v-234q0 -4 -2 -7t-8.5 -4.5t-19.5 -2.5t-35 -1h-5q-24 0 -37.5 1t-20 2.5t-8 4.5t-1.5 7v730q0 4 1.5 7t8 4.5t20 2.5t37.5 1h5zM68 928q9 10 21.5 13t40.5 3h14q28 0 40.5 -3t21.5 -13l91 -97
q8 -8 4.5 -15t-16.5 -20l-10 -10q-15 -15 -22 -18.5t-15 3.5l-101 88l-101 -88q-8 -7 -15 -3.5t-22 18.5l-10 10q-13 13 -16.5 20t4.5 15z" />
    <glyph glyph-name="Hbar" unicode="&#x126;" horiz-adv-x="713" 
d="M162 720q40 0 54 -3t14 -12v-76h253v76q0 9 12 12t54 3h11q40 0 54 -3t14 -12v-76h65q8 0 11 -8.5t3 -41.5v-6q0 -33 -3 -41.5t-11 -8.5h-65v-508q0 -9 -14 -12t-54 -3h-11q-42 0 -54 3t-12 12v291h-253v-291q0 -9 -14 -12t-54 -3h-11q-42 0 -54 3t-12 12v508h-65
q-8 0 -11 8.5t-3 41.5v6q0 33 3 41.5t11 8.5h65v76q0 9 12 12t54 3h11zM483 422v101h-253v-101h253z" />
    <glyph glyph-name="hbar" unicode="&#x127;" horiz-adv-x="587" 
d="M138 760q22 0 35 -1t19.5 -2.5t8.5 -4.5t2 -7v-50h130q8 0 11 -8t3 -41t-3 -41t-11 -8h-130v-112q24 24 58.5 38.5t76.5 14.5q46 0 81 -14t58 -40q25 -28 36 -66t11 -95v-308q0 -4 -2 -7t-8.5 -4.5t-19.5 -2.5t-35 -1h-5q-24 0 -37.5 1t-20 2.5t-8 4.5t-1.5 7v270
q0 26 -1 43.5t-3 29.5t-6 20t-10 15q-10 11 -27.5 17t-39.5 6q-17 0 -35 -4t-32 -12q-16 -10 -21 -22.5t-7 -30.5q-2 -17 -2 -43v-55v-234q0 -4 -2 -7t-8.5 -4.5t-19.5 -2.5t-35 -1h-5q-24 0 -37.5 1t-20 2.5t-8 4.5t-1.5 7v582h-60q-8 0 -11 8t-3 41t3 41t11 8h60v50
q0 4 1.5 7t8 4.5t20 2.5t37.5 1h5z" />
    <glyph glyph-name="Itilde" unicode="&#x128;" horiz-adv-x="411" 
d="M343 720q7 0 9.5 -8t2.5 -41v-5q0 -33 -2.5 -41t-9.5 -8h-65v-514h65q7 0 9.5 -8t2.5 -41v-5q0 -33 -2.5 -41t-9.5 -8h-275q-7 0 -9.5 8t-2.5 41v5q0 33 2.5 41t9.5 8h65v514h-65q-7 0 -9.5 8t-2.5 41v5q0 33 2.5 41t9.5 8h275zM49 840q-14 14 -18 21.5t2 15.5
q23 28 51.5 47.5t63.5 19.5q19 0 35.5 -6t30.5 -12l25 -13q12 -6 24 -6q15 0 29 8t30 24q4 4 11 2t25 -20l4 -4q14 -14 18 -21.5t-2 -15.5q-23 -28 -51.5 -47.5t-63.5 -19.5q-19 0 -35 6q-16 7 -30 13l-26 12q-12 6 -24 6q-15 0 -29 -8t-30 -24q-4 -4 -11 -2t-25 20z" />
    <glyph glyph-name="itilde" unicode="&#x129;" horiz-adv-x="277" 
d="M142 528q22 0 35 -1t19.5 -2.5t8.5 -4.5t2 -7v-498q0 -4 -2 -7t-8.5 -4.5t-19.5 -2.5t-35 -1h-5q-24 0 -37.5 1t-20 2.5t-8 4.5t-1.5 7v498q0 4 1.5 7t8 4.5t20 2.5t37.5 1h5zM-17 647q-14 14 -18 21.5t2 15.5q23 28 51.5 47.5t63.5 19.5q19 0 36 -6q16 -7 30 -13l25 -12
q12 -6 24 -6q15 0 29 8t30 24q4 4 11 2t25 -20l4 -4q14 -14 18 -21.5t-2 -15.5q-23 -28 -51.5 -47.5t-63.5 -19.5q-19 0 -35 6t-30 12l-26 13q-12 6 -24 6q-15 0 -29 -8t-30 -24q-4 -4 -11 -2t-25 20z" />
    <glyph glyph-name="Imacron" unicode="&#x12a;" horiz-adv-x="411" 
d="M343 720q7 0 9.5 -8t2.5 -41v-5q0 -33 -2.5 -41t-9.5 -8h-65v-514h65q7 0 9.5 -8t2.5 -41v-5q0 -33 -2.5 -41t-9.5 -8h-275q-7 0 -9.5 8t-2.5 41v5q0 33 2.5 41t9.5 8h65v514h-65q-7 0 -9.5 8t-2.5 41v5q0 33 2.5 41t9.5 8h275zM340 924q8 0 10.5 -9t2.5 -32v-14
q0 -23 -2.5 -32t-10.5 -9h-270q-8 0 -10.5 9t-2.5 32v14q0 23 2.5 32t10.5 9h270z" />
    <glyph glyph-name="imacron" unicode="&#x12b;" horiz-adv-x="277" 
d="M142 528q22 0 35 -1t19.5 -2.5t8.5 -4.5t2 -7v-498q0 -4 -2 -7t-8.5 -4.5t-19.5 -2.5t-35 -1h-5q-24 0 -37.5 1t-20 2.5t-8 4.5t-1.5 7v498q0 4 1.5 7t8 4.5t20 2.5t37.5 1h5zM275 735q8 0 10.5 -9t2.5 -32v-14q0 -23 -2.5 -32t-10.5 -9h-270q-8 0 -10.5 9t-2.5 32v14
q0 23 2.5 32t10.5 9h270z" />
    <glyph glyph-name="Ibreve" unicode="&#x12c;" horiz-adv-x="411" 
d="M343 720q7 0 9.5 -8t2.5 -41v-5q0 -33 -2.5 -41t-9.5 -8h-65v-514h65q7 0 9.5 -8t2.5 -41v-5q0 -33 -2.5 -41t-9.5 -8h-275q-7 0 -9.5 8t-2.5 41v5q0 33 2.5 41t9.5 8h65v514h-65q-7 0 -9.5 8t-2.5 41v5q0 33 2.5 41t9.5 8h275zM108 952q23 0 29.5 -3t7.5 -9
q10 -57 60 -57q49 0 60 57q1 6 7.5 9t29.5 3h15q26 0 34.5 -2t8.5 -12q-4 -68 -44.5 -104.5t-110.5 -36.5t-110.5 36.5t-44.5 104.5q0 10 8.5 12t34.5 2h15z" />
    <glyph glyph-name="ibreve" unicode="&#x12d;" horiz-adv-x="277" 
d="M142 528q22 0 35 -1t19.5 -2.5t8.5 -4.5t2 -7v-498q0 -4 -2 -7t-8.5 -4.5t-19.5 -2.5t-35 -1h-5q-24 0 -37.5 1t-20 2.5t-8 4.5t-1.5 7v498q0 4 1.5 7t8 4.5t20 2.5t37.5 1h5zM43 762q23 0 29.5 -3t7.5 -9q10 -57 60 -57q49 0 60 57q1 6 7.5 9t29.5 3h15q26 0 34.5 -2
t8.5 -12q-4 -68 -44.5 -104.5t-110.5 -36.5t-110.5 36.5t-44.5 104.5q0 10 8.5 12t34.5 2h15z" />
    <glyph glyph-name="Iogonek" unicode="&#x12e;" horiz-adv-x="411" 
d="M68 0q-7 0 -9.5 8t-2.5 41v5q0 33 2.5 41t9.5 8h65v514h-65q-7 0 -9.5 8t-2.5 41v5q0 33 2.5 41t9.5 8h275q7 0 9.5 -8t2.5 -41v-5q0 -33 -2.5 -41t-9.5 -8h-65v-514h65q7 0 9.5 -8t2.5 -41v-5q0 -33 -2.5 -41t-9.5 -8h-10q-29 0 -56 -8t-47 -27q-14 -14 -23 -32t-9 -38
q0 -46 43 -46q10 0 21.5 3t19.5 7q6 3 10 -2t12 -25l4 -12q6 -19 6 -26.5t-8 -12.5q-17 -10 -41 -15.5t-43 -5.5q-54 0 -89.5 30t-35.5 87q0 37 22.5 70t57.5 53h-109z" />
    <glyph glyph-name="iogonek" unicode="&#x12f;" horiz-adv-x="277" 
d="M142 528q22 0 35 -1t19.5 -2.5t8.5 -4.5t2 -7v-495q0 -9 -7.5 -13t-19 -8t-25 -10.5t-26.5 -20.5q-25 -28 -25 -63q0 -23 11 -35.5t31 -12.5q11 0 22.5 3.5t21.5 7.5q6 2 10 -2.5t12 -24.5l4 -12q6 -19 6 -26.5t-8 -12.5q-17 -11 -40.5 -16.5t-45.5 -5.5q-53 0 -89 29.5
t-36 83.5q0 37 18 68.5t49 53.5v512q0 4 1.5 7t8 4.5t20 2.5t37.5 1h5zM52 690q0 33 24 57.5t60 24.5t60 -24.5t24 -57.5t-24 -57.5t-60 -24.5t-60 24.5t-24 57.5z" />
    <glyph glyph-name="Idotaccent" unicode="&#x130;" horiz-adv-x="411" 
d="M343 720q7 0 9.5 -8t2.5 -41v-5q0 -33 -2.5 -41t-9.5 -8h-65v-514h65q7 0 9.5 -8t2.5 -41v-5q0 -33 -2.5 -41t-9.5 -8h-275q-7 0 -9.5 8t-2.5 41v5q0 33 2.5 41t9.5 8h65v514h-65q-7 0 -9.5 8t-2.5 41v5q0 33 2.5 41t9.5 8h275zM132 880q0 30 22 51t52 21t51 -21t21 -51
t-21 -51.5t-51 -21.5t-52 21.5t-22 51.5z" />
    <glyph glyph-name="dotlessi" unicode="&#x131;" horiz-adv-x="277" 
d="M142 528q22 0 35 -1t19.5 -2.5t8.5 -4.5t2 -7v-498q0 -4 -2 -7t-8.5 -4.5t-19.5 -2.5t-35 -1h-5q-24 0 -37.5 1t-20 2.5t-8 4.5t-1.5 7v498q0 4 1.5 7t8 4.5t20 2.5t37.5 1h5z" />
    <glyph glyph-name="IJ" unicode="&#x132;" horiz-adv-x="884" 
d="M343 720q7 0 9.5 -8t2.5 -41v-5q0 -33 -2.5 -41t-9.5 -8h-65v-514h65q7 0 9.5 -8t2.5 -41v-5q0 -33 -2.5 -41t-9.5 -8h-275q-7 0 -9.5 8t-2.5 41v5q0 33 2.5 41t9.5 8h65v514h-65q-7 0 -9.5 8t-2.5 41v5q0 33 2.5 41t9.5 8h275zM745 720q40 0 54 -3.5t14 -11.5v-464
q0 -69 -14 -115t-41 -75q-29 -32 -71 -46.5t-97 -14.5q-38 0 -76 7.5t-64 19.5q-9 5 -9 17q0 11 7 34l6 20q8 25 14 34t19 4q21 -7 42.5 -11t41.5 -4q50 0 71 25q17 18 21.5 43.5t4.5 63.5v462q0 8 12 11.5t54 3.5h11z" />
    <glyph glyph-name="ij" unicode="&#x133;" horiz-adv-x="568" 
d="M52 690q0 33 24 57.5t60 24.5t60 -24.5t24 -57.5t-24 -57.5t-60 -24.5t-60 24.5t-24 57.5zM142 528q22 0 35 -1t19.5 -2.5t8.5 -4.5t2 -7v-498q0 -4 -2 -7t-8.5 -4.5t-19.5 -2.5t-35 -1h-5q-24 0 -37.5 1t-20 2.5t-8 4.5t-1.5 7v498q0 4 1.5 7t8 4.5t20 2.5t37.5 1h5z
M433 528q22 0 35 -1t19.5 -2.5t8.5 -4.5t2 -7v-508q0 -66 -14 -111t-39 -73.5t-60.5 -41t-78.5 -12.5q-29 0 -57 5.5t-42 13.5q-10 4 -10 13t7 37l4 17q6 24 10 30.5t17 3.5q14 -3 28.5 -4.5t25.5 -1.5q41 0 56.5 25t15.5 79v528q0 4 1.5 7t8 4.5t20 2.5t37.5 1h5zM343 690
q0 33 24 57.5t60 24.5t60 -24.5t24 -57.5t-24 -57.5t-60 -24.5t-60 24.5t-24 57.5z" />
    <glyph glyph-name="Jcircumflex" unicode="&#x134;" horiz-adv-x="473" 
d="M334 720q40 0 54 -3.5t14 -11.5v-464q0 -69 -14 -115t-41 -75q-29 -32 -71 -46.5t-97 -14.5q-38 0 -76 7.5t-64 19.5q-9 5 -9 17q0 11 7 34l6 20q8 25 14 34t19 4q21 -7 42.5 -11t41.5 -4q50 0 71 25q17 18 21.5 43.5t4.5 63.5v462q0 8 12 11.5t54 3.5h11zM263 952
q9 10 21.5 13t40.5 3h14q28 0 40.5 -3t21.5 -13l91 -97q8 -8 4.5 -15t-16.5 -20l-10 -10q-15 -15 -22 -18.5t-15 3.5l-101 88l-101 -88q-8 -7 -15 -3.5t-22 18.5l-10 10q-13 13 -16.5 20t4.5 15z" />
    <glyph glyph-name="jcircumflex" unicode="&#x135;" horiz-adv-x="291" 
d="M156 528q22 0 35 -1t19.5 -2.5t8.5 -4.5t2 -7v-508q0 -66 -14 -111t-39 -73.5t-60.5 -41t-78.5 -12.5q-29 0 -57 5.5t-42 13.5q-9 4 -9.5 12t6.5 38l4 17q6 24 10 30.5t17 3.5q14 -3 28.5 -4.5t25.5 -1.5q41 0 56.5 25t15.5 79v528q0 4 1.5 7t8 4.5t20 2.5t37.5 1h5z
M85 760q9 10 21.5 13t40.5 3h14q28 0 40.5 -3t21.5 -13l91 -97q8 -8 4.5 -15t-16.5 -20l-10 -10q-15 -15 -22 -18.5t-15 3.5l-101 88l-101 -88q-8 -7 -15 -3.5t-22 18.5l-10 10q-13 13 -16.5 20t4.5 15z" />
    <glyph glyph-name="Kcommaaccent" unicode="&#x136;" horiz-adv-x="623" 
d="M150 720q40 0 54 -3.5t14 -11.5v-279l27 29q70 75 117 136t82 115q3 4 6 7t10 4.5t18.5 2t31.5 0.5h12q22 0 35 -1t19 -2.5t7 -5t-1 -7.5q-26 -54 -77.5 -125t-141.5 -165l232 -396q2 -3 2 -6q0 -5 -7 -8q-9 -4 -47 -4h-29q-24 0 -37.5 0.5t-21 2t-10.5 4t-6 7.5
l-172 300l-49 -51v-248q0 -8 -14 -11.5t-54 -3.5h-11q-42 0 -54 3t-12 12v690q0 8 12 11.5t54 3.5h11zM264 -299q-11 9 -2 19q27 34 34 56.5t7 35.5q0 11 -5 19t-11.5 16t-11.5 17t-5 23q0 21 16.5 37.5t44.5 16.5q29 0 47.5 -21.5t18.5 -54.5q0 -46 -25 -92t-71 -86
q-10 -9 -21 0z" />
    <glyph glyph-name="kcommaaccent" unicode="&#x137;" horiz-adv-x="530" 
d="M138 760q22 0 35 -1t19.5 -2.5t8.5 -4.5t2 -7v-412q22 22 43 46l42 48q21 24 38 47l33 41q3 4 6.5 6.5t10 4t18 2t31.5 0.5h16q38 0 48 -4t6 -13q-11 -24 -29 -51.5t-40.5 -56t-48.5 -57.5t-54 -54l200 -271q2 -3 2 -5q0 -5 -7 -10q-11 -6 -57 -6h-13q-25 0 -39.5 0.5
t-23 2t-12.5 4.5t-7 8l-163 224v-224q0 -4 -2 -7t-8.5 -4.5t-19.5 -2.5t-35 -1h-5q-24 0 -37.5 1t-20 2.5t-8 4.5t-1.5 7v730q0 4 1.5 7t8 4.5t20 2.5t37.5 1h5zM216 -299q-11 9 -2 19q27 34 34 56.5t7 35.5q0 11 -5 19t-11.5 16t-11.5 17t-5 23q0 21 16.5 37.5t44.5 16.5
q29 0 47.5 -21.5t18.5 -54.5q0 -46 -25 -92t-71 -86q-10 -9 -21 0z" />
    <glyph glyph-name="kgreenlandic" unicode="&#x138;" horiz-adv-x="530" 
d="M138 528q22 0 35 -1t19.5 -2.5t8.5 -4.5t2 -7v-180q21 22 43 46l42 48q20 25 38 47l33 41q3 4 6.5 6.5t10 4t18 2t31.5 0.5h16q38 0 48 -4t6 -13q-11 -24 -29 -51.5t-40.5 -56t-48.5 -57.5t-54 -54l200 -271q6 -8 -5 -14.5t-57 -6.5h-13q-25 0 -39.5 0.5t-23 2t-12.5 4.5
t-7 8l-163 224v-224q0 -4 -2 -7t-8.5 -4.5t-19.5 -2.5t-35 -1h-5q-24 0 -37.5 1t-20 2.5t-8 4.5t-1.5 7v498q0 4 1.5 7t8 4.5t20 2.5t37.5 1h5z" />
    <glyph glyph-name="Lacute" unicode="&#x139;" horiz-adv-x="516" 
d="M150 720q40 0 54 -3.5t14 -11.5v-589h256q5 0 8.5 -1t5.5 -6.5t2.5 -16t0.5 -29.5v-8q0 -37 -3.5 -46t-13.5 -9h-356q-29 0 -37 2.5t-8 12.5v690q0 8 12 11.5t54 3.5h11zM291 978q23 0 29 -4t0 -12l-130 -163q-5 -6 -13.5 -8.5t-27.5 -2.5h-38q-17 0 -23 3t-1 12l106 163
q4 7 13 9.5t37 2.5h48z" />
    <glyph glyph-name="lacute" unicode="&#x13a;" horiz-adv-x="298" 
d="M130 760q21 0 34 -0.5t19.5 -2t9 -4t3.5 -6.5q2 -11 4 -39t3 -67t1.5 -86.5t0.5 -98.5v-318q0 -17 7 -25.5t26 -8.5h12q7 0 8.5 -8t1.5 -36v-9q0 -27 -1.5 -34t-7.5 -10q-11 -5 -29 -8.5t-38 -3.5q-54 0 -84 30q-18 18 -25 44t-7 61v347q0 36 -1 77l-2 80
q-1 38 -2.5 68.5t-2.5 44.5q0 4 1 6.5t7 4t19.5 2t37.5 0.5h5zM248 991q23 0 29 -4t0 -12l-130 -163q-5 -6 -13.5 -8.5t-27.5 -2.5h-38q-17 0 -23 3t-1 12l106 163q4 7 13 9.5t37 2.5h48z" />
    <glyph glyph-name="Lcommaaccent" unicode="&#x13b;" horiz-adv-x="516" 
d="M150 720q40 0 54 -3.5t14 -11.5v-589h256q5 0 8.5 -1t5.5 -6.5t2.5 -16t0.5 -29.5v-8q0 -37 -3.5 -46t-13.5 -9h-356q-29 0 -37 2.5t-8 12.5v690q0 8 12 11.5t54 3.5h11zM228 -299q-11 9 -2 19q27 34 34 56.5t7 35.5q0 11 -5 19t-11.5 16t-11.5 17t-5 23q0 21 16.5 37.5
t44.5 16.5q29 0 47.5 -21.5t18.5 -54.5q0 -46 -25 -92t-71 -86q-10 -9 -21 0z" />
    <glyph glyph-name="lcommaaccent" unicode="&#x13c;" horiz-adv-x="298" 
d="M130 760q21 0 34 -0.5t19.5 -2t9 -4t3.5 -6.5q2 -11 4 -39t3 -67t1.5 -86.5t0.5 -98.5v-318q0 -17 7 -25.5t26 -8.5h12q7 0 8.5 -8t1.5 -36v-9q0 -27 -1.5 -34t-7.5 -10q-11 -5 -29 -8.5t-38 -3.5q-54 0 -84 30q-18 18 -25 44t-7 61v347q0 36 -1 77l-2 80
q-1 38 -2.5 68.5t-2.5 44.5q0 4 1 6.5t7 4t19.5 2t37.5 0.5h5zM88 -299q-11 9 -2 19q27 34 34 56.5t7 35.5q0 11 -5 19t-11.5 16t-11.5 17t-5 23q0 21 16.5 37.5t44.5 16.5q29 0 47.5 -21.5t18.5 -54.5q0 -46 -25 -92t-71 -86q-10 -9 -21 0z" />
    <glyph glyph-name="Lcaron" unicode="&#x13d;" horiz-adv-x="516" 
d="M150 720q40 0 54 -3.5t14 -11.5v-589h256q5 0 8.5 -1t5.5 -6.5t2.5 -16t0.5 -29.5v-8q0 -37 -3.5 -46t-13.5 -9h-356q-29 0 -37 2.5t-8 12.5v690q0 8 12 11.5t54 3.5h11zM295 490q-11 9 -2 19q27 34 34 56.5t7 35.5q0 11 -5 19t-11.5 16t-11.5 17t-5 23q0 21 16.5 37.5
t44.5 16.5q29 0 47.5 -21.5t18.5 -54.5q0 -46 -25 -92t-71 -86q-10 -9 -21 0z" />
    <glyph glyph-name="lcaron" unicode="&#x13e;" horiz-adv-x="372" 
d="M130 760q21 0 34 -0.5t19.5 -2t9 -4t3.5 -6.5q2 -11 4 -39t3 -67t1.5 -86.5t0.5 -98.5v-318q0 -17 7 -25.5t26 -8.5h12q7 0 8.5 -8t1.5 -36v-9q0 -27 -1.5 -34t-7.5 -10q-11 -5 -29 -8.5t-38 -3.5q-54 0 -84 30q-18 18 -25 44t-7 61v347q0 36 -1 77l-2 80
q-1 38 -2.5 68.5t-2.5 44.5q0 4 1 6.5t7 4t19.5 2t37.5 0.5h5zM249 490q-11 9 -2 19q27 34 34 56.5t7 35.5q0 11 -5 19t-11.5 16t-11.5 17t-5 23q0 21 16.5 37.5t44.5 16.5q29 0 47.5 -21.5t18.5 -54.5q0 -46 -25 -92t-71 -86q-10 -9 -21 0z" />
    <glyph glyph-name="Ldot" unicode="&#x13f;" horiz-adv-x="516" 
d="M298 405q0 30 22 51t52 21t51 -21t21 -51t-21 -51.5t-51 -21.5t-52 21.5t-22 51.5zM150 720q40 0 54 -3.5t14 -11.5v-589h256q5 0 8.5 -1t5.5 -6.5t2.5 -16t0.5 -29.5v-8q0 -37 -3.5 -46t-13.5 -9h-356q-29 0 -37 2.5t-8 12.5v690q0 8 12 11.5t54 3.5h11z" />
    <glyph glyph-name="ldot" unicode="&#x140;" horiz-adv-x="412" 
d="M130 760q21 0 34 -0.5t19.5 -2t9 -4t3.5 -6.5q2 -11 4 -39t3 -67t1.5 -86.5t0.5 -98.5v-318q0 -17 7 -25.5t26 -8.5h12q7 0 8.5 -8t1.5 -36v-9q0 -27 -1.5 -34t-7.5 -10q-11 -5 -29 -8.5t-38 -3.5q-54 0 -84 30q-18 18 -25 44t-7 61v347q0 36 -1 77l-2 80
q-1 38 -2.5 68.5t-2.5 44.5q0 4 1 6.5t7 4t19.5 2t37.5 0.5h5zM259 372q0 30 22 51t52 21t51 -21t21 -51t-21 -51.5t-51 -21.5t-52 21.5t-22 51.5z" />
    <glyph glyph-name="Lslash" unicode="&#x141;" horiz-adv-x="527" 
d="M161 720q40 0 54 -3.5t14 -11.5v-227l126 70q11 6 14.5 -1.5t3.5 -35.5v-28q0 -33 -3.5 -43.5t-10.5 -14.5l-130 -72v-237h256q5 0 8.5 -1t5.5 -6.5t2.5 -16t0.5 -29.5v-8q0 -37 -3.5 -46t-13.5 -9h-356q-29 0 -37 2.5t-8 12.5v259l-64 -35q-11 -6 -14.5 1.5t-3.5 35.5
v27q0 16 1 26.5t2.5 16.5t4 9.5t6.5 5.5l68 37v307q0 8 12 11.5t54 3.5h11z" />
    <glyph glyph-name="lslash" unicode="&#x142;" horiz-adv-x="387" 
d="M189 760q21 0 34 -0.5t19.5 -2t9 -4t3.5 -6.5q2 -11 3.5 -36.5t2.5 -62t2 -80.5t1 -92l85 47q11 6 14.5 -1.5t3.5 -35.5v-28q0 -33 -3.5 -43.5t-10.5 -14.5l-89 -49v-213q0 -17 7 -25.5t26 -8.5h12q7 0 8.5 -8t1.5 -36v-9q0 -27 -1.5 -34t-7.5 -10q-11 -5 -29 -8.5
t-38 -3.5q-54 0 -84 30q-18 18 -25 44t-7 61v146l-85 -46q-11 -6 -14.5 1.5t-3.5 35.5v27q0 16 1 26.5t2.5 16.5t4 9.5t6.5 5.5l89 49v76q0 35 -1 77l-2 80q-1 38 -2.5 68.5t-2.5 44.5q0 4 1 6.5t7 4t19.5 2t37.5 0.5h5z" />
    <glyph glyph-name="Nacute" unicode="&#x143;" horiz-adv-x="706" 
d="M135 720q21 0 33.5 -1t20 -3t10.5 -5t6 -7l180 -274l47 -72q19 -30 32 -52t22 -40t17 -38q-2 18 -3 46.5t-2 60.5v65q-1 33 -1 59v246q0 8 11.5 11.5t52.5 3.5h7q39 0 52 -3.5t13 -11.5v-690q0 -5 -1.5 -7.5t-7.5 -4.5t-17.5 -2.5t-31.5 -0.5h-6q-36 0 -49 3t-19 13
l-180 274l-49 76l-34 54q-13 23 -21.5 40.5t-14.5 32.5q2 -18 3.5 -46.5t2.5 -60.5v-66q1 -33 1 -59v-246q0 -9 -12.5 -12t-51.5 -3h-6q-41 0 -53.5 2.5t-12.5 12.5v690q0 5 1.5 8t7 4.5t17 2t31.5 0.5h5zM460 978q23 0 29 -4t0 -12l-130 -163q-5 -6 -13.5 -8.5t-27.5 -2.5
h-38q-17 0 -23 3t-1 12l106 163q4 7 13 9.5t37 2.5h48z" />
    <glyph glyph-name="nacute" unicode="&#x144;" horiz-adv-x="589" 
d="M126 528q37 0 48 -2.5t14 -10.5q2 -7 3.5 -18t3.5 -22q24 28 61.5 45.5t83.5 17.5t81 -14t58 -40q25 -28 36 -66t11 -95v-308q0 -4 -2 -7t-8.5 -4.5t-19.5 -2.5t-35 -1h-5q-24 0 -37.5 1t-20 2.5t-8 4.5t-1.5 7v270q0 26 -1 43.5t-3 29.5t-6 20t-10 15q-10 11 -27.5 17
t-39.5 6q-17 0 -35 -4t-32 -12q-16 -10 -21 -22.5t-7 -30.5q-2 -17 -2 -43v-55v-234q0 -4 -2 -7t-8.5 -4.5t-19.5 -2.5t-35 -1h-5q-24 0 -37.5 1t-20 2.5t-8 4.5t-1.5 7v276q0 59 -2 118.5t-5 100.5q0 5 1 8.5t7 5.5t18.5 3t33.5 1h5zM437 786q23 0 29 -4t0 -12l-130 -163
q-5 -6 -13.5 -8.5t-27.5 -2.5h-38q-17 0 -23 3t-1 12l106 163q4 7 13 9.5t37 2.5h48z" />
    <glyph glyph-name="Ncommaaccent" unicode="&#x145;" horiz-adv-x="706" 
d="M135 720q21 0 33.5 -1t20 -3t10.5 -5t6 -7l180 -274l47 -72q19 -30 32 -52t22 -40t17 -38q-2 18 -3 46.5t-2 60.5v65q-1 33 -1 59v246q0 8 11.5 11.5t52.5 3.5h7q39 0 52 -3.5t13 -11.5v-690q0 -5 -1.5 -7.5t-7.5 -4.5t-17.5 -2.5t-31.5 -0.5h-6q-36 0 -49 3t-19 13
l-180 274l-49 76l-34 54q-13 23 -21.5 40.5t-14.5 32.5q2 -18 3.5 -46.5t2.5 -60.5v-66q1 -33 1 -59v-246q0 -9 -12.5 -12t-51.5 -3h-6q-41 0 -53.5 2.5t-12.5 12.5v690q0 5 1.5 8t7 4.5t17 2t31.5 0.5h5zM299 -299q-11 9 -2 19q27 34 34 56.5t7 35.5q0 11 -5 19t-11.5 16
t-11.5 17t-5 23q0 21 16.5 37.5t44.5 16.5q29 0 47.5 -21.5t18.5 -54.5q0 -46 -25 -92t-71 -86q-10 -9 -21 0z" />
    <glyph glyph-name="ncommaaccent" unicode="&#x146;" horiz-adv-x="589" 
d="M126 528q37 0 48 -2.5t14 -10.5q2 -7 3.5 -18t3.5 -22q24 28 61.5 45.5t83.5 17.5t81 -14t58 -40q25 -28 36 -66t11 -95v-308q0 -4 -2 -7t-8.5 -4.5t-19.5 -2.5t-35 -1h-5q-24 0 -37.5 1t-20 2.5t-8 4.5t-1.5 7v270q0 26 -1 43.5t-3 29.5t-6 20t-10 15q-10 11 -27.5 17
t-39.5 6q-17 0 -35 -4t-32 -12q-16 -10 -21 -22.5t-7 -30.5q-2 -17 -2 -43v-55v-234q0 -4 -2 -7t-8.5 -4.5t-19.5 -2.5t-35 -1h-5q-24 0 -37.5 1t-20 2.5t-8 4.5t-1.5 7v276q0 59 -2 118.5t-5 100.5q0 5 1 8.5t7 5.5t18.5 3t33.5 1h5zM231 -299q-11 9 -2 19q27 34 34 56.5
t7 35.5q0 11 -5 19t-11.5 16t-11.5 17t-5 23q0 21 16.5 37.5t44.5 16.5q29 0 47.5 -21.5t18.5 -54.5q0 -46 -25 -92t-71 -86q-10 -9 -21 0z" />
    <glyph glyph-name="Ncaron" unicode="&#x147;" horiz-adv-x="706" 
d="M135 720q21 0 33.5 -1t20 -3t10.5 -5t6 -7l180 -274l47 -72q19 -30 32 -52t22 -40t17 -38q-2 18 -3 46.5t-2 60.5v65q-1 33 -1 59v246q0 8 11.5 11.5t52.5 3.5h7q39 0 52 -3.5t13 -11.5v-690q0 -5 -1.5 -7.5t-7.5 -4.5t-17.5 -2.5t-31.5 -0.5h-6q-36 0 -49 3t-19 13
l-180 274l-49 76l-34 54q-13 23 -21.5 40.5t-14.5 32.5q2 -18 3.5 -46.5t2.5 -60.5v-66q1 -33 1 -59v-246q0 -9 -12.5 -12t-51.5 -3h-6q-41 0 -53.5 2.5t-12.5 12.5v690q0 5 1.5 8t7 4.5t17 2t31.5 0.5h5zM221 948q15 15 22 18.5t15 -3.5l101 -88l101 88q8 7 15 3.5
t22 -18.5l10 -10q13 -13 16 -20t-4 -15l-91 -97q-9 -10 -21.5 -13t-40.5 -3h-14q-28 0 -40.5 3t-21.5 13l-91 97q-8 8 -4.5 15t16.5 20z" />
    <glyph glyph-name="ncaron" unicode="&#x148;" horiz-adv-x="589" 
d="M126 528q37 0 48 -2.5t14 -10.5q2 -7 3.5 -18t3.5 -22q24 28 61.5 45.5t83.5 17.5t81 -14t58 -40q25 -28 36 -66t11 -95v-308q0 -4 -2 -7t-8.5 -4.5t-19.5 -2.5t-35 -1h-5q-24 0 -37.5 1t-20 2.5t-8 4.5t-1.5 7v270q0 26 -1 43.5t-3 29.5t-6 20t-10 15q-10 11 -27.5 17
t-39.5 6q-17 0 -35 -4t-32 -12q-16 -10 -21 -22.5t-7 -30.5q-2 -17 -2 -43v-55v-234q0 -4 -2 -7t-8.5 -4.5t-19.5 -2.5t-35 -1h-5q-24 0 -37.5 1t-20 2.5t-8 4.5t-1.5 7v276q0 59 -2 118.5t-5 100.5q0 5 1 8.5t7 5.5t18.5 3t33.5 1h5zM188 756q15 15 22 18.5t15 -3.5
l101 -88l101 88q8 7 15 3.5t22 -18.5l10 -10q13 -13 16 -20t-4 -15l-91 -97q-9 -10 -21.5 -13t-40.5 -3h-14q-28 0 -40.5 3t-21.5 13l-91 97q-8 8 -4.5 15t16.5 20z" />
    <glyph glyph-name="napostrophe" unicode="&#x149;" horiz-adv-x="719" 
d="M256 528q37 0 48 -2.5t14 -10.5q2 -7 3.5 -18t3.5 -22q24 28 61.5 45.5t83.5 17.5t81 -14t58 -40q25 -28 36 -66t11 -95v-308q0 -4 -2 -7t-8.5 -4.5t-19.5 -2.5t-35 -1h-5q-24 0 -37.5 1t-20 2.5t-8 4.5t-1.5 7v270q0 26 -1 43.5t-3 29.5t-6 20t-10 15q-10 11 -27.5 17
t-39.5 6q-17 0 -35 -4t-32 -12q-16 -10 -21 -22.5t-7 -30.5q-2 -17 -2 -43v-55v-234q0 -4 -2 -7t-8.5 -4.5t-19.5 -2.5t-35 -1h-5q-24 0 -37.5 1t-20 2.5t-8 4.5t-1.5 7v276q0 59 -2 118.5t-5 100.5q0 5 1 8.5t7 5.5t18.5 3t33.5 1h5zM1 411q-8 8 -9.5 13t5.5 13
q34 44 44.5 73.5t10.5 47.5t-7 28.5t-15.5 20.5t-15.5 21t-7 30q0 27 21 49.5t56 22.5q39 0 64 -27t25 -72q0 -62 -33.5 -122.5t-91.5 -114.5q-14 -13 -29 1z" />
    <glyph glyph-name="Eng" unicode="&#x14a;" horiz-adv-x="706" 
d="M424 -69q38 0 54 22t18 70l-175 267l-49 76l-34 54q-14 23 -22 40.5t-14 32.5q2 -18 4 -47q2 -28 2 -60v-66q0 -33 1 -59v-246q0 -9 -12.5 -12t-51.5 -3h-6q-41 0 -53.5 2.5t-12.5 12.5v690q0 5 1.5 8t7 4.5t17 2t31.5 0.5h5q21 0 33.5 -1t20 -3t10.5 -5t6 -7l180 -274
l47 -72q19 -30 32 -52t22 -40t17 -38q-2 18 -3 46q-2 29 -2 61v65q0 33 -1 59v246q0 8 11.5 11.5t52.5 3.5h7q39 0 52 -3.5t13 -11.5v-650q0 -66 -14 -111t-39 -73.5t-60.5 -41t-78.5 -12.5q-29 0 -57 5.5t-42 13.5q-9 4 -9.5 12t6.5 38l4 17q6 24 10 30.5t17 3.5
q14 -3 28.5 -4.5t25.5 -1.5z" />
    <glyph glyph-name="eng" unicode="&#x14b;" horiz-adv-x="589" 
d="M526 55q0 -66 -14 -111t-39 -73.5t-60.5 -41t-78.5 -12.5q-29 0 -57 5.5t-42 13.5q-9 4 -9.5 12t6.5 38l4 17q6 24 10 30.5t17 3.5q14 -3 28.5 -4.5t25.5 -1.5q41 0 56.5 25t15.5 79v250q0 26 -1 43.5t-3 29.5t-6 20t-10 15q-10 11 -27.5 17t-39.5 6q-17 0 -35 -4
t-32 -12q-16 -10 -21 -22.5t-7 -30.5q-2 -17 -2 -43v-55v-234q0 -4 -2 -7t-8.5 -4.5t-19.5 -2.5t-35 -1h-5q-24 0 -37.5 1t-20 2.5t-8 4.5t-1.5 7v276q0 59 -2 118.5t-5 100.5q0 5 1 8.5t7 5.5t18.5 3t33.5 1h5q37 0 48 -2.5t14 -10.5q2 -7 3.5 -18t3.5 -22q24 28 61.5 45.5
t83.5 17.5t81 -14t58 -40q25 -28 36 -66t11 -95v-268z" />
    <glyph glyph-name="Omacron" unicode="&#x14c;" horiz-adv-x="697" 
d="M356 609q-85 0 -128 -65t-43 -190q0 -130 41 -186.5t115 -56.5q85 0 128 65t43 190q0 130 -41.5 186.5t-114.5 56.5zM359 730q67 0 122.5 -20.5t95.5 -64t62 -112t22 -163.5q0 -86 -20.5 -156.5t-61 -120t-101 -76.5t-140.5 -27q-67 0 -122.5 20.5t-95.5 64t-62 112
t-22 163.5q0 86 20.5 156.5t61 120t101 76.5t140.5 27zM483 924q8 0 10.5 -9t2.5 -32v-14q0 -23 -2.5 -32t-10.5 -9h-270q-8 0 -10.5 9t-2.5 32v14q0 23 2.5 32t10.5 9h270z" />
    <glyph glyph-name="omacron" unicode="&#x14d;" horiz-adv-x="571" 
d="M294 538q112 0 176 -66.5t64 -197.5q0 -137 -65.5 -210.5t-191.5 -73.5q-112 0 -176 66.5t-64 197.5q0 137 65.5 210.5t191.5 73.5zM291 420q-60 0 -86.5 -42.5t-26.5 -117.5q0 -73 24.5 -112.5t77.5 -39.5q60 0 86.5 42.5t26.5 117.5q0 73 -24.5 112.5t-77.5 39.5z
M420 735q8 0 10.5 -9t2.5 -32v-14q0 -23 -2.5 -32t-10.5 -9h-270q-8 0 -10.5 9t-2.5 32v14q0 23 2.5 32t10.5 9h270z" />
    <glyph glyph-name="Obreve" unicode="&#x14e;" horiz-adv-x="697" 
d="M356 609q-85 0 -128 -65t-43 -190q0 -130 41 -186.5t115 -56.5q85 0 128 65t43 190q0 130 -41.5 186.5t-114.5 56.5zM359 730q67 0 122.5 -20.5t95.5 -64t62 -112t22 -163.5q0 -86 -20.5 -156.5t-61 -120t-101 -76.5t-140.5 -27q-67 0 -122.5 20.5t-95.5 64t-62 112
t-22 163.5q0 86 20.5 156.5t61 120t101 76.5t140.5 27zM251 952q23 0 29.5 -3t7.5 -9q10 -57 60 -57q49 0 60 57q1 6 7.5 9t29.5 3h15q26 0 34.5 -2t8.5 -12q-4 -68 -44.5 -104.5t-110.5 -36.5t-110.5 36.5t-44.5 104.5q0 10 8.5 12t34.5 2h15z" />
    <glyph glyph-name="obreve" unicode="&#x14f;" horiz-adv-x="571" 
d="M294 538q112 0 176 -66.5t64 -197.5q0 -137 -65.5 -210.5t-191.5 -73.5q-112 0 -176 66.5t-64 197.5q0 137 65.5 210.5t191.5 73.5zM291 420q-60 0 -86.5 -42.5t-26.5 -117.5q0 -73 24.5 -112.5t77.5 -39.5q60 0 86.5 42.5t26.5 117.5q0 73 -24.5 112.5t-77.5 39.5z
M188 762q23 0 29.5 -3t7.5 -9q10 -57 60 -57q49 0 60 57q1 6 7.5 9t29.5 3h15q26 0 34.5 -2t8.5 -12q-4 -68 -44.5 -104.5t-110.5 -36.5t-110.5 36.5t-44.5 104.5q0 10 8.5 12t34.5 2h15z" />
    <glyph glyph-name="Ohungarumlaut" unicode="&#x150;" horiz-adv-x="697" 
d="M356 609q-85 0 -128 -65t-43 -190q0 -130 41 -186.5t115 -56.5q85 0 128 65t43 190q0 130 -41.5 186.5t-114.5 56.5zM359 730q67 0 122.5 -20.5t95.5 -64t62 -112t22 -163.5q0 -86 -20.5 -156.5t-61 -120t-101 -76.5t-140.5 -27q-67 0 -122.5 20.5t-95.5 64t-62 112
t-22 163.5q0 86 20.5 156.5t61 120t101 76.5t140.5 27zM338 978q23 0 28 -3.5t0 -11.5l-116 -157q-5 -7 -13 -9t-26 -2h-33q-16 0 -22 3t-1 11l92 157q4 7 13 9.5t35 2.5h43zM538 978q23 0 28 -3.5t0 -11.5l-116 -157q-5 -7 -13 -9t-26 -2h-33q-16 0 -22 3t-1 11l92 157
q4 7 13 9.5t35 2.5h43z" />
    <glyph glyph-name="ohungarumlaut" unicode="&#x151;" horiz-adv-x="571" 
d="M294 538q112 0 176 -66.5t64 -197.5q0 -137 -65.5 -210.5t-191.5 -73.5q-112 0 -176 66.5t-64 197.5q0 137 65.5 210.5t191.5 73.5zM291 420q-60 0 -86.5 -42.5t-26.5 -117.5q0 -73 24.5 -112.5t77.5 -39.5q60 0 86.5 42.5t26.5 117.5q0 73 -24.5 112.5t-77.5 39.5z
M283 786q23 0 28 -3.5t0 -11.5l-116 -157q-5 -7 -13 -9t-26 -2h-33q-16 0 -22 3t-1 11l92 157q4 7 13 9.5t35 2.5h43zM483 786q23 0 28 -3.5t0 -11.5l-116 -157q-5 -7 -13 -9t-26 -2h-33q-16 0 -22 3t-1 11l92 157q4 7 13 9.5t35 2.5h43z" />
    <glyph glyph-name="OE" unicode="&#x152;" horiz-adv-x="976" 
d="M485 604q-6 0 -19 1t-29.5 2t-34.5 1.5t-36 0.5q-85 0 -133.5 -65t-48.5 -190q0 -65 12.5 -111t34.5 -75.5t52.5 -43t67.5 -13.5q15 0 34.5 0.5t38.5 1.5t35.5 2t25.5 1v488zM905 720q5 0 8.5 -1t5.5 -6.5t2.5 -16t0.5 -29.5v-8q0 -37 -3.5 -46t-13.5 -9h-275v-182h233
q5 0 8.5 -1t5.5 -6.5t2.5 -16t0.5 -29.5v-8q0 -37 -3.5 -46t-13.5 -9h-233v-190h279q5 0 8.5 -1t5.5 -6.5t2.5 -16t0.5 -29.5v-8q0 -37 -3.5 -46t-13.5 -9h-316q-22 0 -51.5 -1.5t-62 -3.5t-67 -3.5t-66.5 -1.5q-67 0 -124 20.5t-98.5 64t-65 112t-23.5 163.5q0 86 22 156.5
t64 120t104 76.5t142 27q53 0 107 -5t106 -5h325z" />
    <glyph glyph-name="oe" unicode="&#x153;" horiz-adv-x="913" 
d="M536 217q8 -54 41.5 -82t90.5 -28q37 0 72 9t69 23q8 4 13.5 -1t13.5 -28l9 -25q9 -26 8.5 -34t-9.5 -13q-38 -21 -89.5 -34.5t-104.5 -13.5q-118 0 -187 69q-66 -69 -186 -69q-112 0 -176 66.5t-64 197.5q0 137 65.5 210.5t191.5 73.5q113 0 175 -67q32 32 74.5 49.5
t95.5 17.5q57 0 100 -20t72.5 -56t44 -85.5t14.5 -107.5q0 -29 -2 -40.5t-8 -11.5h-324zM291 420q-60 0 -86.5 -42.5t-26.5 -117.5q0 -73 24.5 -112.5t77.5 -39.5q60 0 86.5 42.5t26.5 117.5q0 73 -24.5 112.5t-77.5 39.5zM733 315q-5 47 -28 77.5t-65 30.5t-68 -28.5
t-36 -79.5h197z" />
    <glyph glyph-name="Racute" unicode="&#x154;" horiz-adv-x="615" 
d="M252 720h11q78 0 132 -13q58 -14 97 -55q24 -25 37 -61t13 -84q0 -71 -32 -121.5t-92 -82.5l23 -42q45 -82 82 -139t71 -102q3 -4 3.5 -8t-3.5 -6q-7 -6 -39 -6h-55q-26 0 -38.5 2t-23.5 13q-19 20 -48 67t-75 133l-33 61h-64v-261q0 -9 -14 -12t-54 -3h-11q-42 0 -54 3
t-12 12v690q0 10 8 12.5t37 2.5h134zM218 390h49q70 0 101 33q28 28 28 82q0 46 -24 70q-16 16 -41.5 22.5t-64.5 6.5h-48v-214zM424 978q23 0 29 -4t0 -12l-130 -163q-5 -6 -13.5 -8.5t-27.5 -2.5h-38q-17 0 -23 3t-1 12l106 163q4 7 13 9.5t37 2.5h48z" />
    <glyph glyph-name="racute" unicode="&#x155;" horiz-adv-x="395" 
d="M127 528q37 0 48 -2.5t13 -10.5q1 -3 3 -14t3 -26l4 -31q1 -17 2 -32q24 62 57 94t81 32q17 0 26 -4q3 -1 4.5 -2.5t2.5 -6.5t1.5 -14.5t0.5 -26.5v-14q0 -19 -0.5 -30t-2 -16t-4.5 -6.5t-7 -1.5q-42 -4 -69.5 -21.5t-47.5 -46.5q-19 -29 -28 -73.5t-9 -115.5v-144
q0 -4 -2 -7t-8.5 -4.5t-19.5 -2.5t-35 -1h-5q-24 0 -37.5 1t-20 2.5t-8 4.5t-1.5 7v276q0 59 -2 118.5t-5 100.5q0 5 1 8.5t7 5.5t18.5 3t33.5 1h6zM324 786q23 0 29 -4t0 -12l-130 -163q-5 -6 -13.5 -8.5t-27.5 -2.5h-38q-17 0 -23 3t-1 12l106 163q4 7 13 9.5t37 2.5h48z
" />
    <glyph glyph-name="Rcommaaccent" unicode="&#x156;" horiz-adv-x="615" 
d="M252 720h11q78 0 132 -13q58 -14 97 -55q24 -25 37 -61t13 -84q0 -71 -32 -121.5t-92 -82.5l23 -42q45 -82 82 -139t71 -102q3 -4 3.5 -8t-3.5 -6q-7 -6 -39 -6h-55q-26 0 -38.5 2t-23.5 13q-19 20 -48 67t-75 133l-33 61h-64v-261q0 -9 -14 -12t-54 -3h-11q-42 0 -54 3
t-12 12v690q0 10 8 12.5t37 2.5h134zM218 390h49q70 0 101 33q28 28 28 82q0 46 -24 70q-16 16 -41.5 22.5t-64.5 6.5h-48v-214zM261 -299q-11 9 -2 19q27 34 34 56.5t7 35.5q0 11 -5 19t-11.5 16t-11.5 17t-5 23q0 21 16.5 37.5t44.5 16.5q29 0 47.5 -21.5t18.5 -54.5
q0 -46 -25 -92t-71 -86q-10 -9 -21 0z" />
    <glyph glyph-name="rcommaaccent" unicode="&#x157;" horiz-adv-x="395" 
d="M127 528q37 0 48 -2.5t13 -10.5q1 -3 3 -14t3 -26l4 -31q1 -17 2 -32q24 62 57 94t81 32q17 0 26 -4q3 -1 4.5 -2.5t2.5 -6.5t1.5 -14.5t0.5 -26.5v-14q0 -19 -0.5 -30t-2 -16t-4.5 -6.5t-7 -1.5q-42 -4 -69.5 -21.5t-47.5 -46.5q-19 -29 -28 -73.5t-9 -115.5v-144
q0 -4 -2 -7t-8.5 -4.5t-19.5 -2.5t-35 -1h-5q-24 0 -37.5 1t-20 2.5t-8 4.5t-1.5 7v276q0 59 -2 118.5t-5 100.5q0 5 1 8.5t7 5.5t18.5 3t33.5 1h6zM68 -299q-11 9 -2 19q27 34 34 56.5t7 35.5q0 11 -5 19t-11.5 16t-11.5 17t-5 23q0 21 16.5 37.5t44.5 16.5
q29 0 47.5 -21.5t18.5 -54.5q0 -46 -25 -92t-71 -86q-10 -9 -21 0z" />
    <glyph glyph-name="Rcaron" unicode="&#x158;" horiz-adv-x="615" 
d="M252 720h11q78 0 132 -13q58 -14 97 -55q24 -25 37 -61t13 -84q0 -71 -32 -121.5t-92 -82.5l23 -42q45 -82 82 -139t71 -102q3 -4 3.5 -8t-3.5 -6q-7 -6 -39 -6h-55q-26 0 -38.5 2t-23.5 13q-19 20 -48 67t-75 133l-33 61h-64v-261q0 -9 -14 -12t-54 -3h-11q-42 0 -54 3
t-12 12v690q0 10 8 12.5t37 2.5h134zM218 390h49q70 0 101 33q28 28 28 82q0 46 -24 70q-16 16 -41.5 22.5t-64.5 6.5h-48v-214zM179 948q15 15 22 18.5t15 -3.5l101 -88l101 88q8 7 15 3.5t22 -18.5l10 -10q13 -13 16 -20t-4 -15l-91 -97q-9 -10 -21.5 -13t-40.5 -3h-14
q-28 0 -40.5 3t-21.5 13l-91 97q-8 8 -4.5 15t16.5 20z" />
    <glyph glyph-name="rcaron" unicode="&#x159;" horiz-adv-x="395" 
d="M127 528q37 0 48 -2.5t13 -10.5q1 -3 3 -14t3 -26l4 -31q1 -17 2 -32q24 62 57 94t81 32q17 0 26 -4q3 -1 4.5 -2.5t2.5 -6.5t1.5 -14.5t0.5 -26.5v-14q0 -19 -0.5 -30t-2 -16t-4.5 -6.5t-7 -1.5q-42 -4 -69.5 -21.5t-47.5 -46.5q-19 -29 -28 -73.5t-9 -115.5v-144
q0 -4 -2 -7t-8.5 -4.5t-19.5 -2.5t-35 -1h-5q-24 0 -37.5 1t-20 2.5t-8 4.5t-1.5 7v276q0 59 -2 118.5t-5 100.5q0 5 1 8.5t7 5.5t18.5 3t33.5 1h6zM89 756q15 15 22 18.5t15 -3.5l101 -88l101 88q8 7 15 3.5t22 -18.5l10 -10q13 -13 16 -20t-4 -15l-91 -97
q-9 -10 -21.5 -13t-40.5 -3h-14q-28 0 -40.5 3t-21.5 13l-91 97q-8 8 -4.5 15t16.5 20z" />
    <glyph glyph-name="Sacute" unicode="&#x15a;" horiz-adv-x="552" 
d="M465 601q-14 -28 -20.5 -32.5t-15.5 1.5q-33 20 -61 31t-63 11q-43 0 -68.5 -23t-25.5 -58q0 -19 9.5 -34t25 -27t36.5 -22l41 -22l65 -36q32 -18 58 -43t42 -59t16 -81q0 -48 -15.5 -87.5t-46 -68.5t-76 -45t-105.5 -16q-66 0 -122.5 19.5t-92.5 48.5q-10 8 -10 19
t13 36l12 24q13 24 21 31t18 0q36 -26 74.5 -41.5t77.5 -15.5q49 0 78.5 21.5t29.5 63.5q0 23 -10 40t-26 30t-38 24l-43 22q-32 15 -63 33t-56.5 42t-41 56t-15.5 76q0 50 18.5 89.5t50 66.5t73.5 41t89 14q51 0 98 -13.5t83 -39.5q11 -8 10 -19t-14 -37zM393 978
q23 0 29 -4t0 -12l-130 -163q-5 -6 -13.5 -8.5t-27.5 -2.5h-38q-17 0 -23 3t-1 12l106 163q4 7 13 9.5t37 2.5h48z" />
    <glyph glyph-name="sacute" unicode="&#x15b;" horiz-adv-x="478" 
d="M59 113q13 23 21 30t16 1q29 -20 62.5 -31.5t65.5 -11.5q40 0 62 13.5t22 33.5q0 19 -19 30t-47 20l-62 18q-33 10 -61.5 28t-47.5 47.5t-19 77.5q0 39 16 70.5t43.5 53.5t65.5 33.5t82 11.5q50 0 91.5 -13t73.5 -37q8 -5 5.5 -14t-17.5 -35l-9 -14q-14 -23 -21 -28.5
t-15 -0.5q-24 15 -48.5 23.5t-53.5 8.5q-45 0 -65 -17q-14 -12 -14 -29q0 -19 19 -29.5t47 -19.5l62 -19q33 -11 61.5 -28.5t47.5 -46t19 -73.5q0 -35 -13.5 -66.5t-37.5 -54.5q-57 -55 -165 -55q-58 0 -106.5 17t-79.5 43q-5 4 -5 11q0 9 14 34zM346 786q23 0 29 -4t0 -12
l-130 -163q-5 -6 -13.5 -8.5t-27.5 -2.5h-38q-17 0 -23 3t-1 12l106 163q4 7 13 9.5t37 2.5h48z" />
    <glyph glyph-name="Scircumflex" unicode="&#x15c;" horiz-adv-x="552" 
d="M465 601q-14 -28 -20.5 -32.5t-15.5 1.5q-33 20 -61 31t-63 11q-43 0 -68.5 -23t-25.5 -58q0 -19 9.5 -34t25 -27t36.5 -22l41 -22l65 -36q32 -18 58 -43t42 -59t16 -81q0 -48 -15.5 -87.5t-46 -68.5t-76 -45t-105.5 -16q-66 0 -122.5 19.5t-92.5 48.5q-10 8 -10 19
t13 36l12 24q13 24 21 31t18 0q36 -26 74.5 -41.5t77.5 -15.5q49 0 78.5 21.5t29.5 63.5q0 23 -10 40t-26 30t-38 24l-43 22q-32 15 -63 33t-56.5 42t-41 56t-15.5 76q0 50 18.5 89.5t50 66.5t73.5 41t89 14q51 0 98 -13.5t83 -39.5q11 -8 10 -19t-14 -37zM231 952
q9 10 21.5 13t40.5 3h14q28 0 40.5 -3t21.5 -13l91 -97q8 -8 4.5 -15t-16.5 -20l-10 -10q-15 -15 -22 -18.5t-15 3.5l-101 88l-101 -88q-8 -7 -15 -3.5t-22 18.5l-10 10q-13 13 -16.5 20t4.5 15z" />
    <glyph glyph-name="scircumflex" unicode="&#x15d;" horiz-adv-x="478" 
d="M59 113q13 23 21 30t16 1q29 -20 62.5 -31.5t65.5 -11.5q40 0 62 13.5t22 33.5q0 19 -19 30t-47 20l-62 18q-33 10 -61.5 28t-47.5 47.5t-19 77.5q0 39 16 70.5t43.5 53.5t65.5 33.5t82 11.5q50 0 91.5 -13t73.5 -37q8 -5 5.5 -14t-17.5 -35l-9 -14q-14 -23 -21 -28.5
t-15 -0.5q-24 15 -48.5 23.5t-53.5 8.5q-45 0 -65 -17q-14 -12 -14 -29q0 -19 19 -29.5t47 -19.5l62 -19q33 -11 61.5 -28.5t47.5 -46t19 -73.5q0 -35 -13.5 -66.5t-37.5 -54.5q-57 -55 -165 -55q-58 0 -106.5 17t-79.5 43q-5 4 -5 11q0 9 14 34zM190 760q9 10 21.5 13
t40.5 3h14q28 0 40.5 -3t21.5 -13l91 -97q8 -8 4.5 -15t-16.5 -20l-10 -10q-15 -15 -22 -18.5t-15 3.5l-101 88l-101 -88q-8 -7 -15 -3.5t-22 18.5l-10 10q-13 13 -16.5 20t4.5 15z" />
    <glyph glyph-name="Scedilla" unicode="&#x15e;" horiz-adv-x="552" 
d="M465 601q-14 -28 -20.5 -32.5t-15.5 1.5q-33 20 -61 31t-63 11q-43 0 -68.5 -23t-25.5 -58q0 -19 9.5 -34t25.5 -27t36 -22l41 -22l65 -36q32 -18 58 -43t42 -59t16 -81q0 -88 -51 -146.5t-154 -68.5l-2 -29q46 -2 76 -24t30 -70q0 -21 -7.5 -40.5t-23.5 -34.5t-39.5 -24
t-56.5 -9q-47 0 -78 13q-6 2 -7 8.5t4 26.5l3 11q5 17 8.5 23t13.5 3q11 -3 23.5 -4.5t22.5 -1.5q20 0 29.5 8t9.5 21q0 14 -10 22t-35 8q-11 0 -27 -1t-33 -3l14 98q-52 5 -95.5 23t-72.5 42q-10 8 -10 19t13 36l12 24q13 24 21 31t18 0q36 -26 74.5 -41.5t77.5 -15.5
q49 0 78.5 21.5t29.5 63.5q0 23 -10 40t-26 30t-38 24l-43 22q-32 15 -63 33t-56.5 42t-41 56t-15.5 76q0 50 18.5 89.5t50 66.5t73.5 41t89 14q51 0 98 -13.5t83 -39.5q11 -8 10 -19t-14 -37z" />
    <glyph glyph-name="scedilla" unicode="&#x15f;" horiz-adv-x="478" 
d="M59 113q13 23 21 30t16 1q29 -20 62.5 -31.5t65.5 -11.5q40 0 62 13.5t22 33.5q0 19 -19 30q-19 12 -47 20l-62 18q-33 10 -61.5 28t-47.5 47.5t-19 77.5q0 39 16 70.5t43.5 53.5t65.5 33.5t82 11.5q50 0 91.5 -13t73.5 -37q8 -5 5.5 -14t-17.5 -35l-9 -14
q-14 -23 -21 -28.5t-15 -0.5q-24 15 -48.5 23.5t-53.5 8.5q-45 0 -65 -17q-14 -12 -14 -29q0 -19 19 -29.5t47 -19.5l62 -19q33 -10 61.5 -28t47.5 -46.5t19 -73.5q0 -35 -13.5 -66.5t-37.5 -54.5q-43 -42 -119 -52l-2 -30q46 -2 76 -24t30 -70q0 -21 -7.5 -40.5
t-23.5 -34.5t-39.5 -24t-56.5 -9q-47 0 -78 13q-6 2 -7 8.5t4 26.5l3 11q5 17 8.5 23t13.5 3q11 -3 23.5 -4.5t22.5 -1.5q20 0 29.5 8t9.5 21q0 14 -10 22t-35 8q-11 0 -27 -1t-33 -3l14 97q-46 5 -83.5 20.5t-63.5 37.5q-6 5 -4.5 14t13.5 31z" />
    <glyph glyph-name="Scaron" unicode="&#x160;" horiz-adv-x="552" 
d="M465 601q-14 -28 -20.5 -32.5t-15.5 1.5q-33 20 -61 31t-63 11q-43 0 -68.5 -23t-25.5 -58q0 -19 9.5 -34t25 -27t36.5 -22l41 -22l65 -36q32 -18 58 -43t42 -59t16 -81q0 -48 -15.5 -87.5t-46 -68.5t-76 -45t-105.5 -16q-66 0 -122.5 19.5t-92.5 48.5q-10 8 -10 19
t13 36l12 24q13 24 21 31t18 0q36 -26 74.5 -41.5t77.5 -15.5q49 0 78.5 21.5t29.5 63.5q0 23 -10 40t-26 30t-38 24l-43 22q-32 15 -63 33t-56.5 42t-41 56t-15.5 76q0 50 18.5 89.5t50 66.5t73.5 41t89 14q51 0 98 -13.5t83 -39.5q11 -8 10 -19t-14 -37zM156 948
q15 15 22 18.5t15 -3.5l101 -88l101 88q8 7 15 3.5t22 -18.5l10 -10q13 -13 16 -20t-4 -15l-91 -97q-9 -10 -21.5 -13t-40.5 -3h-14q-28 0 -40.5 3t-21.5 13l-91 97q-8 8 -4.5 15t16.5 20z" />
    <glyph glyph-name="scaron" unicode="&#x161;" horiz-adv-x="478" 
d="M59 113q13 23 21 30t16 1q29 -20 62.5 -31.5t65.5 -11.5q40 0 62 13.5t22 33.5q0 19 -19 30t-47 20l-62 18q-33 10 -61.5 28t-47.5 47.5t-19 77.5q0 39 16 70.5t43.5 53.5t65.5 33.5t82 11.5q50 0 91.5 -13t73.5 -37q8 -5 5.5 -14t-17.5 -35l-9 -14q-14 -23 -21 -28.5
t-15 -0.5q-24 15 -48.5 23.5t-53.5 8.5q-45 0 -65 -17q-14 -12 -14 -29q0 -19 19 -29.5t47 -19.5l62 -19q33 -11 61.5 -28.5t47.5 -46t19 -73.5q0 -35 -13.5 -66.5t-37.5 -54.5q-57 -55 -165 -55q-58 0 -106.5 17t-79.5 43q-5 4 -5 11q0 9 14 34zM113 756q15 15 22 18.5
t15 -3.5l101 -88l101 88q8 7 15 3.5t22 -18.5l10 -10q13 -13 16 -20t-4 -15l-91 -97q-9 -10 -21.5 -13t-40.5 -3h-14q-28 0 -40.5 3t-21.5 13l-91 97q-8 8 -4.5 15t16.5 20z" />
    <glyph glyph-name="Tcommaaccent" unicode="&#x162;" horiz-adv-x="542" 
d="M509 720q5 0 8.5 -1t5.5 -6.5t2.5 -16t0.5 -29.5v-8q0 -37 -3.5 -46t-13.5 -9h-166v-589q0 -9 -14 -12t-54 -3h-11q-42 0 -54 3t-12 12v589h-165q-5 0 -8 1.5t-5 7t-3 16.5t-1 30v8q0 20 0.5 30.5t2.5 15.5t5.5 6t8.5 1h476zM196 -299q-11 9 -2 19q27 34 34 56.5t7 35.5
q0 11 -5 19t-11.5 16t-11.5 17t-5 23q0 21 16.5 37.5t44.5 16.5q29 0 47.5 -21.5t18.5 -54.5q0 -46 -25 -92t-71 -86q-10 -9 -21 0z" />
    <glyph glyph-name="tcommaaccent" unicode="&#x163;" horiz-adv-x="405" 
d="M168 672q22 0 35 -1t19.5 -2.5t8.5 -4.5t2 -7v-129h119q7 0 10 -7t3 -43v-7q0 -36 -3 -43t-10 -7h-119v-247q0 -22 4 -35t13 -21q16 -14 44 -14q12 0 25 2.5t27 7.5q8 2 13 -5t13 -35l3 -10q8 -26 8 -35t-10 -14q-24 -12 -55 -18.5t-60 -6.5q-42 0 -71.5 10.5t-49.5 30.5
q-21 21 -31 53.5t-10 81.5v255h-69q-7 0 -10 7t-3 43v7q0 36 3 43t10 7h69v129q0 4 1.5 7t8 4.5t20 2.5t37.5 1h5zM171 -299q-11 9 -2 19q27 34 34 56.5t7 35.5q0 11 -5 19t-11.5 16t-11.5 17t-5 23q0 21 16.5 37.5t44.5 16.5q29 0 47.5 -21.5t18.5 -54.5q0 -46 -25 -92
t-71 -86q-10 -9 -21 0z" />
    <glyph glyph-name="Tcaron" unicode="&#x164;" horiz-adv-x="542" 
d="M509 720q5 0 8.5 -1t5.5 -6.5t2.5 -16t0.5 -29.5v-8q0 -37 -3.5 -46t-13.5 -9h-166v-589q0 -9 -14 -12t-54 -3h-11q-42 0 -54 3t-12 12v589h-165q-5 0 -8 1.5t-5 7t-3 16.5t-1 30v8q0 20 0.5 30.5t2.5 15.5t5.5 6t8.5 1h476zM133 948q15 15 22 18.5t15 -3.5l101 -88
l101 88q8 7 15 3.5t22 -18.5l10 -10q13 -13 16 -20t-4 -15l-91 -97q-9 -10 -21.5 -13t-40.5 -3h-14q-28 0 -40.5 3t-21.5 13l-91 97q-8 8 -4.5 15t16.5 20z" />
    <glyph glyph-name="tcaron" unicode="&#x165;" horiz-adv-x="405" 
d="M168 672q22 0 35 -1t19.5 -2.5t8.5 -4.5t2 -7v-129h119q7 0 10 -7t3 -43v-7q0 -36 -3 -43t-10 -7h-119v-247q0 -22 4 -35t13 -21q16 -14 44 -14q12 0 25 2.5t27 7.5q8 2 13 -5t13 -35l3 -10q8 -26 8 -35t-10 -14q-24 -12 -55 -18.5t-60 -6.5q-42 0 -71.5 10.5t-49.5 30.5
q-21 21 -31 53.5t-10 81.5v255h-69q-7 0 -10 7t-3 43v7q0 36 3 43t10 7h69v129q0 4 1.5 7t8 4.5t20 2.5t37.5 1h5zM291 610q-11 9 -2 19q27 34 34 56.5t7 35.5q0 11 -5 19t-11.5 16t-11.5 17t-5 23q0 21 16.5 37.5t44.5 16.5q29 0 47.5 -21.5t18.5 -54.5q0 -46 -25 -92
t-71 -86q-10 -9 -21 0z" />
    <glyph glyph-name="Tbar" unicode="&#x166;" horiz-adv-x="542" 
d="M509 720q5 0 8.5 -1t5.5 -6.5t2.5 -16t0.5 -29.5v-8q0 -37 -3.5 -46t-13.5 -9h-166v-189h101q8 0 11 -8.5t3 -41.5v-6q0 -33 -3 -41.5t-11 -8.5h-101v-294q0 -9 -14 -12t-54 -3h-11q-42 0 -54 3t-12 12v294h-101q-8 0 -11 8.5t-3 41.5v6q0 33 3 41.5t11 8.5h101v189h-165
q-5 0 -8 1.5t-5 7t-3 16.5t-1 30v8q0 20 0.5 30.5t2.5 15.5t5.5 6t8.5 1h476z" />
    <glyph glyph-name="tbar" unicode="&#x167;" horiz-adv-x="405" 
d="M168 672q22 0 35 -1t19.5 -2.5t8.5 -4.5t2 -7v-129h119q7 0 10 -7t3 -43v-7q0 -36 -3 -43t-10 -7h-119v-102h101q8 0 11 -8t3 -41t-3 -41t-11 -8h-101v-47q0 -22 4 -35t13 -21q16 -14 44 -14q12 0 25 2.5t27 7.5q8 2 13 -5t13 -35l3 -10q8 -28 7.5 -36t-9.5 -13
q-24 -12 -55 -18.5t-60 -6.5q-42 0 -71.5 10.5t-49.5 30.5q-21 21 -31 53.5t-10 81.5v55h-64q-8 0 -11 8t-3 41t3 41t11 8h64v102h-69q-7 0 -10 7t-3 43v7q0 36 3 43t10 7h69v129q0 4 1.5 7t8 4.5t20 2.5t37.5 1h5z" />
    <glyph glyph-name="Utilde" unicode="&#x168;" horiz-adv-x="692" 
d="M146 720q40 0 54 -3.5t14 -11.5v-433q0 -50 9.5 -80.5t28.5 -49.5q17 -17 40.5 -24t53.5 -7q61 0 96 35q19 20 29 50t10 76v433q0 8 12 11.5t54 3.5h8q40 0 54 -3.5t14 -11.5v-413q0 -84 -16.5 -137.5t-51.5 -90.5q-71 -74 -213 -74q-72 0 -125.5 18.5t-88.5 57.5
q-29 33 -44 80.5t-15 124.5v434q0 8 12 11.5t54 3.5h11zM189 840q-14 14 -18 21.5t2 15.5q23 28 51.5 47.5t63.5 19.5q19 0 35.5 -6t30.5 -12l25 -13q12 -6 24 -6q15 0 29 8t30 24q4 4 11 2t25 -20l4 -4q14 -14 18 -21.5t-2 -15.5q-23 -28 -51.5 -47.5t-63.5 -19.5
q-19 0 -35 6q-16 7 -30 13l-26 12q-12 6 -24 6q-15 0 -29 -8t-30 -24q-4 -4 -11 -2t-25 20z" />
    <glyph glyph-name="utilde" unicode="&#x169;" horiz-adv-x="587" 
d="M135 528q22 0 35 -1t19.5 -2.5t8.5 -4.5t2 -7v-270q0 -26 1 -43.5t3 -29.5t6 -20t10 -15q20 -23 66 -23q17 0 34.5 4t31.5 12q16 10 21 22.5t7 30.5q2 17 2 43v55v234q0 4 1.5 7t8 4.5t20 2.5t37.5 1h5q22 0 35 -1t19.5 -2.5t8.5 -4.5t2 -7v-276q0 -59 2 -118.5t5 -100.5
q0 -5 -1 -8.5t-7 -5.5t-18.5 -3t-33.5 -1h-5q-37 0 -48 2.5t-14 10.5q-2 7 -3.5 18t-3.5 22q-24 -29 -61 -46t-83 -17t-80.5 14t-57.5 40q-25 28 -36 66t-11 95v308q0 4 1.5 7t8 4.5t20 2.5t37.5 1h5zM137 647q-14 14 -18 21.5t2 15.5q23 28 51.5 47.5t63.5 19.5q19 0 36 -6
q16 -7 30 -13l25 -12q12 -6 24 -6q15 0 29 8t30 24q4 4 11 2t25 -20l4 -4q14 -14 18 -21.5t-2 -15.5q-23 -28 -51.5 -47.5t-63.5 -19.5q-19 0 -35 6t-30 12l-26 13q-12 6 -24 6q-15 0 -29 -8t-30 -24q-4 -4 -11 -2t-25 20z" />
    <glyph glyph-name="Umacron" unicode="&#x16a;" horiz-adv-x="692" 
d="M146 720q40 0 54 -3.5t14 -11.5v-433q0 -50 9.5 -80.5t28.5 -49.5q17 -17 40.5 -24t53.5 -7q61 0 96 35q19 20 29 50t10 76v433q0 8 12 11.5t54 3.5h8q40 0 54 -3.5t14 -11.5v-413q0 -84 -16.5 -137.5t-51.5 -90.5q-71 -74 -213 -74q-72 0 -125.5 18.5t-88.5 57.5
q-29 33 -44 80.5t-15 124.5v434q0 8 12 11.5t54 3.5h11zM481 924q8 0 10.5 -9t2.5 -32v-14q0 -23 -2.5 -32t-10.5 -9h-270q-8 0 -10.5 9t-2.5 32v14q0 23 2.5 32t10.5 9h270z" />
    <glyph glyph-name="umacron" unicode="&#x16b;" horiz-adv-x="587" 
d="M135 528q22 0 35 -1t19.5 -2.5t8.5 -4.5t2 -7v-270q0 -26 1 -43.5t3 -29.5t6 -20t10 -15q20 -23 66 -23q17 0 34.5 4t31.5 12q16 10 21 22.5t7 30.5q2 17 2 43v55v234q0 4 1.5 7t8 4.5t20 2.5t37.5 1h5q22 0 35 -1t19.5 -2.5t8.5 -4.5t2 -7v-276q0 -59 2 -118.5t5 -100.5
q0 -5 -1 -8.5t-7 -5.5t-18.5 -3t-33.5 -1h-5q-37 0 -48 2.5t-14 10.5q-2 7 -3.5 18t-3.5 22q-24 -29 -61 -46t-83 -17t-80.5 14t-57.5 40q-25 28 -36 66t-11 95v308q0 4 1.5 7t8 4.5t20 2.5t37.5 1h5zM428 735q8 0 10.5 -9t2.5 -32v-14q0 -23 -2.5 -32t-10.5 -9h-270
q-8 0 -10.5 9t-2.5 32v14q0 23 2.5 32t10.5 9h270z" />
    <glyph glyph-name="Ubreve" unicode="&#x16c;" horiz-adv-x="692" 
d="M146 720q40 0 54 -3.5t14 -11.5v-433q0 -50 9.5 -80.5t28.5 -49.5q17 -17 40.5 -24t53.5 -7q61 0 96 35q19 20 29 50t10 76v433q0 8 12 11.5t54 3.5h8q40 0 54 -3.5t14 -11.5v-413q0 -84 -16.5 -137.5t-51.5 -90.5q-71 -74 -213 -74q-72 0 -125.5 18.5t-88.5 57.5
q-29 33 -44 80.5t-15 124.5v434q0 8 12 11.5t54 3.5h11zM249 952q23 0 29.5 -3t7.5 -9q10 -57 60 -57q49 0 60 57q1 6 7.5 9t29.5 3h15q26 0 34.5 -2t8.5 -12q-4 -68 -44.5 -104.5t-110.5 -36.5t-110.5 36.5t-44.5 104.5q0 10 8.5 12t34.5 2h15z" />
    <glyph glyph-name="ubreve" unicode="&#x16d;" horiz-adv-x="587" 
d="M135 528q22 0 35 -1t19.5 -2.5t8.5 -4.5t2 -7v-270q0 -26 1 -43.5t3 -29.5t6 -20t10 -15q20 -23 66 -23q17 0 34.5 4t31.5 12q16 10 21 22.5t7 30.5q2 17 2 43v55v234q0 4 1.5 7t8 4.5t20 2.5t37.5 1h5q22 0 35 -1t19.5 -2.5t8.5 -4.5t2 -7v-276q0 -59 2 -118.5t5 -100.5
q0 -5 -1 -8.5t-7 -5.5t-18.5 -3t-33.5 -1h-5q-37 0 -48 2.5t-14 10.5q-2 7 -3.5 18t-3.5 22q-24 -29 -61 -46t-83 -17t-80.5 14t-57.5 40q-25 28 -36 66t-11 95v308q0 4 1.5 7t8 4.5t20 2.5t37.5 1h5zM196 762q23 0 29.5 -3t7.5 -9q10 -57 60 -57q49 0 60 57q1 6 7.5 9
t29.5 3h15q26 0 34.5 -2t8.5 -12q-4 -68 -44.5 -104.5t-110.5 -36.5t-110.5 36.5t-44.5 104.5q0 10 8.5 12t34.5 2h15z" />
    <glyph glyph-name="Uring" unicode="&#x16e;" horiz-adv-x="692" 
d="M146 720q40 0 54 -3.5t14 -11.5v-433q0 -50 9.5 -80.5t28.5 -49.5q17 -17 40.5 -24t53.5 -7q61 0 96 35q19 20 29 50t10 76v433q0 8 12 11.5t54 3.5h8q40 0 54 -3.5t14 -11.5v-413q0 -84 -16.5 -137.5t-51.5 -90.5q-71 -74 -213 -74q-72 0 -125.5 18.5t-88.5 57.5
q-29 33 -44 80.5t-15 124.5v434q0 8 12 11.5t54 3.5h11zM232 901q0 23 9 43t24.5 34.5t36.5 23t44 8.5t43.5 -8.5t36 -23t24.5 -34.5t9 -43t-9 -43t-24.5 -35t-36 -23.5t-43.5 -8.5t-44 8.5t-36.5 23.5t-24.5 35t-9 43zM306 901q0 -17 11.5 -28.5t28.5 -11.5t27.5 11.5
t10.5 28.5q0 16 -10.5 27.5t-27.5 11.5t-28.5 -11t-11.5 -28z" />
    <glyph glyph-name="uring" unicode="&#x16f;" horiz-adv-x="587" 
d="M135 528q22 0 35 -1t19.5 -2.5t8.5 -4.5t2 -7v-270q0 -26 1 -43.5t3 -29.5t6 -20t10 -15q20 -23 66 -23q17 0 34.5 4t31.5 12q16 10 21 22.5t7 30.5q2 17 2 43v55v234q0 4 1.5 7t8 4.5t20 2.5t37.5 1h5q22 0 35 -1t19.5 -2.5t8.5 -4.5t2 -7v-276q0 -59 2 -118.5t5 -100.5
q0 -5 -1 -8.5t-7 -5.5t-18.5 -3t-33.5 -1h-5q-37 0 -48 2.5t-14 10.5q-2 7 -3.5 18t-3.5 22q-24 -29 -61 -46t-83 -17t-80.5 14t-57.5 40q-25 28 -36 66t-11 95v308q0 4 1.5 7t8 4.5t20 2.5t37.5 1h5zM180 701q0 23 9 43t24.5 34.5t36.5 23t44 8.5t43.5 -8.5t36 -23
t24.5 -34.5t9 -43t-9 -43t-24.5 -35t-36 -23.5t-43.5 -8.5t-44 8.5t-36.5 23.5t-24.5 35t-9 43zM254 701q0 -17 11.5 -28.5t28.5 -11.5t27.5 11.5t10.5 28.5q0 16 -10.5 27.5t-27.5 11.5t-28.5 -11t-11.5 -28z" />
    <glyph glyph-name="Uhungarumlaut" unicode="&#x170;" horiz-adv-x="692" 
d="M146 720q40 0 54 -3.5t14 -11.5v-433q0 -50 9.5 -80.5t28.5 -49.5q17 -17 40.5 -24t53.5 -7q61 0 96 35q19 20 29 50t10 76v433q0 8 12 11.5t54 3.5h8q40 0 54 -3.5t14 -11.5v-413q0 -84 -16.5 -137.5t-51.5 -90.5q-71 -74 -213 -74q-72 0 -125.5 18.5t-88.5 57.5
q-29 33 -44 80.5t-15 124.5v434q0 8 12 11.5t54 3.5h11zM353 978q23 0 28 -3.5t0 -11.5l-116 -157q-5 -7 -13 -9t-26 -2h-33q-16 0 -22 3t-1 11l92 157q4 7 13 9.5t35 2.5h43zM553 978q23 0 28 -3.5t0 -11.5l-116 -157q-5 -7 -13 -9t-26 -2h-33q-16 0 -22 3t-1 11l92 157
q4 7 13 9.5t35 2.5h43z" />
    <glyph glyph-name="uhungarumlaut" unicode="&#x171;" horiz-adv-x="587" 
d="M135 528q22 0 35 -1t19.5 -2.5t8.5 -4.5t2 -7v-270q0 -26 1 -43.5t3 -29.5t6 -20t10 -15q20 -23 66 -23q17 0 34.5 4t31.5 12q16 10 21 22.5t7 30.5q2 17 2 43v55v234q0 4 1.5 7t8 4.5t20 2.5t37.5 1h5q22 0 35 -1t19.5 -2.5t8.5 -4.5t2 -7v-276q0 -59 2 -118.5t5 -100.5
q0 -5 -1 -8.5t-7 -5.5t-18.5 -3t-33.5 -1h-5q-37 0 -48 2.5t-14 10.5q-2 7 -3.5 18t-3.5 22q-24 -29 -61 -46t-83 -17t-80.5 14t-57.5 40q-25 28 -36 66t-11 95v308q0 4 1.5 7t8 4.5t20 2.5t37.5 1h5zM291 786q23 0 28 -3.5t0 -11.5l-116 -157q-5 -7 -13 -9t-26 -2h-33
q-16 0 -22 3t-1 11l92 157q4 7 13 9.5t35 2.5h43zM491 786q23 0 28 -3.5t0 -11.5l-116 -157q-5 -7 -13 -9t-26 -2h-33q-16 0 -22 3t-1 11l92 157q4 7 13 9.5t35 2.5h43z" />
    <glyph glyph-name="Uogonek" unicode="&#x172;" horiz-adv-x="692" 
d="M146 720q40 0 54 -3.5t14 -11.5v-433q0 -50 9.5 -80.5t28.5 -49.5q17 -17 40.5 -24t53.5 -7q61 0 96 35q19 20 29 50t10 76v433q0 8 12 11.5t54 3.5h8q40 0 54 -3.5t14 -11.5v-413q0 -84 -16.5 -137.5t-51.5 -90.5q-13 -14 -33 -28l-42 -28l-43 -28q-21 -14 -37 -31
q-13 -14 -20 -27t-7 -30q0 -18 11 -30.5t31 -12.5q19 0 42 10q6 2 10 -2.5t12 -24.5l4 -12q6 -19 6 -26.5t-8 -12.5q-17 -9 -39 -15t-45 -6q-25 0 -47.5 7.5t-40 22.5t-27.5 36.5t-10 50.5q0 31 17.5 61.5t45.5 51.5q-69 2 -121.5 20t-85.5 56q-29 33 -44 80.5t-15 124.5
v434q0 8 12 11.5t54 3.5h11z" />
    <glyph glyph-name="uogonek" unicode="&#x173;" horiz-adv-x="587" 
d="M300 -123q0 42 23.5 75t74.5 63q-2 8 -3 17.5t-3 20.5q-24 -29 -61 -46t-83 -17t-80.5 14t-57.5 40q-25 28 -36 66t-11 95v308q0 4 1.5 7t8 4.5t20 2.5t37.5 1h5q22 0 35 -1t19.5 -2.5t8.5 -4.5t2 -7v-270q0 -26 1 -43.5t3 -29.5t6 -20t10 -15q20 -23 66 -23q17 0 34.5 4
t31.5 12q16 10 21 22.5t7 30.5q2 17 2 43v55v234q0 4 1.5 7t8 4.5t20 2.5t37.5 1h5q22 0 35 -1t19.5 -2.5t8.5 -4.5t2 -7v-276q0 -59 1.5 -118.5t5.5 -100.5q1 -7 -1 -10t-10 -5q-23 -5 -43.5 -15t-36.5 -24.5t-25 -32t-9 -37.5q0 -23 11.5 -34t30.5 -11q9 0 20 2.5t20 5.5
q8 2 12.5 -1.5t11.5 -23.5l4 -12q6 -19 6 -26.5t-8 -12.5q-17 -9 -40 -15t-43 -6q-58 0 -92 32t-34 85z" />
    <glyph glyph-name="Wcircumflex" unicode="&#x174;" horiz-adv-x="964" 
d="M108 720q43 0 56.5 -3.5t15.5 -13.5l73 -293q15 -60 29 -125.5t22 -122.5q3 24 7.5 54.5t10.5 63.5l11 67q6 34 13 64l67 292q1 5 4 8.5t10.5 5.5t21 2.5t35.5 0.5h9q44 0 57.5 -4t15.5 -13l67 -284l15 -69q7 -36 13 -71.5t11 -69t8 -60.5q3 27 8.5 60t12.5 68l14 71
q7 36 15 69l67 286q2 10 14 13.5t56 3.5h6q23 0 36 -1t20 -3.5t8 -5.5q0 -2 0.5 -3.5t-0.5 -3.5l-181 -686q-2 -9 -15.5 -13t-56.5 -4h-13q-46 0 -62 3t-18 14l-55 226q-8 33 -16 69l-14 72q-7 36 -12.5 70.5t-8.5 64.5q-8 -61 -20.5 -133t-27.5 -137l-55 -232
q-2 -9 -15.5 -13t-56.5 -4h-21q-23 0 -36.5 0.5t-21 2.5t-10.5 5.5t-4 8.5l-190 686q-1 3 -1 5v3q2 3 9 5t21 3t38 1h14zM413 952q9 10 21.5 13t40.5 3h14q28 0 40.5 -3t21.5 -13l91 -97q8 -8 4.5 -15t-16.5 -20l-10 -10q-15 -15 -22 -18.5t-15 3.5l-101 88l-101 -88
q-8 -7 -15 -3.5t-22 18.5l-10 10q-13 13 -16.5 20t4.5 15z" />
    <glyph glyph-name="wcircumflex" unicode="&#x175;" horiz-adv-x="791" 
d="M76 528q42 0 54.5 -3.5t14.5 -12.5l48 -187l11 -49q7 -28 12.5 -56.5t9.5 -53.5t6 -39q2 14 8 39l12 54l14 56l13 46l52 190q1 5 4 8t10 5t19.5 2.5t33.5 0.5h9q40 0 51 -3.5t13 -10.5l49 -188l14 -58q7 -29 12 -56l10 -48q5 -21 7 -34q13 41 25 89.5t22.5 98.5t20 100
t16.5 94q1 5 2.5 8t8 5t19 2.5t35.5 0.5h4q37 0 48 -3q10 -3 10 -10q0 -16 -3 -34.5t-10.5 -47t-9.5 -38.5q-14 -63 -32 -128t-39 -130t-45 -123q-2 -5 -5.5 -7.5t-11.5 -4t-21.5 -2t-35.5 -0.5h-8q-25 0 -39.5 0.5t-22.5 2t-10.5 4t-3.5 6.5l-45 164q-14 51 -25 99t-16 92
q-5 -46 -16 -96.5t-25 -95.5l-48 -163q-1 -3 -4 -5.5t-10.5 -4t-21.5 -2.5t-36 -1h-10q-21 0 -34.5 0.5t-21 2t-11 4t-4.5 6.5l-141 496q-1 3 -1 6q0 5 7 9q7 2 21 3t38 1h3zM326 760q9 10 21.5 13t40.5 3h14q28 0 40.5 -3t21.5 -13l91 -97q8 -8 4.5 -15t-16.5 -20l-10 -10
q-15 -15 -22 -18.5t-15 3.5l-101 88l-101 -88q-8 -7 -15 -3.5t-22 18.5l-10 10q-13 13 -16.5 20t4.5 15z" />
    <glyph glyph-name="Ycircumflex" unicode="&#x176;" horiz-adv-x="591" 
d="M98 720q21 0 34 -1t21.5 -2.5t12.5 -5t6 -7.5l72 -150q18 -38 35 -78t26 -68l25 67q16 40 34 79l70 151q2 4 4.5 7t9.5 4.5t19 2.5t33 1h22q21 0 33 -1t18 -3q7 -1 7 -7q0 -2 -1 -5l-212 -424v-265q0 -9 -14 -12t-54 -3h-11q-42 0 -54 3t-12 12v265l-210 423q-2 3 -2 6
q0 5 8 7q7 2 20.5 3t36.5 1h23zM234 952q9 10 21.5 13t40.5 3h14q28 0 40.5 -3t21.5 -13l91 -97q8 -8 4.5 -15t-16.5 -20l-10 -10q-15 -15 -22 -18.5t-15 3.5l-101 88l-101 -88q-8 -7 -15 -3.5t-22 18.5l-10 10q-13 13 -16.5 20t4.5 15z" />
    <glyph glyph-name="ycircumflex" unicode="&#x177;" horiz-adv-x="532" 
d="M100 528q22 0 35 -1t19.5 -2.5t9 -4.5t4.5 -7l62 -196q16 -51 27 -95t18 -85q8 39 19 84.5t25 93.5l58 198q1 4 4 7t9.5 4.5t18 2.5t31.5 1h13q23 0 36 -1t19 -3q7 -3 7 -9q0 -2 -1 -5l-171 -501q-22 -64 -46 -109.5t-53.5 -75t-67 -43.5t-86.5 -14q-32 0 -62 7t-46 18
q-6 4 -6 11.5t8 35.5l4 14q8 26 13.5 34t16.5 4q12 -4 30 -7t32 -3q20 0 37 5t32 18t28.5 35.5t26.5 57.5l-180 513q-2 4 -1 7.5t7.5 6t19.5 3.5t37 1h13zM210 760q9 10 21.5 13t40.5 3h14q28 0 40.5 -3t21.5 -13l91 -97q8 -8 4.5 -15t-16.5 -20l-10 -10q-15 -15 -22 -18.5
t-15 3.5l-101 88l-101 -88q-8 -7 -15 -3.5t-22 18.5l-10 10q-13 13 -16.5 20t4.5 15z" />
    <glyph glyph-name="Ydieresis" unicode="&#x178;" horiz-adv-x="591" 
d="M98 720q21 0 34 -1t21.5 -2.5t12.5 -5t6 -7.5l72 -150q18 -38 35 -78t26 -68l25 67q16 40 34 79l70 151q2 4 4.5 7t9.5 4.5t19 2.5t33 1h22q21 0 33 -1t18 -3q7 -1 7 -7q0 -2 -1 -5l-212 -424v-265q0 -9 -14 -12t-54 -3h-11q-42 0 -54 3t-12 12v265l-210 423q-2 3 -2 6
q0 5 8 7q7 2 20.5 3t36.5 1h23zM113 871q0 29 20.5 50t52.5 21t52.5 -21t20.5 -50t-20.5 -49t-52.5 -20t-52.5 20t-20.5 49zM331 871q0 29 19.5 50t51.5 21q33 0 54 -21t21 -50t-21 -49t-54 -20q-32 0 -51.5 20t-19.5 49z" />
    <glyph glyph-name="Zacute" unicode="&#x179;" horiz-adv-x="575" 
d="M478 720q29 0 37 -2.5t8 -12.5v-52q0 -17 -4 -33t-17 -36l-291 -468h306q5 0 8.5 -1t5.5 -6t2.5 -15.5t0.5 -30.5v-8q0 -19 -1 -30t-3 -16.5t-5 -7t-8 -1.5h-431q-29 0 -37 2.5t-8 12.5v52q0 17 4.5 33t17.5 36l291 468h-281q-5 0 -8 1.5t-5 7t-3 16.5t-1 30v8
q0 20 0.5 30.5t2.5 15.5t5.5 6t8.5 1h405zM404 978q23 0 29 -4t0 -12l-130 -163q-5 -6 -13.5 -8.5t-27.5 -2.5h-38q-17 0 -23 3t-1 12l106 163q4 7 13 9.5t37 2.5h48z" />
    <glyph glyph-name="zacute" unicode="&#x17a;" horiz-adv-x="480" 
d="M406 528q24 0 30 -3t6 -11v-36q0 -17 -3.5 -27t-11.5 -23l-217 -322h225q7 0 10 -7.5t3 -43.5v-4q0 -36 -3 -43.5t-10 -7.5h-362q-24 0 -30 3t-6 11v36q0 17 3.5 27t11.5 23l219 322h-208q-7 0 -10 7.5t-3 43.5v4q0 36 3 43.5t10 7.5h343zM367 786q23 0 29 -4t0 -12
l-130 -163q-5 -6 -13.5 -8.5t-27.5 -2.5h-38q-17 0 -23 3t-1 12l106 163q4 7 13 9.5t37 2.5h48z" />
    <glyph glyph-name="Zdotaccent" unicode="&#x17b;" horiz-adv-x="575" 
d="M478 720q29 0 37 -2.5t8 -12.5v-52q0 -17 -4 -33t-17 -36l-291 -468h306q5 0 8.5 -1t5.5 -6t2.5 -15.5t0.5 -30.5v-8q0 -19 -1 -30t-3 -16.5t-5 -7t-8 -1.5h-431q-29 0 -37 2.5t-8 12.5v52q0 17 4.5 33t17.5 36l291 468h-281q-5 0 -8 1.5t-5 7t-3 16.5t-1 30v8
q0 20 0.5 30.5t2.5 15.5t5.5 6t8.5 1h405zM228 880q0 30 22 51t52 21t51 -21t21 -51t-21 -51.5t-51 -21.5t-52 21.5t-22 51.5z" />
    <glyph glyph-name="zdotaccent" unicode="&#x17c;" horiz-adv-x="480" 
d="M406 528q24 0 30 -3t6 -11v-36q0 -17 -3.5 -27t-11.5 -23l-217 -322h225q7 0 10 -7.5t3 -43.5v-4q0 -36 -3 -43.5t-10 -7.5h-362q-24 0 -30 3t-6 11v36q0 17 3.5 27t11.5 23l219 322h-208q-7 0 -10 7.5t-3 43.5v4q0 36 3 43.5t10 7.5h343zM187 692q0 30 22 51t52 21
t51 -21t21 -51t-21 -51.5t-51 -21.5t-52 21.5t-22 51.5z" />
    <glyph glyph-name="Zcaron" unicode="&#x17d;" horiz-adv-x="575" 
d="M478 720q29 0 37 -2.5t8 -12.5v-52q0 -17 -4 -33t-17 -36l-291 -468h306q5 0 8.5 -1t5.5 -6t2.5 -15.5t0.5 -30.5v-8q0 -19 -1 -30t-3 -16.5t-5 -7t-8 -1.5h-431q-29 0 -37 2.5t-8 12.5v52q0 17 4.5 33t17.5 36l291 468h-281q-5 0 -8 1.5t-5 7t-3 16.5t-1 30v8
q0 20 0.5 30.5t2.5 15.5t5.5 6t8.5 1h405zM158 948q15 15 22 18.5t15 -3.5l101 -88l101 88q8 7 15 3.5t22 -18.5l10 -10q13 -13 16 -20t-4 -15l-91 -97q-9 -10 -21.5 -13t-40.5 -3h-14q-28 0 -40.5 3t-21.5 13l-91 97q-8 8 -4.5 15t16.5 20z" />
    <glyph glyph-name="zcaron" unicode="&#x17e;" horiz-adv-x="480" 
d="M406 528q24 0 30 -3t6 -11v-36q0 -17 -3.5 -27t-11.5 -23l-217 -322h225q7 0 10 -7.5t3 -43.5v-4q0 -36 -3 -43.5t-10 -7.5h-362q-24 0 -30 3t-6 11v36q0 17 3.5 27t11.5 23l219 322h-208q-7 0 -10 7.5t-3 43.5v4q0 36 3 43.5t10 7.5h343zM113 756q15 15 22 18.5t15 -3.5
l101 -88l101 88q8 7 15 3.5t22 -18.5l10 -10q13 -13 16 -20t-4 -15l-91 -97q-9 -10 -21.5 -13t-40.5 -3h-14q-28 0 -40.5 3t-21.5 13l-91 97q-8 8 -4.5 15t16.5 20z" />
    <glyph glyph-name="longs" unicode="&#x17f;" horiz-adv-x="337" 
d="M236 15q0 -4 -2 -7t-8.5 -4.5t-19.5 -2.5t-35 -1h-5q-24 0 -37.5 1t-20 2.5t-8 4.5t-1.5 7v406h-70q-7 0 -10 7t-3 43v7q0 36 3 43t10 7h70v24q0 55 14.5 96.5t41.5 69.5q51 52 144 52q58 0 110 -19q7 -2 7.5 -11t-5.5 -35l-4 -17q-6 -26 -10.5 -33.5t-10.5 -5.5
q-17 4 -32.5 6t-31.5 2q-48 0 -67 -26t-19 -83v-533z" />
    <glyph glyph-name="florin" unicode="&#x192;" horiz-adv-x="530" 
d="M210 455l7 57q13 104 67.5 161t157.5 57q23 0 50.5 -5t48.5 -13q6 -2 6.5 -10t-7.5 -37l-5 -17q-9 -30 -14.5 -35.5t-12.5 -3.5q-12 3 -27.5 5.5t-28.5 2.5q-49 0 -69.5 -26.5t-27.5 -82.5l-7 -53h113q7 0 9.5 -7t-2.5 -43l-1 -7q-3 -18 -5 -28t-4.5 -15t-5.5 -6t-6 -1
h-114l-32 -240q-14 -104 -68 -161t-157 -57q-23 0 -50.5 5t-48.5 13q-6 2 -6.5 10t7.5 37l5 17q4 15 7.5 23.5t6.5 12t6 4t7 -0.5q12 -3 27.5 -5.5t28.5 -2.5q24 0 41 6t28 18.5t17.5 33.5t10.5 51l33 236h-76q-3 0 -5 1t-3 6.5t0 15.5t3 27l1 7q3 17 5 27t4 15t4.5 6.5
t5.5 1.5h76z" />
    <glyph glyph-name="Aringacute" unicode="&#x1fa;" horiz-adv-x="660" 
d="M647 18q4 -10 -7 -14t-55 -4h-12q-22 0 -36 1t-22.5 3t-12.5 5t-5 8l-57 166h-230l-55 -166q-3 -9 -16.5 -13t-56.5 -4h-10q-44 0 -54 3t-6 14l248 700q-20 15 -32 38t-12 50q0 23 9 43t24.5 34.5t36.5 23t44 8.5t43.5 -8.5t36 -23t24.5 -34.5t9 -43q0 -29 -13 -52
t-34 -38zM247 293h156l-11 35l-23 73l-18 57l-14 46q-6 20 -11 41l-28 -93q-16 -54 -40 -126zM290 805q0 -17 11.5 -28.5t28.5 -11.5t27.5 11.5t10.5 28.5q0 16 -10.5 27.5t-27.5 11.5t-28.5 -11t-11.5 -28zM417 1128q23 0 29 -4t0 -12l-130 -163q-5 -6 -13.5 -8.5
t-27.5 -2.5h-38q-17 0 -23 3t-1 12l106 163q4 7 13 9.5t37 2.5h48z" />
    <glyph glyph-name="aringacute" unicode="&#x1fb;" horiz-adv-x="577" 
d="M388 515q0 3 2 5.5t8 4t17.5 2.5t31.5 1h6q38 0 48 -3t10 -11q0 -12 -0.5 -36t-0.5 -53.5t-0.5 -62.5t-0.5 -64v-61q0 -59 2 -118.5t5 -100.5q0 -5 -0.5 -8.5t-6 -5.5t-17.5 -3t-33 -1h-5q-37 0 -47.5 2.5t-13.5 10.5q-2 5 -3.5 15t-3.5 19q-23 -26 -61 -41.5t-76 -15.5
q-49 0 -88.5 18t-67 52.5t-42 83t-14.5 110.5q0 68 17.5 121t48 89t70.5 55t85 19q41 0 75 -17t51 -42zM372 371q-14 22 -37.5 35t-49.5 13q-55 0 -81 -41.5t-26 -119.5q0 -33 5 -61.5t17 -48.5t32.5 -31.5t50.5 -11.5q24 0 44 8t31 22q8 11 11 24.5t3 31.5v180zM175 692
q0 23 9 43t24.5 34.5t36.5 23t44 8.5t43.5 -8.5t36 -23t24.5 -34.5t9 -43t-9 -43t-24.5 -35t-36 -23.5t-43.5 -8.5t-44 8.5t-36.5 23.5t-24.5 35t-9 43zM249 692q0 -17 11.5 -28.5t28.5 -11.5t27.5 11.5t10.5 28.5q0 16 -10.5 27.5t-27.5 11.5t-28.5 -11t-11.5 -28z
M379 1018q23 0 29 -4t0 -12l-130 -163q-5 -6 -13.5 -8.5t-27.5 -2.5h-38q-17 0 -23 3t-1 12l106 163q4 7 13 9.5t37 2.5h48z" />
    <glyph glyph-name="AEacute" unicode="&#x1fc;" horiz-adv-x="977" 
d="M905 720q5 0 8.5 -1t5.5 -6.5t2.5 -16t0.5 -29.5v-8q0 -37 -3.5 -46t-13.5 -9h-275v-182h233q5 0 8.5 -1t5.5 -6.5t2.5 -16t0.5 -29.5v-8q0 -37 -3.5 -46t-13.5 -9h-233v-190h279q5 0 8.5 -1t5.5 -6.5t2.5 -16t0.5 -29.5v-8q0 -37 -3.5 -46t-13.5 -9h-379q-29 0 -37 2.5
t-8 12.5v159h-237l-93 -157q-6 -11 -21.5 -14t-52.5 -3h-25q-42 0 -50.5 4t-2.5 13l423 687q6 9 15.5 12.5t41.5 3.5h422zM313 283h172v303q-6 -16 -17 -36l-24 -44l-29 -51l-30 -51zM775 978q23 0 29 -4t0 -12l-130 -163q-5 -6 -13.5 -8.5t-27.5 -2.5h-38q-17 0 -23 3
t-1 12l106 163q4 7 13 9.5t37 2.5h48z" />
    <glyph glyph-name="aeacute" unicode="&#x1fd;" horiz-adv-x="867" 
d="M75 440q-10 23 -11 31t6 13q41 26 95 40t101 14q60 0 100.5 -15t66.5 -42q31 27 71 42t89 15q57 0 100 -20t72.5 -56t44 -85.5t14.5 -107.5q0 -29 -2 -40.5t-8 -11.5h-324q8 -54 41.5 -82t90.5 -28q37 0 72 9t69 23q8 4 13.5 -1t13.5 -28l9 -25q9 -26 8.5 -34t-9.5 -13
q-38 -21 -89.5 -34.5t-104.5 -13.5q-122 0 -189 72q-35 -33 -84.5 -52.5t-108.5 -19.5q-37 0 -74 11.5t-64 37.5q-23 21 -36.5 51t-13.5 71q0 43 15.5 75t44 53.5t67.5 32t87 10.5q27 0 52.5 -4.5t46.5 -11.5v28q0 40 -23.5 61.5t-71.5 21.5q-32 0 -69 -9.5t-68 -23.5
q-10 -5 -16.5 1.5t-17.5 30.5zM364 147q-12 33 -15 71q-19 6 -42 10t-43 4q-41 0 -67 -16t-26 -51q0 -17 7 -28.5t18.5 -19t25.5 -11t28 -3.5q34 0 64 12t50 32zM687 315q-5 47 -28 77.5t-65 30.5t-68 -28.5t-36 -79.5h197zM585 786q23 0 29 -4t0 -12l-130 -163
q-5 -6 -13.5 -8.5t-27.5 -2.5h-38q-17 0 -23 3t-1 12l106 163q4 7 13 9.5t37 2.5h48z" />
    <glyph glyph-name="Oslashacute" unicode="&#x1fe;" horiz-adv-x="697" 
d="M500 771q6 11 15 10.5t34 -11.5l13 -6q29 -13 33.5 -19.5t-0.5 -16.5l-36 -66q48 -43 75 -114.5t27 -177.5q0 -86 -20.5 -156.5t-61 -120t-101 -76.5t-140.5 -27q-74 0 -132 24l-35 -65q-6 -11 -14.5 -10.5t-34.5 12.5l-13 6q-27 13 -32.5 19.5t-0.5 15.5l45 82
q-41 44 -63 111.5t-22 164.5q0 86 20.5 156.5t61 120t101 76.5t140.5 27q61 0 110 -16zM268 128q30 -17 73 -17q85 0 128 65t43 190q0 103 -27 160zM407 601q-24 8 -51 8q-85 0 -128 -65t-43 -190q0 -82 16 -133zM449 978q23 0 29 -4t0 -12l-130 -163q-5 -6 -13.5 -8.5
t-27.5 -2.5h-38q-17 0 -23 3t-1 12l106 163q4 7 13 9.5t37 2.5h48z" />
    <glyph glyph-name="oslashacute" unicode="&#x1ff;" horiz-adv-x="571" 
d="M404 587q6 11 14 11t35 -13l13 -6q28 -13 33 -19.5t0 -16.5l-36 -66q35 -33 53 -83.5t18 -119.5q0 -137 -65.5 -210.5t-191.5 -73.5q-20 0 -37 2t-34 6l-32 -60q-6 -11 -14 -11t-35 13l-13 6q-26 12 -32 19t-1 17l33 63q-36 33 -55.5 85t-19.5 124q0 137 65.5 210.5
t191.5 73.5q21 0 40.5 -2.5t37.5 -7.5zM312 418q-5 1 -10.5 1.5t-10.5 0.5q-60 0 -86.5 -42.5t-26.5 -117.5q0 -45 9 -76zM266 109q4 -1 14 -1q60 0 86.5 42.5t26.5 117.5q0 38 -7 65zM392 786q23 0 29 -4t0 -12l-130 -163q-5 -6 -13.5 -8.5t-27.5 -2.5h-38q-17 0 -23 3
t-1 12l106 163q4 7 13 9.5t37 2.5h48z" />
    <glyph glyph-name="Scommaaccent" unicode="&#x218;" horiz-adv-x="552" 
d="M465 601q-14 -28 -20.5 -32.5t-15.5 1.5q-33 20 -61 31t-63 11q-43 0 -68.5 -23t-25.5 -58q0 -19 9.5 -34t25 -27t36.5 -22l41 -22l65 -36q32 -18 58 -43t42 -59t16 -81q0 -48 -15.5 -87.5t-46 -68.5t-76 -45t-105.5 -16q-66 0 -122.5 19.5t-92.5 48.5q-10 8 -10 19
t13 36l12 24q13 24 21 31t18 0q36 -26 74.5 -41.5t77.5 -15.5q49 0 78.5 21.5t29.5 63.5q0 23 -10 40t-26 30t-38 24l-43 22q-32 15 -63 33t-56.5 42t-41 56t-15.5 76q0 50 18.5 89.5t50 66.5t73.5 41t89 14q51 0 98 -13.5t83 -39.5q11 -8 10 -19t-14 -37zM208 -299
q-11 9 -2 19q27 34 34 56.5t7 35.5q0 11 -5 19t-11.5 16t-11.5 17t-5 23q0 21 16.5 37.5t44.5 16.5q29 0 47.5 -21.5t18.5 -54.5q0 -46 -25 -92t-71 -86q-10 -9 -21 0z" />
    <glyph glyph-name="scommaaccent" unicode="&#x219;" horiz-adv-x="478" 
d="M59 113q13 23 21 30t16 1q29 -20 62.5 -31.5t65.5 -11.5q40 0 62 13.5t22 33.5q0 19 -19 30t-47 20l-62 18q-33 10 -61.5 28t-47.5 47.5t-19 77.5q0 39 16 70.5t43.5 53.5t65.5 33.5t82 11.5q50 0 91.5 -13t73.5 -37q8 -5 5.5 -14t-17.5 -35l-9 -14q-14 -23 -21 -28.5
t-15 -0.5q-24 15 -48.5 23.5t-53.5 8.5q-45 0 -65 -17q-14 -12 -14 -29q0 -19 19 -29.5t47 -19.5l62 -19q33 -11 61.5 -28.5t47.5 -46t19 -73.5q0 -35 -13.5 -66.5t-37.5 -54.5q-57 -55 -165 -55q-58 0 -106.5 17t-79.5 43q-5 4 -5 11q0 9 14 34zM176 -299q-11 9 -2 19
q27 34 34 56.5t7 35.5q0 11 -5 19t-11.5 16t-11.5 17t-5 23q0 21 16.5 37.5t44.5 16.5q29 0 47.5 -21.5t18.5 -54.5q0 -46 -25 -92t-71 -86q-10 -9 -21 0z" />
    <glyph glyph-name="uni021A" unicode="&#x21a;" horiz-adv-x="542" 
d="M509 720q5 0 8.5 -1t5.5 -6.5t2.5 -16t0.5 -29.5v-8q0 -37 -3.5 -46t-13.5 -9h-166v-589q0 -9 -14 -12t-54 -3h-11q-42 0 -54 3t-12 12v589h-165q-5 0 -8 1.5t-5 7t-3 16.5t-1 30v8q0 20 0.5 30.5t2.5 15.5t5.5 6t8.5 1h476zM196 -299q-11 9 -2 19q27 34 34 56.5t7 35.5
q0 11 -5 19t-11.5 16t-11.5 17t-5 23q0 21 16.5 37.5t44.5 16.5q29 0 47.5 -21.5t18.5 -54.5q0 -46 -25 -92t-71 -86q-10 -9 -21 0z" />
    <glyph glyph-name="uni021B" unicode="&#x21b;" horiz-adv-x="405" 
d="M168 672q22 0 35 -1t19.5 -2.5t8.5 -4.5t2 -7v-129h119q7 0 10 -7t3 -43v-7q0 -36 -3 -43t-10 -7h-119v-247q0 -22 4 -35t13 -21q16 -14 44 -14q12 0 25 2.5t27 7.5q8 2 13 -5t13 -35l3 -10q8 -26 8 -35t-10 -14q-24 -12 -55 -18.5t-60 -6.5q-42 0 -71.5 10.5t-49.5 30.5
q-21 21 -31 53.5t-10 81.5v255h-69q-7 0 -10 7t-3 43v7q0 36 3 43t10 7h69v129q0 4 1.5 7t8 4.5t20 2.5t37.5 1h5zM171 -299q-11 9 -2 19q27 34 34 56.5t7 35.5q0 11 -5 19t-11.5 16t-11.5 17t-5 23q0 21 16.5 37.5t44.5 16.5q29 0 47.5 -21.5t18.5 -54.5q0 -46 -25 -92
t-71 -86q-10 -9 -21 0z" />
    <glyph glyph-name="circumflex" unicode="&#x2c6;" horiz-adv-x="350" 
d="M106 760q9 10 21.5 13t40.5 3h14q28 0 40.5 -3t21.5 -13l91 -97q8 -8 4.5 -15t-16.5 -20l-10 -10q-15 -15 -22 -18.5t-15 3.5l-101 88l-101 -88q-8 -7 -15 -3.5t-22 18.5l-10 10q-13 13 -16.5 20t4.5 15z" />
    <glyph glyph-name="caron" unicode="&#x2c7;" horiz-adv-x="350" 
d="M37 756q15 15 22 18.5t15 -3.5l101 -88l101 88q8 7 15 3.5t22 -18.5l10 -10q13 -13 16 -20t-4 -15l-91 -97q-9 -10 -21.5 -13t-40.5 -3h-14q-28 0 -40.5 3t-21.5 13l-91 97q-8 8 -4.5 15t16.5 20z" />
    <glyph glyph-name="breve" unicode="&#x2d8;" horiz-adv-x="350" 
d="M78 762q23 0 29.5 -3t7.5 -9q10 -57 60 -57q49 0 60 57q1 6 7.5 9t29.5 3h15q26 0 34.5 -2t8.5 -12q-4 -68 -44.5 -104.5t-110.5 -36.5t-110.5 36.5t-44.5 104.5q0 10 8.5 12t34.5 2h15z" />
    <glyph glyph-name="dotaccent" unicode="&#x2d9;" horiz-adv-x="350" 
d="M102 692q0 30 22 51t52 21t51 -21t21 -51t-21 -51.5t-51 -21.5t-52 21.5t-22 51.5z" />
    <glyph glyph-name="ring" unicode="&#x2da;" horiz-adv-x="350" 
d="M61 701q0 23 9 43t24.5 34.5t36.5 23t44 8.5t43.5 -8.5t36 -23t24.5 -34.5t9 -43t-9 -43t-24.5 -35t-36 -23.5t-43.5 -8.5t-44 8.5t-36.5 23.5t-24.5 35t-9 43zM135 701q0 -17 11.5 -28.5t28.5 -11.5t27.5 11.5t10.5 28.5q0 16 -10.5 27.5t-27.5 11.5t-28.5 -11
t-11.5 -28z" />
    <glyph glyph-name="ogonek" unicode="&#x2db;" horiz-adv-x="350" 
d="M260 21q8 0 8.5 -5t-2.5 -7q-29 -18 -48.5 -33.5t-30.5 -30.5t-15.5 -29t-4.5 -29q0 -19 11.5 -28.5t30.5 -9.5q10 0 22 3t20 7q6 3 10 -2t12 -25l4 -12q6 -19 6 -26.5t-8 -12.5q-17 -10 -41 -15.5t-43 -5.5q-54 0 -89.5 30t-35.5 87q0 20 8 40t21.5 38t31 33t37.5 25
q11 5 20.5 6.5t25.5 1.5h50z" />
    <glyph glyph-name="tilde" unicode="&#x2dc;" horiz-adv-x="350" 
d="M19 647q-14 14 -18 21.5t2 15.5q23 28 51.5 47.5t63.5 19.5q19 0 36 -6q16 -7 30 -13l25 -12q12 -6 24 -6q15 0 29 8t30 24q4 4 11 2t25 -20l4 -4q14 -14 18 -21.5t-2 -15.5q-23 -28 -51.5 -47.5t-63.5 -19.5q-19 0 -35 6t-30 12l-26 13q-12 6 -24 6q-15 0 -29 -8
t-30 -24q-4 -4 -11 -2t-25 20z" />
    <glyph glyph-name="hungarumlaut" unicode="&#x2dd;" horiz-adv-x="350" 
d="M153 786q23 0 28 -3.5t0 -11.5l-116 -157q-5 -7 -13 -9t-26 -2h-33q-16 0 -22 3t-1 11l92 157q4 7 13 9.5t35 2.5h43zM353 786q23 0 28 -3.5t0 -11.5l-116 -157q-5 -7 -13 -9t-26 -2h-33q-16 0 -22 3t-1 11l92 157q4 7 13 9.5t35 2.5h43z" />
    <glyph glyph-name="uni0326" unicode="&#x326;" horiz-adv-x="350" 
d="M111 -299q-11 9 -2 19q27 34 34 56.5t7 35.5q0 11 -5 19t-11.5 16t-11.5 17t-5 23q0 21 16.5 37.5t44.5 16.5q29 0 47.5 -21.5t18.5 -54.5q0 -46 -25 -92t-71 -86q-10 -9 -21 0z" />
    <glyph glyph-name="uni2206" unicode="&#x394;" horiz-adv-x="673" 
d="M351 720q26 0 40 -2t17 -10l228 -600q5 -14 7 -25.5t2 -24.5v-44q0 -8 -7.5 -11t-27.5 -3h-549q-20 0 -27.5 3t-7.5 11v44q0 15 2 25.5t7 24.5l225 600q2 6 13 9t42 3h36zM187 125h291l-146 414z" />
    <glyph glyph-name="uni2206" unicode="&#x2206;" horiz-adv-x="673" 
d="M351 720q26 0 40 -2t17 -10l228 -600q5 -14 7 -25.5t2 -24.5v-44q0 -8 -7.5 -11t-27.5 -3h-549q-20 0 -27.5 3t-7.5 11v44q0 15 2 25.5t7 24.5l225 600q2 6 13 9t42 3h36zM187 125h291l-146 414z" />
    <glyph glyph-name="uni2126" unicode="&#x3a9;" horiz-adv-x="758" 
d="M173 114q-22 18 -43 46.5t-38 63.5t-27.5 74.5t-10.5 80.5q0 85 25.5 150.5t70 110t103.5 67.5t126 23t126 -23t103 -67.5t70 -110t26 -150.5q0 -41 -10.5 -80.5t-27.5 -74.5t-38 -63.5t-43 -46.5h98q5 0 8.5 -1t5.5 -6.5t2.5 -16t0.5 -29.5v-6q0 -37 -3.5 -46t-13.5 -9
h-263q-5 0 -8 0.5t-5 5t-3 14.5t-1 28v3q0 23 3 29.5t14 14.5q26 20 51 46t44.5 60.5t31.5 77.5t12 96q0 56 -13.5 99.5t-37.5 73.5t-57 45.5t-72 15.5t-72 -15.5t-57 -45.5t-37.5 -73.5t-14.5 -99.5q0 -53 12.5 -96t32 -77.5t44.5 -60.5t51 -46q11 -8 14 -14.5t3 -29.5v-3
q0 -18 -1 -28t-3 -14.5t-5 -5t-8 -0.5h-263q-10 0 -13.5 9t-3.5 46v6q0 19 0.5 29.5t2.5 16t5.5 6.5t8.5 1h98z" />
    <glyph glyph-name="uni2126" unicode="&#x2126;" horiz-adv-x="758" 
d="M173 114q-22 18 -43 46.5t-38 63.5t-27.5 74.5t-10.5 80.5q0 85 25.5 150.5t70 110t103.5 67.5t126 23t126 -23t103 -67.5t70 -110t26 -150.5q0 -41 -10.5 -80.5t-27.5 -74.5t-38 -63.5t-43 -46.5h98q5 0 8.5 -1t5.5 -6.5t2.5 -16t0.5 -29.5v-6q0 -37 -3.5 -46t-13.5 -9
h-263q-5 0 -8 0.5t-5 5t-3 14.5t-1 28v3q0 23 3 29.5t14 14.5q26 20 51 46t44.5 60.5t31.5 77.5t12 96q0 56 -13.5 99.5t-37.5 73.5t-57 45.5t-72 15.5t-72 -15.5t-57 -45.5t-37.5 -73.5t-14.5 -99.5q0 -53 12.5 -96t32 -77.5t44.5 -60.5t51 -46q11 -8 14 -14.5t3 -29.5v-3
q0 -18 -1 -28t-3 -14.5t-5 -5t-8 -0.5h-263q-10 0 -13.5 9t-3.5 46v6q0 19 0.5 29.5t2.5 16t5.5 6.5t8.5 1h98z" />
    <glyph glyph-name="pi" unicode="&#x3c0;" horiz-adv-x="698" 
d="M637 528q7 0 10 -7t3 -43v-7q0 -36 -3 -43t-10 -7h-86v-266q0 -27 9 -41t30 -14q12 0 24 3t26 9q7 3 12 -2t14 -37l2 -7q8 -26 7.5 -34.5t-9.5 -13.5q-54 -28 -115 -28q-36 0 -61.5 10t-41.5 27q-34 37 -34 120v274h-170v-406q0 -4 -2 -7t-8.5 -4.5t-19.5 -2.5t-35 -1h-5
q-24 0 -37.5 1t-20 2.5t-8 4.5t-1.5 7v406h-86q-7 0 -10 7t-3 43v7q0 36 3 43t10 7h616z" />
    <glyph glyph-name="Wgrave" unicode="&#x1e80;" horiz-adv-x="964" 
d="M108 720q43 0 56.5 -3.5t15.5 -13.5l73 -293q15 -60 29 -125.5t22 -122.5q3 24 7.5 54.5t10.5 63.5l11 67q6 34 13 64l67 292q1 5 4 8.5t10.5 5.5t21 2.5t35.5 0.5h9q44 0 57.5 -4t15.5 -13l67 -284l15 -69q7 -36 13 -71.5t11 -69t8 -60.5q3 27 8.5 60t12.5 68l14 71
q7 36 15 69l67 286q2 10 14 13.5t56 3.5h6q23 0 36 -1t20 -3.5t8 -5.5q0 -2 0.5 -3.5t-0.5 -3.5l-181 -686q-2 -9 -15.5 -13t-56.5 -4h-13q-46 0 -62 3t-18 14l-55 226q-8 33 -16 69l-14 72q-7 36 -12.5 70.5t-8.5 64.5q-8 -61 -20.5 -133t-27.5 -137l-55 -232
q-2 -9 -15.5 -13t-56.5 -4h-21q-23 0 -36.5 0.5t-21 2.5t-10.5 5.5t-4 8.5l-190 686q-1 3 -1 5v3q2 3 9 5t21 3t38 1h14zM443 978q28 0 37 -2.5t13 -9.5l106 -163q5 -9 -1 -12t-23 -3h-38q-19 0 -27.5 2.5t-13.5 8.5l-130 163q-6 8 0 12t29 4h48z" />
    <glyph glyph-name="wgrave" unicode="&#x1e81;" horiz-adv-x="791" 
d="M76 528q42 0 54.5 -3.5t14.5 -12.5l48 -187l11 -49q7 -28 12.5 -56.5t9.5 -53.5t6 -39q2 14 8 39l12 54l14 56l13 46l52 190q1 5 4 8t10 5t19.5 2.5t33.5 0.5h9q40 0 51 -3.5t13 -10.5l49 -188l14 -58q7 -29 12 -56l10 -48q5 -21 7 -34q13 41 25 89.5t22.5 98.5t20 100
t16.5 94q1 5 2.5 8t8 5t19 2.5t35.5 0.5h4q37 0 48 -3q10 -3 10 -10q0 -16 -3 -34.5t-10.5 -47t-9.5 -38.5q-14 -63 -32 -128t-39 -130t-45 -123q-2 -5 -5.5 -7.5t-11.5 -4t-21.5 -2t-35.5 -0.5h-8q-25 0 -39.5 0.5t-22.5 2t-10.5 4t-3.5 6.5l-45 164q-14 51 -25 99t-16 92
q-5 -46 -16 -96.5t-25 -95.5l-48 -163q-1 -3 -4 -5.5t-10.5 -4t-21.5 -2.5t-36 -1h-10q-21 0 -34.5 0.5t-21 2t-11 4t-4.5 6.5l-141 496q-1 3 -1 6q0 5 7 9q7 2 21 3t38 1h3zM351 786q28 0 37 -2.5t13 -9.5l106 -163q5 -9 -1 -12t-23 -3h-38q-19 0 -27.5 2.5t-13.5 8.5
l-130 163q-6 8 0 12t29 4h48z" />
    <glyph glyph-name="Wacute" unicode="&#x1e82;" horiz-adv-x="964" 
d="M108 720q43 0 56.5 -3.5t15.5 -13.5l73 -293q15 -60 29 -125.5t22 -122.5q3 24 7.5 54.5t10.5 63.5l11 67q6 34 13 64l67 292q1 5 4 8.5t10.5 5.5t21 2.5t35.5 0.5h9q44 0 57.5 -4t15.5 -13l67 -284l15 -69q7 -36 13 -71.5t11 -69t8 -60.5q3 27 8.5 60t12.5 68l14 71
q7 36 15 69l67 286q2 10 14 13.5t56 3.5h6q23 0 36 -1t20 -3.5t8 -5.5q0 -2 0.5 -3.5t-0.5 -3.5l-181 -686q-2 -9 -15.5 -13t-56.5 -4h-13q-46 0 -62 3t-18 14l-55 226q-8 33 -16 69l-14 72q-7 36 -12.5 70.5t-8.5 64.5q-8 -61 -20.5 -133t-27.5 -137l-55 -232
q-2 -9 -15.5 -13t-56.5 -4h-21q-23 0 -36.5 0.5t-21 2.5t-10.5 5.5t-4 8.5l-190 686q-1 3 -1 5v3q2 3 9 5t21 3t38 1h14zM576 978q23 0 29 -4t0 -12l-130 -163q-5 -6 -13.5 -8.5t-27.5 -2.5h-38q-17 0 -23 3t-1 12l106 163q4 7 13 9.5t37 2.5h48z" />
    <glyph glyph-name="wacute" unicode="&#x1e83;" horiz-adv-x="791" 
d="M76 528q42 0 54.5 -3.5t14.5 -12.5l48 -187l11 -49q7 -28 12.5 -56.5t9.5 -53.5t6 -39q2 14 8 39l12 54l14 56l13 46l52 190q1 5 4 8t10 5t19.5 2.5t33.5 0.5h9q40 0 51 -3.5t13 -10.5l49 -188l14 -58q7 -29 12 -56l10 -48q5 -21 7 -34q13 41 25 89.5t22.5 98.5t20 100
t16.5 94q1 5 2.5 8t8 5t19 2.5t35.5 0.5h4q37 0 48 -3q10 -3 10 -10q0 -16 -3 -34.5t-10.5 -47t-9.5 -38.5q-14 -63 -32 -128t-39 -130t-45 -123q-2 -5 -5.5 -7.5t-11.5 -4t-21.5 -2t-35.5 -0.5h-8q-25 0 -39.5 0.5t-22.5 2t-10.5 4t-3.5 6.5l-45 164q-14 51 -25 99t-16 92
q-5 -46 -16 -96.5t-25 -95.5l-48 -163q-1 -3 -4 -5.5t-10.5 -4t-21.5 -2.5t-36 -1h-10q-21 0 -34.5 0.5t-21 2t-11 4t-4.5 6.5l-141 496q-1 3 -1 6q0 5 7 9q7 2 21 3t38 1h3zM500 786q23 0 29 -4t0 -12l-130 -163q-5 -6 -13.5 -8.5t-27.5 -2.5h-38q-17 0 -23 3t-1 12
l106 163q4 7 13 9.5t37 2.5h48z" />
    <glyph glyph-name="Wdieresis" unicode="&#x1e84;" horiz-adv-x="964" 
d="M108 720q43 0 56.5 -3.5t15.5 -13.5l73 -293q15 -60 29 -125.5t22 -122.5q3 24 7.5 54.5t10.5 63.5l11 67q6 34 13 64l67 292q1 5 4 8.5t10.5 5.5t21 2.5t35.5 0.5h9q44 0 57.5 -4t15.5 -13l67 -284l15 -69q7 -36 13 -71.5t11 -69t8 -60.5q3 27 8.5 60t12.5 68l14 71
q7 36 15 69l67 286q2 10 14 13.5t56 3.5h6q23 0 36 -1t20 -3.5t8 -5.5q0 -2 0.5 -3.5t-0.5 -3.5l-181 -686q-2 -9 -15.5 -13t-56.5 -4h-13q-46 0 -62 3t-18 14l-55 226q-8 33 -16 69l-14 72q-7 36 -12.5 70.5t-8.5 64.5q-8 -61 -20.5 -133t-27.5 -137l-55 -232
q-2 -9 -15.5 -13t-56.5 -4h-21q-23 0 -36.5 0.5t-21 2.5t-10.5 5.5t-4 8.5l-190 686q-1 3 -1 5v3q2 3 9 5t21 3t38 1h14zM300 871q0 29 20.5 50t52.5 21t52.5 -21t20.5 -50t-20.5 -49t-52.5 -20t-52.5 20t-20.5 49zM518 871q0 29 19.5 50t51.5 21q33 0 54 -21t21 -50
t-21 -49t-54 -20q-32 0 -51.5 20t-19.5 49z" />
    <glyph glyph-name="wdieresis" unicode="&#x1e85;" horiz-adv-x="791" 
d="M76 528q42 0 54.5 -3.5t14.5 -12.5l48 -187l11 -49q7 -28 12.5 -56.5t9.5 -53.5t6 -39q2 14 8 39l12 54l14 56l13 46l52 190q1 5 4 8t10 5t19.5 2.5t33.5 0.5h9q40 0 51 -3.5t13 -10.5l49 -188l14 -58q7 -29 12 -56l10 -48q5 -21 7 -34q13 41 25 89.5t22.5 98.5t20 100
t16.5 94q1 5 2.5 8t8 5t19 2.5t35.5 0.5h4q37 0 48 -3q10 -3 10 -10q0 -16 -3 -34.5t-10.5 -47t-9.5 -38.5q-14 -63 -32 -128t-39 -130t-45 -123q-2 -5 -5.5 -7.5t-11.5 -4t-21.5 -2t-35.5 -0.5h-8q-25 0 -39.5 0.5t-22.5 2t-10.5 4t-3.5 6.5l-45 164q-14 51 -25 99t-16 92
q-5 -46 -16 -96.5t-25 -95.5l-48 -163q-1 -3 -4 -5.5t-10.5 -4t-21.5 -2.5t-36 -1h-10q-21 0 -34.5 0.5t-21 2t-11 4t-4.5 6.5l-141 496q-1 3 -1 6q0 5 7 9q7 2 21 3t38 1h3zM213 679q0 29 20.5 50t52.5 21t52.5 -21t20.5 -50t-20.5 -49t-52.5 -20t-52.5 20t-20.5 49z
M431 679q0 29 19.5 50t51.5 21q33 0 54 -21t21 -50t-21 -49t-54 -20q-32 0 -51.5 20t-19.5 49z" />
    <glyph glyph-name="Ygrave" unicode="&#x1ef2;" horiz-adv-x="591" 
d="M98 720q21 0 34 -1t21.5 -2.5t12.5 -5t6 -7.5l72 -150q18 -38 35 -78t26 -68l25 67q16 40 34 79l70 151q2 4 4.5 7t9.5 4.5t19 2.5t33 1h22q21 0 33 -1t18 -3q7 -1 7 -7q0 -2 -1 -5l-212 -424v-265q0 -9 -14 -12t-54 -3h-11q-42 0 -54 3t-12 12v265l-210 423q-2 3 -2 6
q0 5 8 7q7 2 20.5 3t36.5 1h23zM237 978q28 0 37 -2.5t13 -9.5l106 -163q5 -9 -1 -12t-23 -3h-38q-19 0 -27.5 2.5t-13.5 8.5l-130 163q-6 8 0 12t29 4h48z" />
    <glyph glyph-name="ygrave" unicode="&#x1ef3;" horiz-adv-x="532" 
d="M100 528q22 0 35 -1t19.5 -2.5t9 -4.5t4.5 -7l62 -196q16 -51 27 -95t18 -85q8 39 19 84.5t25 93.5l58 198q1 4 4 7t9.5 4.5t18 2.5t31.5 1h13q23 0 36 -1t19 -3q7 -3 7 -9q0 -2 -1 -5l-171 -501q-22 -64 -46 -109.5t-53.5 -75t-67 -43.5t-86.5 -14q-32 0 -62 7t-46 18
q-6 4 -6 11.5t8 35.5l4 14q8 26 13.5 34t16.5 4q12 -4 30 -7t32 -3q20 0 37 5t32 18t28.5 35.5t26.5 57.5l-180 513q-2 4 -1 7.5t7.5 6t19.5 3.5t37 1h13zM213 786q28 0 37 -2.5t13 -9.5l106 -163q5 -9 -1 -12t-23 -3h-38q-19 0 -27.5 2.5t-13.5 8.5l-130 163q-6 8 0 12
t29 4h48z" />
    <glyph glyph-name="uni2000" unicode="&#x2000;" horiz-adv-x="564" 
 />
    <glyph glyph-name="uni2001" unicode="&#x2001;" horiz-adv-x="1128" 
 />
    <glyph glyph-name="uni2002" unicode="&#x2002;" horiz-adv-x="564" 
 />
    <glyph glyph-name="uni2003" unicode="&#x2003;" horiz-adv-x="1128" 
 />
    <glyph glyph-name="uni2004" unicode="&#x2004;" horiz-adv-x="376" 
 />
    <glyph glyph-name="uni2005" unicode="&#x2005;" horiz-adv-x="282" 
 />
    <glyph glyph-name="uni2006" unicode="&#x2006;" horiz-adv-x="188" 
 />
    <glyph glyph-name="uni2007" unicode="&#x2007;" horiz-adv-x="188" 
 />
    <glyph glyph-name="uni2008" unicode="&#x2008;" horiz-adv-x="141" 
 />
    <glyph glyph-name="uni2009" unicode="&#x2009;" horiz-adv-x="225" 
 />
    <glyph glyph-name="uni200A" unicode="&#x200a;" horiz-adv-x="62" 
 />
    <glyph glyph-name="uni2010" unicode="&#x2010;" horiz-adv-x="390" 
d="M342 345q8 0 11 -8.5t3 -41.5v-14q0 -33 -3 -41.5t-11 -8.5h-294q-8 0 -11 8.5t-3 41.5v14q0 33 3 41.5t11 8.5h294z" />
    <glyph glyph-name="uni2011" unicode="&#x2011;" horiz-adv-x="390" 
d="M342 345q8 0 11 -8.5t3 -41.5v-14q0 -33 -3 -41.5t-11 -8.5h-294q-8 0 -11 8.5t-3 41.5v14q0 33 3 41.5t11 8.5h294z" />
    <glyph glyph-name="figuredash" unicode="&#x2012;" horiz-adv-x="390" 
d="M342 345q8 0 11 -8.5t3 -41.5v-14q0 -33 -3 -41.5t-11 -8.5h-294q-8 0 -11 8.5t-3 41.5v14q0 33 3 41.5t11 8.5h294z" />
    <glyph glyph-name="endash" unicode="&#x2013;" horiz-adv-x="500" 
d="M486 337q8 0 11 -8.5t3 -41.5v-6q0 -33 -3 -41.5t-11 -8.5h-472q-8 0 -11 8.5t-3 41.5v6q0 33 3 41.5t11 8.5h472z" />
    <glyph glyph-name="emdash" unicode="&#x2014;" horiz-adv-x="1000" 
d="M986 337q8 0 11 -8.5t3 -41.5v-6q0 -33 -3 -41.5t-11 -8.5h-972q-8 0 -11 8.5t-3 41.5v6q0 33 3 41.5t11 8.5h972z" />
    <glyph glyph-name="quoteleft" unicode="&#x2018;" horiz-adv-x="274" 
d="M216 704q8 -8 9.5 -13t-5.5 -13q-35 -44 -45 -73.5t-10 -47.5t7 -28.5t15.5 -20.5t15.5 -21t7 -30q0 -27 -21 -49.5t-56 -22.5q-39 0 -64 27t-25 72q0 62 33.5 122.5t91.5 114.5q14 13 29 -1z" />
    <glyph glyph-name="quoteright" unicode="&#x2019;" horiz-adv-x="274" 
d="M58 411q-8 8 -9.5 13t5.5 13q34 44 44.5 73.5t10.5 47.5t-7 28.5t-15.5 20.5t-15.5 21t-7 30q0 27 21 49.5t56 22.5q39 0 64 -27t25 -72q0 -62 -33.5 -122.5t-91.5 -114.5q-14 -13 -29 1z" />
    <glyph glyph-name="quotesinglbase" unicode="&#x201a;" horiz-adv-x="274" 
d="M58 -229q-8 8 -9.5 13t5.5 13q34 44 44.5 73.5t10.5 47.5t-7 28.5t-15.5 20.5t-15.5 21t-7 30q0 27 21 49.5t56 22.5q39 0 64 -27t25 -72q0 -62 -33.5 -122.5t-91.5 -114.5q-14 -13 -29 1z" />
    <glyph glyph-name="quotedblleft" unicode="&#x201c;" horiz-adv-x="489" 
d="M431 704q8 -8 9.5 -13t-5.5 -13q-35 -44 -45 -73.5t-10 -47.5t7 -28.5t15.5 -20.5t15.5 -21t7 -30q0 -27 -21 -49.5t-56 -22.5q-39 0 -64 27t-25 72q0 62 33.5 122.5t91.5 114.5q14 13 29 -1zM216 704q8 -8 9.5 -13t-5.5 -13q-35 -44 -45 -73.5t-10 -47.5t7 -28.5
t15.5 -20.5t15.5 -21t7 -30q0 -27 -21 -49.5t-56 -22.5q-39 0 -64 27t-25 72q0 62 33.5 122.5t91.5 114.5q14 13 29 -1z" />
    <glyph glyph-name="quotedblright" unicode="&#x201d;" horiz-adv-x="489" 
d="M58 411q-8 8 -9.5 13t5.5 13q34 44 44.5 73.5t10.5 47.5t-7 28.5t-15.5 20.5t-15.5 21t-7 30q0 27 21 49.5t56 22.5q39 0 64 -27t25 -72q0 -62 -33.5 -122.5t-91.5 -114.5q-14 -13 -29 1zM273 411q-8 8 -9.5 13t5.5 13q34 44 44.5 73.5t10.5 47.5t-7 28.5t-15.5 20.5
t-15.5 21t-7 30q0 27 21 49.5t56 22.5q39 0 64 -27t25 -72q0 -62 -33.5 -122.5t-91.5 -114.5q-14 -13 -29 1z" />
    <glyph glyph-name="quotedblbase" unicode="&#x201e;" horiz-adv-x="489" 
d="M58 -229q-8 8 -9.5 13t5.5 13q34 44 44.5 73.5t10.5 47.5t-7 28.5t-15.5 20.5t-15.5 21t-7 30q0 27 21 49.5t56 22.5q39 0 64 -27t25 -72q0 -62 -33.5 -122.5t-91.5 -114.5q-14 -13 -29 1zM273 -229q-8 8 -9.5 13t5.5 13q34 44 44.5 73.5t10.5 47.5t-7 28.5t-15.5 20.5
t-15.5 21t-7 30q0 27 21 49.5t56 22.5q39 0 64 -27t25 -72q0 -62 -33.5 -122.5t-91.5 -114.5q-14 -13 -29 1z" />
    <glyph glyph-name="dagger" unicode="&#x2020;" horiz-adv-x="481" 
d="M245 720q21 0 32.5 -1t17.5 -3t7.5 -4.5t1.5 -6.5v-204h143q8 0 11 -8.5t3 -41.5v-14q0 -33 -3 -41.5t-11 -8.5h-143v-509q0 -4 -1.5 -6.5t-7.5 -4.5t-17.5 -3t-32.5 -1h-11q-20 0 -31.5 1t-17 2.5t-7 4.5t-1.5 7v509h-143q-8 0 -11 8.5t-3 41.5v14q0 33 3 41.5t11 8.5
h143v204q0 4 1.5 7t7 4.5t17 2.5t31.5 1h11z" />
    <glyph glyph-name="daggerdbl" unicode="&#x2021;" horiz-adv-x="501" 
d="M255 720q21 0 32.5 -1t17.5 -3t7.5 -4.5t1.5 -6.5v-204h143q8 0 11 -8.5t3 -41.5v-14q0 -33 -3 -41.5t-11 -8.5h-143v-191h143q8 0 11 -8.5t3 -41.5v-14q0 -33 -3 -41.5t-11 -8.5h-143v-204q0 -4 -1.5 -6.5t-7.5 -4.5t-17.5 -3t-32.5 -1h-11q-20 0 -31.5 1t-17 2.5
t-7 4.5t-1.5 7v204h-143q-8 0 -11 8.5t-3 41.5v14q0 33 3 41.5t11 8.5h143v191h-143q-8 0 -11 8.5t-3 41.5v14q0 33 3 41.5t11 8.5h143v204q0 4 1.5 7t7 4.5t17 2.5t31.5 1h11z" />
    <glyph glyph-name="bullet" unicode="&#x2022;" horiz-adv-x="355" 
d="M176 507q29 0 54.5 -11t44 -29.5t29.5 -44t11 -54.5q0 -28 -11 -53t-29.5 -43.5t-44 -29t-54.5 -10.5q-28 0 -53 10.5t-43.5 29t-29 43.5t-10.5 53q0 29 10.5 54.5t29 44t43.5 29.5t53 11z" />
    <glyph glyph-name="ellipsis" unicode="&#x2026;" horiz-adv-x="717" 
d="M34 72q0 35 24 59t61 24q38 0 62 -24t24 -59q0 -34 -24 -58t-62 -24q-37 0 -61 24t-24 58zM273 72q0 35 24 59t61 24q38 0 62 -24t24 -59q0 -34 -24 -58t-62 -24q-37 0 -61 24t-24 58zM512 72q0 35 24 59t61 24q38 0 62 -24t24 -59q0 -34 -24 -58t-62 -24q-37 0 -61 24
t-24 58z" />
    <glyph glyph-name="uni202F" unicode="&#x202f;" horiz-adv-x="225" 
 />
    <glyph glyph-name="perthousand" unicode="&#x2030;" horiz-adv-x="1366" 
d="M233 643q-35 0 -52.5 -31t-17.5 -90q0 -62 17 -89t47 -27q35 0 52.5 31t17.5 90q0 62 -17 89t-47 27zM234 730q37 0 68.5 -12.5t54.5 -37t36 -62t13 -87.5q0 -52 -13 -91.5t-37 -66.5t-57 -40.5t-73 -13.5q-37 0 -68.5 12.5t-54.5 37t-36 62t-13 87.5q0 52 13 91.5
t37 66.5t57 40.5t73 13.5zM716 720q22 0 33.5 -1t16.5 -3t4.5 -5.5t-3.5 -7.5l-437 -686q-6 -10 -20 -13.5t-51 -3.5h-7q-35 0 -43.5 4t-2.5 13l437 686q7 11 20 14t51 3h2zM742 314q-35 0 -52.5 -31t-17.5 -90q0 -62 17 -89t47 -27q35 0 52.5 31t17.5 90q0 62 -17 89
t-47 27zM743 401q37 0 68.5 -12.5t54.5 -37t36 -62t13 -87.5q0 -52 -13 -91.5t-37 -66.5t-57 -40.5t-73 -13.5q-37 0 -68.5 12.5t-54.5 37t-36 62t-13 87.5q0 52 13 91.5t37 66.5t57 40.5t73 13.5zM1139 314q-35 0 -52.5 -31t-17.5 -90q0 -62 17 -89t47 -27q35 0 52.5 31
t17.5 90q0 62 -17 89t-47 27zM1140 401q37 0 68.5 -12.5t54.5 -37t36 -62t13 -87.5q0 -52 -13 -91.5t-37 -66.5t-57 -40.5t-73 -13.5q-37 0 -68.5 12.5t-54.5 37t-36 62t-13 87.5q0 52 13 91.5t37 66.5t57 40.5t73 13.5z" />
    <glyph glyph-name="guilsinglleft" unicode="&#x2039;" horiz-adv-x="322" 
d="M247 511q23 -13 29 -21.5t1 -17.5l-105 -170l105 -170q5 -9 -1 -17.5t-29 -21.5l-16 -9q-23 -13 -32.5 -13t-15.5 9l-128 186q-5 8 -8 15t-3 18v6q0 11 3 18t8 15l128 186q6 9 15.5 9t32.5 -13z" />
    <glyph glyph-name="guilsinglright" unicode="&#x203a;" horiz-adv-x="322" 
d="M91 520q23 13 32.5 13t15.5 -9l128 -186q5 -8 8 -15t3 -18v-6q0 -11 -3 -18t-8 -15l-128 -186q-6 -9 -15.5 -9t-32.5 13l-16 9q-23 13 -29 21.5t-1 17.5l105 170l-105 170q-5 9 1 17.5t29 21.5z" />
    <glyph glyph-name="fraction" unicode="&#x2044;" horiz-adv-x="382" 
d="M361 720q39 0 46 -4t3 -12l-315 -687q-2 -5 -5 -8t-10 -5t-18.5 -3t-31.5 -1h-9q-39 0 -46 4t-3 12l315 687q3 5 6 8.5t9.5 5.5t18 2.5t31.5 0.5h9z" />
    <glyph glyph-name="uni205F" unicode="&#x205f;" horiz-adv-x="282" 
 />
    <glyph glyph-name="Euro" unicode="&#x20ac;" 
d="M107 479q12 58 36 104.5t59 79t81.5 50t103.5 17.5q56 0 97.5 -13.5t80.5 -39.5q14 -9 12.5 -19.5t-15.5 -33.5l-11 -18q-16 -26 -21.5 -31t-13.5 0q-33 20 -60 28t-60 8q-54 0 -90 -33.5t-52 -98.5h163q8 0 11 -6t3 -39v-1q0 -33 -3 -39t-11 -6h-175q-1 -8 -1 -16v-15
v-15q0 -7 1 -14h175q8 0 11 -6t3 -39v-1q0 -33 -3 -39t-11 -6h-164q16 -61 51.5 -94t95.5 -33q33 0 61.5 7t59.5 24q10 5 16.5 1t18.5 -30l9 -19q11 -23 12 -32.5t-12 -17.5q-36 -23 -82.5 -38t-104.5 -15q-119 0 -186 64.5t-88 182.5h-66q-8 0 -11 6t-3 39v1q0 33 3 39
t11 6h57v25v17q0 8 1 18h-58q-8 0 -11 6t-3 39v1q0 33 3 39t11 6h69z" />
    <glyph glyph-name="afii61289" unicode="&#x2113;" horiz-adv-x="298" 
d="M130 760q21 0 34 -0.5t19.5 -2t9 -4t3.5 -6.5q2 -11 4 -39t3 -67t1.5 -86.5t0.5 -98.5v-318q0 -17 7 -25.5t26 -8.5h12q7 0 8.5 -8t1.5 -36v-9q0 -27 -1.5 -34t-7.5 -10q-11 -5 -29 -8.5t-38 -3.5q-54 0 -84 30q-18 18 -25 44t-7 61v347q0 36 -1 77l-2 80
q-1 38 -2.5 68.5t-2.5 44.5q0 4 1 6.5t7 4t19.5 2t37.5 0.5h5z" />
    <glyph glyph-name="afii61352" unicode="&#x2116;" horiz-adv-x="1122" 
d="M896 668q86 0 136 -50.5t50 -150.5q0 -103 -51 -159.5t-147 -56.5q-86 0 -136 50.5t-50 150.5q0 104 51 160t147 56zM894 561q-38 0 -56.5 -27t-18.5 -77q0 -48 17 -73.5t50 -25.5q38 0 56.5 27.5t18.5 77.5q0 47 -17 72.5t-50 25.5zM135 720q21 0 33.5 -1t20 -3t10.5 -5
t6 -7l180 -274l47 -72q19 -30 32 -52t22 -40t17 -38q-2 18 -3 46q-2 29 -2 61v65q0 33 -1 59v246q0 8 11.5 11.5t52.5 3.5h7q39 0 52 -3.5t13 -11.5v-690q0 -5 -1.5 -7.5t-7.5 -4.5t-17.5 -2.5t-31.5 -0.5h-6q-36 0 -49 3t-19 13l-180 274l-49 76l-34 54q-14 23 -22 40.5
t-14 32.5q2 -18 4 -47q2 -28 2 -60v-66q0 -33 1 -59v-246q0 -9 -12.5 -12t-51.5 -3h-6q-41 0 -53.5 2.5t-12.5 12.5v690q0 5 1.5 8t7 4.5t17 2t31.5 0.5h5z" />
    <glyph glyph-name="trademark" unicode="&#x2122;" horiz-adv-x="844" 
d="M313 720q5 0 7 -4t2 -26v-24q0 -20 -2 -25.5t-7 -5.5h-93v-311q0 -5 -8 -6.5t-30 -1.5h-26q-24 0 -30.5 1.5t-6.5 6.5v311h-93q-6 0 -8 4.5t-2 26.5v24q0 23 2 26.5t8 3.5h287zM451 720q23 0 30 -2t9 -8l53 -127q13 -31 21.5 -54.5t13.5 -41.5q5 17 13 41.5t19 52.5
l53 129q1 3 2.5 4.5t5.5 3t11 2t20 0.5h43q25 0 32.5 -2t8.5 -7l12 -387q0 -5 -5.5 -6.5t-31.5 -1.5h-24q-24 0 -30 1t-6 6l-2 140q-1 34 -1.5 65.5t1.5 56.5q-7 -23 -19 -56t-26 -65l-30 -75q-2 -5 -7 -7t-28 -2h-26q-23 0 -28 2t-7 7l-32 73l-26 68q-12 33 -20 54
q2 -26 3 -61.5t-2 -70.5l-4 -129q0 -5 -6 -6t-29 -1h-24q-26 0 -31 1.5t-5 6.5l15 387q0 6 6.5 7.5t31.5 1.5h46z" />
    <glyph glyph-name="estimated" unicode="&#x212e;" horiz-adv-x="922" 
d="M206 352q-5 0 -5 -6v-202q0 -12 9 -24q48 -48 113 -78t140 -30q80 0 148 32.5t116 89.5h60q-57 -66 -141 -105t-184 -39q-85 0 -160 29t-131 79.5t-88.5 117.5t-32.5 144t32.5 144.5t88.5 117.5t131 79t160 29t159.5 -29t130 -79t88 -117.5t32.5 -144.5v-8h-666zM721 580
q0 13 -10 25q-48 48 -112 75.5t-136 27.5q-75 0 -139 -29t-113 -77q-10 -10 -10 -26v-199q0 -6 5 -6h510q5 0 5 6v203z" />
    <glyph glyph-name="partialdiff" unicode="&#x2202;" 
d="M126 646q-8 17 -8.5 26t10.5 17q24 17 62.5 29t82.5 12q64 0 113 -27.5t82 -78.5t49.5 -124t16.5 -164q0 -64 -12.5 -126t-42 -111t-78 -79t-121.5 -30q-54 0 -96.5 17.5t-72.5 49.5t-46 76t-16 97q0 51 15.5 93t43.5 72.5t65 47.5t81 17q35 0 72 -12t63 -32
q-4 42 -10.5 78.5t-21 64.5t-38 44t-60.5 16q-43 0 -91 -24q-7 -3 -12.5 0.5t-16.5 25.5zM391 317q-20 15 -48 23.5t-52 8.5q-48 0 -77 -30.5t-29 -90.5q0 -63 28 -94.5t70 -31.5q50 0 78.5 49.5t29.5 165.5z" />
    <glyph glyph-name="product" unicode="&#x220f;" horiz-adv-x="785" 
d="M742 720q5 0 8.5 -1t5.5 -6t2.5 -15.5t0.5 -30.5v-8q0 -19 -1 -30t-3 -16.5t-5 -7t-8 -1.5h-87v-756q0 -9 -12 -12t-54 -3h-14q-40 0 -52.5 3t-12.5 12v756h-235v-756q0 -9 -14 -12t-54 -3h-11q-42 0 -54 3t-12 12v756h-87q-5 0 -8 1.5t-5 7t-3 16.5t-1 30v8
q0 20 0.5 30.5t2.5 15.5t5.5 6t8.5 1h699z" />
    <glyph glyph-name="summation" unicode="&#x2211;" horiz-adv-x="591" 
d="M545 720q5 0 8.5 -1t5.5 -6.5t2.5 -16t0.5 -29.5v-8q0 -37 -3.5 -46t-13.5 -9h-318l231 -278q4 -5 6 -10.5t2 -20.5v-27q0 -14 -2 -20.5t-7 -13.5l-230 -285h325q5 0 8.5 -1t5.5 -6.5t2.5 -16t0.5 -29.5v-8q0 -37 -3.5 -46t-13.5 -9h-479q-20 0 -27.5 3t-7.5 11v55
q0 14 4.5 22t15.5 22l266 325l-263 318q-11 13 -15.5 21.5t-4.5 22.5v73q0 8 7.5 11t27.5 3h469z" />
    <glyph glyph-name="minus" unicode="&#x2212;" 
d="M527 405q8 0 11 -8.5t3 -41.5v-14q0 -33 -3 -41.5t-11 -8.5h-465q-8 0 -11 8.5t-3 41.5v14q0 33 3 41.5t11 8.5h465z" />
    <glyph glyph-name="radical" unicode="&#x221a;" horiz-adv-x="664" 
d="M205 488q18 0 23.5 -4t10.5 -20l112 -341l199 657q1 5 3.5 8t9 5t18.5 3t34 1h5q23 0 36 -1t19.5 -3t7 -5.5t-0.5 -7.5l-269 -841q-2 -6 -13 -9t-50 -3h-6q-39 0 -50 2.5t-14 10.5l-149 441h-58q-7 0 -10 7t-3 43v7q0 36 3 43t10 7h132z" />
    <glyph glyph-name="infinity" unicode="&#x221e;" horiz-adv-x="811" 
d="M407 395q36 36 82.5 64.5t100.5 28.5q37 0 68 -11t54 -32t36 -51.5t13 -69.5q0 -42 -14.5 -73t-38.5 -51.5t-55.5 -31t-65.5 -10.5q-49 0 -90.5 22t-88.5 70q-38 -42 -84.5 -68t-103.5 -26q-35 0 -65.5 11t-54 32t-37 52t-13.5 71q0 37 12.5 68t35.5 53.5t54 34.5t69 12
q54 0 99 -24.5t87 -70.5zM336 324q-25 27 -50.5 47t-60.5 20q-32 0 -51 -18t-19 -48q0 -32 21 -49.5t52 -17.5q32 0 58.5 19t49.5 47zM475 324q32 -35 54 -50.5t49 -15.5q36 0 56 19.5t20 49.5t-23 46t-53 16q-32 0 -56.5 -19.5t-46.5 -45.5z" />
    <glyph glyph-name="integral" unicode="&#x222b;" horiz-adv-x="376" 
d="M334 651q-5 -24 -8.5 -32t-14.5 -6q-9 2 -19.5 3t-21.5 1q-33 0 -48 -22t-15 -65q0 -51 15 -107t32.5 -115.5t32.5 -121t15 -123.5q0 -47 -12.5 -85.5t-36 -66t-58 -43t-78.5 -15.5q-41 0 -73 13q-9 4 -9.5 13t4.5 38l3 15q5 24 8.5 32t14.5 6q9 -2 19.5 -3t21.5 -1
q33 0 48 22t15 65q0 51 -15 107t-32.5 115.5t-32.5 121t-15 123.5q0 46 12.5 85t36 66.5t58 43t78.5 15.5q21 0 39.5 -3.5t33.5 -9.5q9 -4 9.5 -13t-4.5 -38z" />
    <glyph glyph-name="approxequal" unicode="&#x2248;" 
d="M78 400q-21 5 -27 9t-4 13q6 28 19 52t32 42t43 28.5t51 10.5q36 0 65 -12t53 -27l45 -27q21 -12 42 -12q40 0 59 56q2 8 10 9t31 -4l13 -3q21 -5 27.5 -9t4.5 -13q-6 -28 -19 -52t-32 -42t-43 -28.5t-51 -10.5q-36 0 -64.5 12t-52.5 26l-46 27q-22 12 -42 12
q-41 0 -59 -55q-2 -6 -10 -8t-32 3zM78 166q-21 5 -27 9t-4 13q6 28 19 52t32 42t43 28.5t51 10.5q36 0 65 -12t53 -27l45 -27q21 -12 42 -12q40 0 59 56q2 8 10 9t31 -4l13 -3q21 -5 27.5 -9t4.5 -13q-6 -28 -19 -52t-32 -42t-43 -28.5t-51 -10.5q-36 0 -64.5 12t-52.5 26
l-46 27q-22 12 -42 12q-41 0 -59 -55q-2 -6 -10 -8t-32 3z" />
    <glyph glyph-name="notequal" unicode="&#x2260;" 
d="M328 524l53 105q4 7 12.5 9.5t38.5 2.5h17q31 0 40 -3.5t5 -10.5l-52 -103h65q8 0 11 -8.5t3 -41.5v-14q0 -33 -3 -41.5t-11 -8.5h-121l-63 -125h184q8 0 11 -8.5t3 -41.5v-14q0 -33 -3 -41.5t-11 -8.5h-241l-52 -105q-4 -7 -12.5 -9.5t-38.5 -2.5h-17q-31 0 -40 3.5
t-5 10.5l51 103h-70q-8 0 -11 8.5t-3 41.5v14q0 33 3 41.5t11 8.5h127l63 125h-190q-8 0 -11 8.5t-3 41.5v14q0 33 3 41.5t11 8.5h246z" />
    <glyph glyph-name="lessequal" unicode="&#x2264;" 
d="M527 114q8 0 11 -8.5t3 -41.5v-14q0 -33 -3 -41.5t-11 -8.5h-465q-8 0 -11 8.5t-3 41.5v14q0 33 3 41.5t11 8.5h465zM451 740q10 5 18.5 0.5t25.5 -33.5l4 -7q17 -31 18 -41t-8 -15l-313 -184l313 -184q9 -5 8 -15t-18 -41l-4 -7q-17 -29 -25.5 -33.5t-18.5 0.5l-384 227
q-8 5 -12 13.5t-4 34.5v10q0 24 4 33.5t12 14.5z" />
    <glyph glyph-name="greaterequal" unicode="&#x2265;" 
d="M527 114q8 0 11 -8.5t3 -41.5v-14q0 -33 -3 -41.5t-11 -8.5h-465q-8 0 -11 8.5t-3 41.5v14q0 33 3 41.5t11 8.5h465zM94 707q17 29 25.5 33.5t18.5 -0.5l384 -227q8 -5 12 -14.5t4 -33.5v-10q0 -26 -4 -34.5t-12 -13.5l-384 -227q-10 -5 -18.5 -0.5t-25.5 33.5l-4 7
q-17 31 -18 41t8 15l313 184l-313 184q-9 5 -8 15t18 41z" />
    <glyph glyph-name="lozenge" unicode="&#x25ca;" horiz-adv-x="579" 
d="M171 363l121 -213l119 216l-119 213zM302 753q17 0 22.5 -2t9.5 -8l185 -330q3 -5 6.5 -14.5t3.5 -23.5v-13q0 -16 -3 -24.5t-7 -15.5l-191 -335q-4 -6 -9.5 -8t-22.5 -2h-16q-16 0 -23.5 2.5t-10.5 7.5l-186 329q-5 10 -7.5 17t-2.5 23v14q0 13 2.5 21t7.5 17l192 335
q3 5 10.5 7.5t23.5 2.5h16z" />
    <glyph glyph-name="uniE000" unicode="&#xe000;" horiz-adv-x="530" 
d="M0 530h530v-530h-530v530z" />
    </font>
</defs>
</svg>
